<svg width="849" height="700" viewBox="0 0 849 700" fill="none" xmlns="http://www.w3.org/2000/svg">
<path fill-rule="evenodd" clip-rule="evenodd" d="M323.186 120.119C406.827 86.7303 471.947 -10.1838 557.257 0.94618C641.929 11.993 649.739 112.713 699.868 169.263C748.569 224.2 834.822 255.945 846.436 327.16C858.589 401.674 818.933 483.139 761.592 547.732C706.473 609.823 623.735 646.974 540.142 672.194C462.337 695.667 375.892 712.122 306.873 684.918C242.303 659.467 242.647 579.835 194.461 535.94C139.718 486.073 31.9863 481.283 9.0709 413.638C-14.8489 343.028 14.4035 251.705 78.0326 192.248C139.667 134.655 242.054 152.506 323.186 120.119Z" fill="#130F49"/>
</svg>
