<?xml version="1.0" encoding="UTF-8"?>
<svg width="863px" height="562px" viewBox="0 0 863 562" version="1.1" xmlns="http://www.w3.org/2000/svg" xmlns:xlink="http://www.w3.org/1999/xlink">
    <title>Open Doodles - Meditating</title>
    <g id="页面-1" stroke="none" stroke-width="1" fill="none" fill-rule="evenodd">
        <g id="Open-Doodles---Meditating" transform="translate(-0.000207, 0.083782)" fill-rule="nonzero">
            <path d="M269.000207,200.031458 C272.140035,231.733084 275.279864,263.435755 278.419692,295.137381 C295.513964,285.383275 312.609283,275.628125 329.703555,265.87402 L329.703555,338.095994 L329.703555,357.079554 C329.703555,358.759062 328.706136,364.52917 329.703555,365.983977 C330.549216,367.217218 336.813173,367.252752 338.294126,367.460731 C347.959564,368.814162 357.648028,370.01814 367.350097,371.089388 C392.920859,373.913302 420.289696,377.958962 445.957793,374.713864 C468.27046,371.893085 489.900738,363.957489 510.286597,354.722808 C517.443312,351.480846 524.5006,348.011048 531.426014,344.302962 C532.894407,343.517032 538.224789,341.660898 539.023352,340.06082 C539.67539,338.753374 538.145247,334.160072 537.941158,332.785739 C537.079799,326.993684 536.218439,321.200584 535.357079,315.408528 L523.326304,234.520419 L546.053428,257.2152 C547.833711,258.99295 551.214259,264.040879 553.677978,264.8289 C555.484426,265.406851 559.957635,263.618651 561.74315,263.274806 C574.611214,260.794737 587.480323,258.314667 600.349433,255.835642 C603.346923,255.257691 610.103833,255.279638 612.631395,253.468445 C613.991987,252.492303 614.055831,250.50762 614.536224,248.626404 C617.675006,236.329522 620.813788,224.033685 623.95257,211.737848 C624.517739,209.523238 627.67222,202.539746 626.870517,200.30946 C626.582699,199.509944 625.190709,198.963346 624.338768,198.441831 C604.916837,186.579719 585.492812,174.716561 566.07088,162.853404 C555.431049,156.354848 544.791217,149.856291 534.151385,143.357735 C529.694922,140.635197 524.220108,135.730449 519.170218,134.207709 C516.035622,133.261876 511.474498,133.970467 508.230009,133.877451 C501.637416,133.68933 495.04587,133.501208 488.453277,133.313086 C487.42132,133.283823 483.806331,132.548059 482.937645,133.156318 C482.214438,133.662156 482.513768,134.367612 482.277234,135.573681 C481.697413,138.518829 481.693226,141.694949 481.407502,144.685037 C481.178295,147.084633 481.63357,151.484588 480.552422,153.656348 C479.86166,155.044267 480.737672,154.491399 479.80305,155.162366 C478.690504,155.960837 475.138311,155.703738 473.81435,155.85737 C467.354677,156.607767 460.893957,157.358163 454.434283,158.108559 C446.754263,159.000046 438.988421,160.674329 431.271769,159.90303 C419.573816,158.735631 406.961125,158.793113 395.474586,156.32872 C392.489656,155.688061 391.413742,154.006463 389.111201,151.707199 C384.61706,147.219453 380.167923,142.679452 375.624592,138.238737 C373.397407,136.062797 374.350868,136.431725 372.055653,137.257369 C369.178524,138.290993 366.260577,140.78674 363.656612,142.373232 C353.679285,148.450605 343.701957,154.527978 333.724629,160.605351 L272.811959,197.709202 C271.541375,198.483636 270.270791,199.257024 269.000207,200.031458" id="Accent" fill="#FF5678"></path>
            <path d="M445.082964,15.8756283 C451.931677,12.3726871 451.942387,19.9726121 457.71729,17.6876045 C471.678424,12.1634785 462.861622,20.4297232 471.324793,20.9225691 C489.423068,21.9765074 494.362022,15.328228 495.46043,28.2341266 C496.997169,46.2902713 500.787569,59.1446297 496.841996,60.3929301 C488.877291,62.9138261 490.103347,82.1888914 482.633428,86.0461654 C475.877968,89.5337364 473.121599,95.9904554 468.506379,101.598846 C466.429949,104.121837 464.380716,107.837723 461.827282,109.851717 C459.431803,111.742127 455.99654,112.197711 453.254816,113.400033 C445.171905,116.943111 450.798665,122.294909 456.47459,125.579301 C460.189151,127.729446 463.632783,129.717256 467.854683,127.915868 C471.457316,126.379452 474.122679,124.02508 478.03913,123.031174 C486.080197,120.993092 495.538677,120.997282 503.24396,124.225118 C511.156362,127.539881 519.673388,128.195503 527.293939,132.244436 C543.695123,140.956033 559.060708,152.187477 574.529852,162.432348 C582.854402,167.94648 590.879779,174.18431 599.566267,179.108802 C606.590563,183.08966 613.937047,186.448411 621.136036,190.082607 C628.20636,193.651868 631.265041,198.69366 636.066459,204.601585 C638.022593,207.00937 638.619893,210.373357 640.886707,212.472184 C643.29683,214.705067 647.475842,215.516739 650.428871,216.934809 C666.617705,224.705913 684.683172,233.410178 702.763283,235.101597 C710.356637,235.812727 718.333896,236.381421 725.965954,236.192903 C728.493236,236.131111 732.238133,236.05361 732.668064,233.069799 C733.060337,230.346771 730.220282,225.171969 729.3259,222.732764 C723.713785,207.42725 717.19369,193.087364 719.190619,176.359591 C720.767033,163.157092 725.86344,148.349055 736.919254,140.131793 C738.495668,138.959843 739.925633,138.078001 741.789713,137.557484 C742.946656,137.234909 744.592109,137.54701 745.644446,136.943755 C747.786778,135.716297 747.404966,134.045824 747.30559,131.609761 C747.082779,126.139616 746.4133,120.338518 750.68855,116.003667 C755.812155,110.807919 765.212056,114.191805 770.587761,117.320146 C776.763703,120.914544 781.559891,126.442291 785.501447,132.321938 C790.329017,139.520159 795.340693,147.24937 798.524902,155.342001 C801.900539,163.918493 802.64638,173.36426 806.9164,181.616083 C808.005349,172.712827 808.900777,163.794909 810.392459,154.945067 C811.543126,148.115503 812.383113,139.735906 816.755646,134.059439 C821.668993,127.681269 827.374207,133.060297 829.632652,138.739906 C832.452831,145.827111 831.994657,153.775212 832.518733,161.242594 C835.138069,154.900033 840.315023,136.423238 849.663667,137.764853 C855.862622,138.654026 859.13993,147.841105 860.474703,152.964588 C862.380625,160.285345 862.599252,167.93496 862.830431,175.454708 C863.940302,211.64585 850.220171,247.161471 831.364928,277.47925 C814.817296,304.085332 792.269459,324.610682 761.628252,333.261534 C746.241747,337.604764 729.937846,339.487843 713.99379,338.02055 C696.732744,336.433862 680.235322,330.835944 664.193983,324.534228 C648.896393,318.523667 633.495242,312.927843 619.58682,304.0979 C617.392185,302.704966 609.021608,295.65337 606.24641,296.345648 C601.70546,297.478846 604.120814,304.795414 597.507619,303.513496 C592.328573,302.510165 587.681972,297.488272 583.967411,294.107528 C579.018498,289.604058 574.186744,284.978051 569.263983,280.447351 C556.127554,268.357105 542.934637,256.41872 530.09529,243.999616 C528.14334,255.913913 531.912297,268.105749 533.610053,279.829433 C535.391494,292.127048 538.145772,304.069622 542.290264,315.795402 C544.43678,321.867755 546.651291,327.839566 548.06138,334.136045 C548.697385,336.98161 548.928565,339.87954 551.338688,341.792992 C555.200744,344.860588 561.716656,345.881723 566.229361,347.730241 C571.837292,350.028058 577.373045,352.501824 583.047923,354.635212 C594.935356,359.106215 605.031933,365.875036 615.980003,372.166279 C637.386588,384.468083 660.263933,394.206051 680.631779,408.298771 C699.74226,421.523263 719.24083,435.0232 732.917027,454.194367 C744.177869,469.9806 756.184553,489.103591 756.572641,509.118897 C756.999434,531.21732 736.848122,546.431717 719.475148,556.532058 C708.602394,562.853673 698.265223,560.173585 686.374652,560.006014 C672.943234,559.817496 659.482526,561.41361 646.019726,561.328777 C619.384931,561.164348 593.368357,559.13255 567.128973,554.606039 C554.316823,552.395149 541.336257,551.616992 528.611976,548.822745 C516.200467,546.096575 504.435423,541.388878 492.454891,537.260348 C481.049692,533.330809 469.736547,529.71337 458.828227,524.478872 C453.399172,521.87419 447.909446,519.162682 442.702156,516.134884 C438.687376,513.801458 435.30337,510.451086 431.061594,508.49679 C425.81037,506.078531 421.728641,509.023591 416.488923,510.131654 C410.798354,511.335023 405.196699,513.059957 399.508222,514.348159 C386.855073,517.212575 374.792948,522.175818 362.19524,525.254935 C355.70025,526.841622 349.069271,527.290922 342.510471,528.489055 C336.519682,529.583503 330.665927,531.327288 324.690829,532.509711 C311.420504,535.135339 297.883434,536.718884 284.685287,539.637761 C272.293653,542.378594 260.738868,546.825509 248.14116,548.815414 C235.011007,550.889105 222.143416,554.523301 209.050921,556.845206 C196.654057,559.044575 183.292725,562.082846 170.68351,561.908992 C158.965539,561.747704 146.244396,562.209572 134.991922,558.479023 C113.35102,551.304891 102.573458,527.923503 106.618574,506.140323 C110.787126,483.68267 128.098383,465.882443 145.223441,452.115439 C164.955282,436.252752 186.763554,422.458518 208.243362,409.102064 C230.876976,395.027149 254.706236,384.366493 279.135936,373.898544 C284.344271,371.666708 289.423942,369.034796 294.774542,367.169521 C298.281983,365.947301 302.241322,365.093736 305.408794,363.073458 C309.901624,360.206947 307.221617,356.708903 308.381698,352.343679 C309.519812,348.064335 313.489612,344.388247 315.013722,339.992651 C318.696902,329.378077 318.927035,317.919364 322.251416,307.196916 C324.053778,301.385345 326.320591,295.710973 327.136519,289.640714 C327.994288,283.25626 327.541344,276.783831 327.541344,270.366909 C316.952073,276.955591 307.848207,285.627389 297.289271,292.292525 C292.654177,295.217686 288.473073,298.738771 283.925847,301.723629 C278.404739,305.350493 278.752031,300.383061 274.62323,298.29366 C273.543696,300.828171 272.881539,303.501976 271.987157,306.102468 L271.913631,305.919245 C271.053956,303.840448 270.128784,303.819643 269.139,305.856831 L269.054003,306.036487 L269.286229,303.424474 C267.908567,305.220626 264.812228,306.095137 265.872933,308.93337 C262.256702,308.93337 261.375919,309.139692 258.195894,311.770556 C254.988673,314.425509 252.448837,316.814443 248.690342,318.722657 C239.322869,323.481673 230.367544,328.961244 220.844208,333.424916 C202.75259,341.904007 183.35758,348.205723 163.453139,350.647023 C154.515597,351.742518 145.515292,352.174014 136.562059,353.108222 C127.489576,354.05395 118.655594,355.143162 109.504656,354.543048 C92.6180991,353.434985 76.1939021,348.283225 61.3890061,340.140323 C34.5178011,325.362657 14.3842727,300.889963 5.6276993,271.436222 C0.280237499,253.449572 -0.571255801,234.973824 0.290698099,216.33679 C0.734227799,206.742304 2.5648339,197.291301 2.3577139,187.6832 C2.170469,178.987313 2.8650533,170.838127 5.8735236,162.606203 C7.9593684,156.899364 12.1174593,147.564613 18.7557599,146.046001 C26.5834311,144.256133 28.3010631,155.616398 28.7602831,161.003805 C29.5552901,170.323894 27.8209211,179.695301 27.8010461,189.023768 C27.7937231,192.716613 27.8209211,196.323578 27.5269781,200.000714 C27.3690231,201.975957 26.5081151,206.225976 28.1880881,207.881786 C32.3106131,184.868007 34.5449991,162.055313 44.3842451,140.546531 C46.4805501,135.964512 51.4545681,125.254632 57.7215171,130.783427 C65.1516861,137.337547 58.7822231,149.210998 62.5856991,157.214607 C69.5482791,144.071805 78.8948301,127.811137 94.1108281,123.234354 C102.324496,120.76373 112.725476,122.505421 119.83555,127.246632 C126.38912,131.614998 133.836025,140.936133 136.345525,148.457976 C137.330914,151.415603 136.644698,155.781875 138.444968,158.31848 C140.255699,160.869749 144.257927,161.640575 146.281008,164.473572 C152.137902,172.673029 153.14212,184.284651 152.266567,193.9912 C151.294777,204.776487 147.064508,214.317559 141.032922,223.209294 C137.934491,227.775603 134.452155,232.18272 130.357874,235.901749 C127.182034,238.787111 123.10449,241.028373 120.803156,244.761017 C128.792967,246.728928 137.299532,244.265635 145.298757,243.511566 C154.579407,242.636007 163.693733,241.570884 172.884422,239.949635 C191.655979,236.639061 209.752828,232.160727 227.708458,225.746947 C236.186779,222.718102 244.204834,219.235768 251.767852,214.299755 C257.11636,210.809042 265.67209,207.574922 267.394951,200.95901 C268.362557,197.243124 268.673237,194.704424 271.501785,191.912272 C274.3523,189.09708 277.904722,187.01501 281.184122,184.74966 C288.727265,179.540297 295.432514,173.078342 302.368942,167.096058 C315.846387,155.471868 328.563345,141.337256 344.10676,132.450758 C351.507639,128.219591 359.54243,125.655755 368.122219,126.250632 C377.685305,126.913585 387.18772,128.491894 396.753944,129.236537 C402.239486,129.662796 408.247012,130.923768 410.478259,124.545597 C411.505491,121.61101 411.975172,116.88132 410.90296,113.906935 C409.757523,110.727275 411.554156,115.940523 408.685858,114.619854 C406.770521,113.738012 403.910242,111.282092 401.726067,112.077007 C400.332714,112.584956 402.537097,102.635352 401.613426,103.627163 C396.613256,108.994671 401.554487,96.0369586 395.917266,98.4311296 C388.072248,101.76401 392.905673,89.8304955 386.363439,91.9603995 C385.971391,92.0880354 384.485542,83.9029482 384.00951,84.1030286 C378.26873,86.5160506 381.291561,76.7080629 375.246377,78.2402899 C363.789921,81.1445049 369.737323,54.7834637 371.90476,52.0761447 C375.778323,47.2364857 386.44925,42.2981438 385.738975,36.8060048 C383.987869,23.2736013 388.982586,33.3101493 400.753906,24.7388938 C407.423587,19.8823363 413.901148,8.76494875 421.341974,13.2998213 C429.104895,18.030998 438.498656,19.2433335 445.082964,15.8756283 Z M536.903052,350.145357 C539.738922,347.623414 544.315437,348.851919 547.414915,350.162115 C556.717532,354.092701 564.668639,360.701282 573.913722,364.802581 C584.15884,369.347944 593.028388,375.422392 602.269287,381.682215 C610.716227,387.403717 619.849382,392.140739 628.471013,397.601458 C637.256876,403.166909 647.091938,406.784348 655.998098,412.151856 C665.062213,417.615717 674.090762,423.101572 682.801309,429.121559 C683.35602,429.50499 683.911548,429.888788 684.467649,430.273134 L686.137435,431.427993 C686.415938,431.620803 686.694525,431.813795 686.973165,432.006991 L688.64539,433.168801 C702.303099,442.679884 715.941686,452.789651 725.99629,466.14532 C731.902348,473.990783 737.430778,482.88985 741.764607,491.699894 C745.704071,499.708739 749.977229,510.826026 744.872453,519.157446 C739.969567,527.157913 731.612589,533.460676 724.539127,539.430392 C721.860166,541.690506 719.311962,544.436575 715.840087,545.416865 C711.61714,546.607667 706.689149,546.278809 702.345905,546.630708 C679.12336,548.513786 657.488734,546.736487 634.60302,542.582821 C612.536372,538.578922 590.37767,536.336613 568.14156,533.55284 C555.597201,531.982909 543.054934,530.154291 530.681083,527.539137 C525.391155,526.421648 520.009173,525.132398 514.833265,523.609597 C510.313237,522.279503 506.511853,519.3512 501.864206,518.190771 C482.139687,513.265231 459.57093,511.382152 440.04307,503.096815 C450.535058,498.736641 461.426529,495.424633 472.328617,492.159684 L476.176221,491.007673 C481.946388,489.277697 487.706709,487.5279 493.399483,485.609736 C512.040283,479.328966 530.245922,474.058859 549.894079,472.274228 C560.004254,471.35573 569.052679,468.774089 578.777904,466.072007 C585.728977,464.14049 592.909529,463.213417 600.081697,462.383695 L602.471782,462.109482 L602.471782,462.109482 L604.859289,461.835015 C605.654477,461.742654 606.448909,461.649006 607.242259,461.552827 C611.475667,461.039641 623.557667,461.808373 624.960434,456.274342 C627.049417,448.035086 615.178721,447.084121 610.11788,447.82248 C602.938766,448.868752 597.019109,450.660714 591.525199,444.771641 C585.915176,438.756891 580.464154,432.599704 574.752663,426.661408 C574.090768,425.973255 573.427603,425.278367 572.762256,424.579069 L571.762486,423.527105 C562.080027,413.331761 551.843249,402.453456 538.27653,397.976398 C520.013357,391.950127 498.834814,397.670581 480.612439,401.097408 C479.072638,401.386971 477.533037,401.675548 475.99379,401.964139 L471.377263,402.830948 C455.224196,405.871908 439.12693,409.024395 423.262166,413.444247 C415.440771,415.62267 405.354654,420.422531 397.237224,419.651704 C389.236953,418.890304 380.175976,417.581156 372.445588,415.273913 C368.947561,414.230783 366.07194,412.296386 362.942127,410.492903 C358.871905,408.146909 354.412549,406.644007 350.093365,404.820626 C341.358759,401.134064 332.843825,397.738657 323.420911,396.289168 C315.485496,395.069042 307.058431,394.345345 299.367794,397.127023 C291.823605,399.856335 285.138231,405.413408 279.874454,411.34961 C274.156687,417.798998 269.430585,425.026544 264.744234,432.232096 C262.494157,435.690342 259.748248,438.708714 257.417625,442.089458 C255.461492,444.928739 254.319194,448.083263 252.24904,450.842947 C247.616037,457.016891 244.470533,464.91472 241.662907,472.097231 C238.543554,480.074657 235.077955,489.562316 235.82275,498.240398 C236.10414,501.5206 236.398083,505.864878 237.666955,508.906291 C239.281027,512.775086 241.58236,512.676638 244.899418,514.135553 C246.704082,514.929194 248.097551,516.166346 249.39313,517.443632 L249.799372,517.847849 C252.423544,520.477816 254.77423,523.097982 259.561003,522.219805 C266.469188,520.953597 272.459977,515.261421 277.499897,510.723389 C284.069157,504.811275 290.355982,498.576588 296.64176,492.364941 C303.09177,485.989913 309.44868,478.919465 314.579607,471.419616 C315.118259,470.632312 315.625221,469.817824 316.124359,468.995655 L316.870179,467.759079 C317.989053,465.902887 319.128715,464.057176 320.560982,462.444096 C323.600834,459.019364 327.01413,458.607768 331.142931,457.244159 C367.241436,445.317294 403.514634,433.812499 440.739747,425.937711 C449.658459,424.050443 458.64935,421.616474 467.410108,419.105004 C476.702264,416.441673 481.514143,419.256865 489.182813,424.325887 C505.204277,434.919515 524.141113,442.380613 541.981676,449.291868 C547.599022,451.468197 556.541794,451.606443 560.933156,455.898354 C534.90403,459.865597 510.098795,467.50055 484.99334,475.103036 C472.615305,478.850342 460.095006,482.100171 447.669898,485.684096 C435.240606,489.270115 423.284133,493.91602 411.025349,497.95867 C398.825144,501.981421 385.931401,503.622569 373.612991,507.333219 C361.038297,511.12137 348.515905,513.727099 335.608563,516.029105 C322.575694,518.3552 309.632787,521.03843 296.554937,523.120499 C290.567286,524.073559 284.580681,525.062228 278.658932,526.373471 C276.391664,526.875911 274.154508,527.652253 271.922143,528.453877 L270.434332,528.989311 C267.459018,530.056754 264.482219,531.070923 261.443913,531.442493 C235.438846,534.624247 209.944257,541.713547 184.040658,545.720588 C164.698997,548.712777 131.050366,552.886342 118.508099,533.481622 C105.895747,513.966935 121.369075,491.203465 135.174983,477.250039 C143.754772,468.578241 153.396313,460.94643 163.511719,454.156663 C174.3374,446.890367 184.753025,439.043856 195.580799,431.788033 C220.084768,415.368171 246.655754,401.976108 272.981961,388.781988 C285.618373,382.448853 297.826947,375.656992 310.119205,368.706985 C314.718138,366.106316 317.769098,368.629504 321.058336,371.649863 L321.462413,372.021873 C321.800338,372.333428 322.141503,372.648193 322.487806,372.961253 L322.905957,373.335792 C323.396962,373.771064 323.899524,374.199141 324.418853,374.606531 C328.211869,377.58301 335.177587,384.91843 340.484252,381.527212 C340.688234,382.748386 340.893262,383.969559 341.097243,385.19178 L341.097243,385.19178 L345.761628,383.065723 L345.856211,383.319463 C346.800915,385.910508 346.774378,387.550244 349.60067,388.943275 C351.391526,389.827212 355.213831,390.890241 356.922048,389.333925 C357.270387,390.415805 357.618725,391.496638 357.967063,392.577471 C359.459791,392.463313 359.748504,388.192348 360.029894,387.192159 C362.588559,390.928992 366.127382,394.052096 370.624396,395.107793 C370.646363,394.863768 369.8932,391.794077 369.925628,391.775225 C371.34827,390.903856 373.14331,394.634405 373.89752,395.433509 C376.398651,398.080083 377.890333,397.669534 380.652979,395.533004 C380.853823,395.750846 381.789001,398.191099 381.924989,398.147111 C382.523336,397.957547 383.658311,395.794834 383.782793,395.597938 C383.610193,398.442455 389.100965,399.015339 391.040361,398.404752 C390.6052,397.571086 390.170039,396.738468 389.735923,395.904802 C393.253847,395.435146 395.658856,397.156778 398.071957,398.863015 L398.651831,399.271087 C400.685951,400.690394 402.78906,401.974276 405.625584,401.814821 C410.418634,401.544613 406.574361,400.497294 409.286796,398.44455 C411.656123,396.650493 412.078732,400.573749 412.310957,400.449118 C412.762856,399.97573 413.113286,399.432171 413.362248,398.817395 C414.238847,402.177193 421.221302,405.191376 420.49952,399.666771 C423.246475,400.765408 425.196332,402.58879 428.236184,402.974203 C431.93087,403.442354 435.877657,402.657913 439.562928,402.352096 C447.505667,401.691238 454.992322,400.071036 462.151561,396.432651 C466.396475,394.275174 470.914411,392.317736 474.904086,389.715149 C478.243111,387.536727 484.578054,380.923957 489.023812,383.771616 C487.885698,380.412865 493.245713,383.525496 493.41622,379.199023 L493.41622,379.199023 L495.998944,381.145988 C496.515698,380.013837 496.371342,378.230253 497.062788,377.243679 C498.012611,375.888449 498.476016,376.686506 499.285667,375.924058 C500.191555,375.07154 500.982377,372.787339 502.068188,372.136954 C503.187473,371.467717 504.504463,372.265774 505.708479,371.68137 C506.274209,371.406405 507.416108,370.388505 508.685629,369.331057 L508.949963,369.111941 L508.949963,369.111941 L509.35136,368.784179 C512.041418,366.6114 514.94673,364.788454 514.094747,369.54484 C517.486075,368.39279 514.870923,367.339187 515.294578,365.079074 C515.891383,361.901105 517.089359,362.55834 518.46374,363.369507 L518.671167,363.491877 C519.192777,363.798386 519.736207,364.100657 520.279057,364.204562 C523.656787,364.851805 523.588793,362.059654 525.472748,360.02995 C525.872684,359.598845 526.354482,359.223136 526.844427,358.85988 L527.285585,358.535153 C528.750176,357.456207 530.089038,356.373396 529.31179,354.127263 C530.5838,354.813256 530.85473,356.155919 531.002224,357.459831 C533.312972,355.333774 534.695864,352.108033 536.903052,350.145357 Z M473.92889,85.1267855 C482.280614,86.108111 474.444244,105.938562 469.818349,109.135117 C462.797466,113.986641 455.466676,118.863727 447.283928,121.287098 C425.024136,127.879471 411.693431,120.858275 397.770723,106.935567 C391.137696,100.30254 392.122203,106.996751 393.436691,96.9803068 L394.631945,95.093362 C408.409206,89.5374391 407.701627,87.8913046 422.187845,89.0378817 C424.732901,89.2393216 427.255719,89.7944604 429.773075,90.3758203 L431.145736,90.6935578 C434.80526,91.5372948 438.459677,92.3105358 442.160604,92.0055055 C466.546527,89.9956188 453.972957,82.781968 473.92889,85.1267855 Z M436.477141,96.7705514 C433.293367,91.3797234 422.704784,99.3241544 428.920241,100.668627 C431.715675,101.272694 439.001853,101.049777 436.477141,96.7705514 Z M348.953159,420.771288 C332.277907,416.972663 309.473785,406.991717 294.342519,419.910392 C290.745116,422.982178 288.444829,427.225913 285.160199,430.47679 C282.141268,433.463742 281.076378,437.196386 279.172548,440.945786 C274.107522,450.925686 269.389789,461.004033 264.708668,471.176638 C261.415669,478.332966 257.623699,486.077887 255.569236,493.741118 C253.564984,501.217925 259.787999,498.002657 263.895879,495.558215 C269.380374,492.293723 274.143088,488.033231 279.482182,484.570796 C287.919707,479.101698 294.331012,472.253282 301.310328,465.015263 C308.858702,457.184462 315.51897,449.324335 323.91256,442.25284 C332.284183,435.200197 339.835694,426.870872 348.953159,420.771288 Z M535.242954,411.48995 C521.191222,406.684853 506.754539,411.091969 492.736281,413.659995 C492.33041,416.795667 512.334227,423.383301 514.891845,424.434809 C529.709293,430.521824 543.872954,438.085559 559.085813,443.218468 C562.917533,444.510859 566.32246,446.145723 569.399971,448.760878 C571.241037,450.326619 572.592548,451.750973 574.939908,452.361559 C576.756915,452.832853 584.450691,453.461244 585.440264,451.159238 C586.869183,447.83819 570.901068,437.411086 568.31939,435.121648 C558.423657,426.346165 548.025814,415.861458 535.242954,411.48995 Z M377.554548,425.151174 C372.948743,423.646178 368.739395,421.939048 364.102208,424.283995 C359.979683,426.368159 356.838363,430.098708 353.181336,432.844777 C357.198208,432.68349 360.67113,430.511351 364.406612,429.290178 C368.789606,427.856398 373.418424,427.319124 377.554548,425.151174 Z M527.095188,331.051692 C525.707065,328.721408 525.257259,329.121484 522.456955,329.335137 C519.564597,329.557168 516.946308,329.596966 514.037213,329.504802 C511.471227,329.423111 510.504667,330.741686 508.606067,331.038077 C507.936588,331.141761 506.256614,330.110152 505.465793,329.952007 C503.852767,329.628386 501.802488,330.024272 500.144482,330.016941 C496.54185,330.000184 492.949677,330.082922 489.351229,330.274581 C485.641898,330.472525 480.881276,329.581256 477.311071,330.351036 C475.022291,330.844323 475.52963,332.233067 474.42499,332.544121 C473.583957,332.781862 473.628938,332.248777 472.86636,332.298001 C473.558852,332.254014 471.339111,330.878884 471.428027,330.902973 C469.71981,330.437963 466.68728,331.489471 464.697673,331.237067 C462.019757,330.895641 461.237304,331.651805 458.876345,332.012083 C454.591681,332.666657 449.715993,331.732449 445.352874,331.935629 C440.257513,332.172323 435.21027,332.664562 430.110725,332.795477 C427.215229,332.869837 422.021538,332.518985 419.996365,335.094342 C418.540248,331.695793 410.761742,334.726733 407.84114,334.730922 C401.437157,334.738253 395.095938,334.606291 388.688817,334.924676 C385.647919,335.07549 382.59133,335.23573 379.565076,335.57925 C377.202025,335.846316 374.35674,337.302089 372.051223,337.290569 C370.69762,337.284285 370.000944,336.397206 368.324109,336.296663 C367.198548,336.229635 365.765445,336.627616 364.608502,336.727111 C361.134534,337.023503 357.646968,337.099957 354.187646,337.573345 C351.445921,337.948285 349.095423,339.330745 346.660194,339.909913 C345.060767,340.291137 341.877605,339.587339 339.477942,339.941332 C338.018687,340.156033 333.45054,340.998077 335.167126,343.433092 C336.67973,345.579048 333.979847,346.865156 334.703721,348.751376 C335.525925,350.89419 339.028136,350.412424 340.703925,350.254279 C344.000062,349.942178 347.177994,349.167162 350.427058,348.639313 C353.519213,348.138695 356.102983,348.751376 359.166894,349.026821 C366.137842,349.654165 373.049165,347.258947 380.078692,347.518682 C381.724145,347.579427 384.890571,348.092613 386.140613,347.601421 C387.832093,346.936373 387.698197,346.389673 388.75158,344.374632 C391.085342,349.404903 392.650248,346.212676 396.401422,345.992739 C398.779117,345.852398 398.030138,347.099755 399.71325,347.475742 C401.074174,347.780512 403.364001,346.763566 404.7584,346.14879 C405.376622,345.876487 407.531507,344.10966 408.163327,344.252096 C408.714601,344.375679 408.658114,345.244954 409.032603,345.373774 C409.44789,345.516209 409.464627,346.617988 410.067157,346.760424 C410.904006,346.958367 411.276403,345.811553 411.859059,345.712058 C414.49304,345.2659 415.700194,346.479742 417.152126,343.765092 C417.50151,345.977029 417.864493,346.180209 419.901173,346.589711 C420.685719,346.747856 421.356243,345.643982 421.690983,345.716247 C423.54774,346.11737 423.728709,346.870392 425.692165,346.576096 C427.222551,346.345686 434.074248,341.778329 434.615062,345.22296 C435.876611,344.606089 437.137114,343.989219 438.398663,343.373395 C437.59215,347.645408 445.822555,345.338165 448.303811,344.806127 C449.268279,345.192588 450.05387,344.998834 450.659539,344.223818 L450.659539,344.223818 L451.235919,343.232007 C452.912754,343.064436 452.115656,343.426809 453.19519,343.53573 C453.282013,343.544108 453.56968,344.546392 454.337488,344.603995 C455.378319,344.681496 455.562425,344.060436 456.295714,343.693875 C458.273814,342.704159 457.617934,342.011881 460.769715,342.372159 C461.985237,342.510405 463.210174,342.995313 464.441388,342.998455 C464.919548,342.999567 465.405695,342.881775 465.885515,342.729494 C464.583651,341.838073 465.122935,339.109671 465.054274,337.916218 C465.80786,337.932475 467.792235,338.387667 466.657715,339.594739 C466.022556,340.55374 465.858693,341.567772 466.167739,342.636044 C466.945436,342.371054 467.697869,342.058814 468.364115,342.064247 L468.269,342.068422 C468.281097,342.122719 471.700465,342.455152 471.410518,342.695051 L471.402,342.699422 L471.455707,342.681647 C471.928823,342.518845 472.917983,342.159318 472.713327,342.093634 L472.66447,342.085193 C472.79732,342.095667 473.485628,341.429572 474.351766,341.540588 C475.355984,341.669408 475.63842,343.372348 476.83093,343.395389 C475.839264,340.240865 479.796511,340.525736 481.260996,338.723301 C480.987974,344.23848 484.002721,341.095477 485.12619,338.066632 C485.800899,339.751768 485.263224,342.091477 486.883572,343.125181 C488.660829,344.259427 492.33041,342.284184 493.321029,340.872398 C494.396379,345.124512 497.100446,339.328651 497.393343,342.830884 C498.483338,341.696638 497.727036,339.24696 499.623544,339.276285 C501.037818,339.297231 501.213556,341.595048 502.250202,342.216108 C504.337093,343.463465 504.520154,342.043301 506.253476,341.694544 C508.223208,341.299704 509.793345,342.227629 511.869776,342.186783 C513.863567,342.148033 515.915938,341.639036 517.937973,341.577244 C519.860633,341.519641 521.247709,340.585433 523.014505,340.433572 C524.448654,340.311036 526.85041,342.011881 528.048149,341.257812 C529.986499,340.038733 527.963418,337.836222 526.317965,337.944096 C528.850477,336.373118 528.470757,333.363124 527.095188,331.051692 Z M108.578892,135.02402 C95.1945471,133.197496 84.0843371,143.059048 76.8686111,153.418077 C68.8118521,164.986758 63.8828141,179.165357 61.6735341,193.008815 C60.5061311,200.324335 58.9098421,209.49361 60.1619771,216.863591 C60.6347961,219.647364 66.2008851,226.867578 61.1379511,227.658304 C55.6670541,228.512916 52.4859841,218.262809 51.9786451,214.770001 C50.9922101,207.982329 51.6041551,200.765256 51.6386751,193.93255 C51.7254981,176.896865 53.9316401,160.216222 54.7622121,143.243376 C50.6564241,142.138455 45.0620921,165.469572 44.3685541,168.655515 C42.4657701,177.393294 41.4992101,186.322733 40.1309621,195.153723 C38.7616691,203.987856 36.8275031,212.815704 35.7866731,221.69173 C35.2270301,226.471692 33.7803281,235.123591 27.5960181,229.138165 C23.4190981,225.094468 21.2119101,217.819793 20.3070681,212.360121 C17.3017357,194.234178 22.0675881,175.643225 20.5570761,157.398935 C11.7722593,160.94725 11.5117903,174.79385 10.2680242,182.5859 C8.4614775,193.913698 7.5440824,205.368222 7.2124812,216.830077 C6.6612072,235.888133 7.9625066,254.623616 14.8298945,272.587225 C21.2213251,289.308714 32.0616511,303.914619 45.3863711,315.791212 C52.2025021,321.866708 60.1169961,325.663238 68.2333801,329.674468 C71.9918761,331.532411 76.9878621,334.713118 81.2390521,334.984373 C85.1806081,335.23573 88.3355271,333.468903 92.3398471,334.137092 C95.9330651,334.737206 98.3170371,332.574493 100.294092,336.00132 C101.640372,338.335793 101.676984,339.542304 104.696961,337.307326 C104.874791,337.175364 103.969949,336.287238 104.864331,335.812802 C105.375854,335.542594 108.58726,335.716449 108.843545,335.756247 C109.611354,335.876689 109.937725,335.577156 110.71181,335.830607 C111.561211,336.110241 111.2453,337.574392 111.720212,337.705307 C112.835313,338.011124 114.035144,336.629711 115.374102,336.910392 C116.650296,337.178506 117.34488,338.988272 118.850161,339.303515 C118.387802,338.498127 118.002852,337.65713 117.69531,336.780525 C119.872162,337.171174 122.199647,337.569156 124.41625,337.530405 C126.753149,337.491654 128.568064,336.445383 130.826509,336.191932 C132.700003,335.980373 134.476214,336.66113 136.378999,336.46214 C139.046453,336.183553 141.813283,334.995894 144.460863,334.463856 C149.653508,333.420727 154.302201,332.186985 159.276219,330.477761 C163.333888,329.081686 164.212579,332.898115 167.808936,332.194316 C166.395708,328.218695 168.698087,327.979906 172.060126,327.323238 C175.510034,326.650859 178.677505,325.356373 182.119045,324.626392 C182.992505,324.78349 183.87015,324.809673 184.751979,324.708083 C185.619163,324.149862 186.406847,323.495288 187.116076,322.745408 C188.73747,322.01438 190.773104,322.673143 192.410189,321.986102 C193.800403,321.402745 194.5316,319.528045 196.269107,319.816058 C197.813092,320.071603 198.108081,322.000764 199.268162,322.789395 C199.268162,318.141395 202.090434,318.053421 205.735955,317.055326 C207.684766,316.521193 210.164976,314.350102 212.042654,314.194051 C213.409856,314.079894 214.079334,315.512626 214.734168,315.335629 C214.453824,311.048954 222.551379,308.732285 225.479303,307.543578 C231.279709,305.188159 237.233886,302.704966 242.782191,299.812272 C246.111802,298.075818 249.200819,296.245105 252.723951,294.909774 C255.096417,294.011174 256.527428,292.615099 258.523311,291.640045 C259.729419,291.049357 261.383241,291.523793 262.540184,290.808474 C263.176189,290.41573 263.380171,289.352701 263.979563,288.885597 C265.704517,287.541887 267.751658,286.963768 269.707791,285.976146 C274.078233,283.768398 272.478806,278.395654 272.036322,274.548853 C271.317679,268.296361 271.250731,261.91819 270.98817,255.631137 C270.447356,242.678947 268.978687,229.816827 267.813376,216.911768 C238.971393,237.769118 204.259963,249.113673 169.086176,253.71978 C151.972624,255.959995 132.640378,258.912386 115.497537,255.703402 C112.031938,255.054064 103.377879,253.931339 102.364246,249.9819 C101.439528,246.378077 106.945991,242.022279 109.10506,240.084739 C116.397149,233.540045 123.445505,228.585181 129.505334,220.661168 C136.458499,211.569395 142.536111,200.876272 144.160643,189.376714 C145.277836,181.471553 143.719206,169.3059 132.683267,171.459187 C124.068957,173.140133 126.50314,184.960171 127.008388,191.18648 C128.267845,206.740209 116.967252,227.056096 101.963605,232.704285 C79.3781101,241.20537 73.2461031,203.273585 75.5401141,188.781837 C77.2420541,178.034253 82.4566671,166.574493 91.6065591,160.164903 C96.9393761,156.42807 103.77329,154.787969 110.150075,156.151578 C115.358411,157.264878 122.936074,161.003805 127.621379,156.332764 C132.767997,151.20195 123.886943,146.545572 121.632682,142.447414 C118.759154,137.225484 114.297705,135.80532 108.578892,135.02402 Z M504.893418,335.916218 C506.436088,337.23199 506.232478,337.182599 505.102531,338.916218 C503.739625,337.508579 503.606636,338.058793 504.893418,335.916218 Z M171.905309,328.742354 C172.289213,327.297055 170.796485,331.665421 172.177285,330.943818 C174.059148,330.215932 173.96814,329.481761 171.905309,328.742354 Z M755.720102,129.051162 C764.623123,145.820827 778.703099,158.691326 784.097634,177.363969 C788.495273,192.583603 792.873036,212.50884 784.189687,227.029913 C780.630989,232.981824 774.60045,238.864613 767.123208,238.124159 C760.065437,237.42455 755.283894,230.849484 751.978343,225.202342 C743.344159,210.454001 741.08676,192.524954 741.94976,175.698733 C742.16734,171.45395 748.825516,150.645824 743.88811,150.249938 C739.392142,149.88966 734.785291,158.572979 732.951547,161.765206 C729.069616,168.517269 727.297589,175.87573 728.057029,183.657307 C728.931536,192.626544 732.579149,201.074215 735.506027,209.503036 C737.014446,213.844171 738.249843,218.230342 739.149456,222.740096 C739.657841,225.288222 739.407833,230.182342 741.003075,232.274884 C742.834727,234.677433 746.218733,233.161963 747.37986,236.381421 C748.295163,238.916979 746.335892,242.117585 744.702991,243.863465 C740.127522,248.753395 732.085408,251.698455 725.678287,252.9699 C717.191597,254.653988 708.057396,253.218115 699.590582,252.03255 C690.264951,250.725496 681.041835,248.637143 672.07605,245.748638 C655.552476,240.425118 639.590637,232.1712 628.090247,218.843023 C624.75959,234.355906 619.482214,249.343036 615.051102,264.553244 C613.74771,269.0232 609.188978,277.974632 612.484069,282.179616 C615.574132,286.121723 623.104722,288.861509 627.500269,290.963477 C633.062173,293.622619 638.890823,295.42296 644.39101,298.321938 C649.801235,301.174834 655.088025,304.14084 660.840313,306.270039 C673.056208,310.793408 686.049327,314.842342 698.65645,318.122544 C703.787377,319.456827 709.169359,319.77626 714.218693,321.427881 C716.117293,322.049988 717.822372,323.457585 719.64461,324.019995 C721.982555,324.741597 720.182285,323.992764 722.266037,323.952966 C723.429257,323.930973 724.452304,323.759212 725.675149,323.893269 C738.522865,325.299818 750.556747,322.510809 762.926413,318.816916 C813.804709,303.622417 839.058704,251.642947 851.615616,203.972146 C853.792468,195.703566 854.707771,187.363768 854.897108,178.835452 C855.051925,171.874973 855.468257,164.482998 853.015245,157.834619 C852.471293,156.363137 851.173132,152.194809 849.414704,151.585269 C846.99412,150.747414 845.823578,153.575174 844.734629,155.356663 C840.808763,161.776727 838.898657,169.112146 837.048176,176.340739 C835.287656,183.225812 834.643282,191.210569 831.485225,197.612827 C828.299971,204.068499 825.730846,198.77954 825.260119,193.992247 C824.539383,186.666253 826.009098,179.036537 825.949473,171.665509 C825.909722,166.691793 825.614733,161.724361 825.405521,156.755881 C825.319744,154.739793 825.694234,146.0659 823.361519,144.900234 C820.335265,143.385812 819.489002,148.994203 819.064302,151.015528 C816.549572,162.972764 815.616486,175.304941 813.515996,187.345963 C812.329763,194.151439 810.85168,200.924449 809.485525,207.696411 C808.88927,210.648802 807.499056,220.327074 803.446617,220.688398 C799.782178,221.015215 799.658936,213.016516 799.651962,210.376385 L799.651509,210.118859 C799.642094,203.117534 800.647359,196.15496 799.191242,189.221711 C796.308299,175.498695 790.461867,161.3379 782.951151,149.544045 C776.12979,138.831023 769.012394,130.38754 755.720102,129.051162 Z M520.796857,289.14219 C518.633603,287.595301 516.196282,288.689749 513.934699,289.215503 C510.467008,290.021938 507.659382,289.092966 504.171816,288.918064 C496.441428,288.531603 488.23299,289.197698 480.503648,289.692033 C466.978085,290.558165 453.597923,290.525698 439.615231,290.475427 C436.402779,290.462859 419.519361,288.340992 418.942982,292.69679 C415.027577,289.511894 409.597476,290.926821 405.09837,291.617004 C400.28126,292.356411 395.786338,291.436865 390.970275,291.559402 C385.11129,291.708121 379.250212,292.029648 373.404825,292.479995 C370.621258,292.694695 342.572189,294.50132 343.231207,297.782569 C344.355722,303.372108 338.915161,307.947843 348.046224,306.621938 C351.185452,306.165307 354.23158,306.33602 357.291308,305.603944 C360.527819,304.828928 359.795577,304.460272 362.346919,305.732764 C362.180595,305.650026 365.835531,304.289559 365.602259,304.281181 C366.870085,304.327263 368.087699,305.692966 369.437117,305.51178 C369.929812,305.572525 370.423553,305.633269 370.917293,305.694014 L370.917293,305.694014 L371.274,304.399528 C371.681963,304.325168 372.830538,305.31279 373.105652,305.112752 C373.001046,305.189206 374.92789,303.164739 374.280378,303.330215 C376.327519,302.806556 376.272077,303.729244 378.295159,304.54301 C380.25966,305.331641 382.740916,304.997547 384.833037,304.827881 C391.039315,304.323074 396.792648,302.93014 403.07738,303.111326 C404.587892,303.154266 406.338997,303.448562 407.838002,303.138556 C408.275256,303.047439 408.800378,302.214821 409.262737,302.282897 C411.777467,302.653648 410.546253,301.967654 410.349594,303.918809 C410.353778,303.875868 413.672928,302.472462 413.959549,301.370682 C418.010942,304.783894 422.742274,303.331263 427.32925,302.468272 C430.242528,301.920525 433.798088,304.326215 435.152737,301.64508 C435.878703,302.665168 436.760532,303.526064 437.798224,304.225673 C437.943627,303.47684 438.764784,298.764954 438.240708,299.378682 L438.242,299.376422 L438.382858,299.217426 C440.57962,296.809598 441.367805,299.918493 442.665675,300.904352 L442.749229,300.964323 C444.314136,302.023162 446.492034,301.69954 448.244185,301.533017 C452.835345,301.095238 454.043545,300.17255 457.365834,303.537585 C458.186991,302.650506 458.725713,300.562152 459.528041,299.904436 C460.913025,298.768096 461.259271,300.313938 460.706951,301.947755 C462.53965,301.126657 463.995766,300.485698 464.842029,302.837976 C466.66322,301.455515 468.48232,300.072007 470.302465,298.688499 C470.871522,300.512928 471.54937,301.791704 473.125783,299.786089 C472.058801,302.893484 475.033797,300.679452 476.074628,300.728676 C476.463762,300.74648 476.817331,300.127515 477.161485,300.191402 C477.478441,300.250051 477.651041,301.219868 477.982642,301.276424 C478.501488,301.363351 478.722207,302.46932 479.396916,302.52378 C480.123928,302.58243 479.50466,301.166455 479.654247,301.052297 C480.661603,300.287755 480.936717,297.956424 482.21605,296.970897 C483.87824,301.006215 484.286203,301.913193 488.071897,298.636133 C489.949576,301.670215 491.558417,302.122657 494.701829,300.67631 C495.621316,300.253193 496.368203,298.991174 497.546068,299.127326 C499.114113,299.310607 497.30652,301.530922 496.062754,301.31308 C499.167462,304.214152 504.109052,301.697446 507.712731,301.428285 C507.493058,301.445042 510.139591,300.854354 509.623883,301.060676 C512.804954,299.792373 515.123024,300.513976 518.242377,301.010405 C520.271734,301.334026 521.39625,301.541395 522.666167,299.670884 C524.40995,297.103906 523.328323,290.954051 520.796857,289.14219 Z M327.385481,260.731578 C334.779037,252.496512 321.590305,252.226304 322.984704,257.673408 C319.855937,253.902014 316.482391,254.606859 311.962363,255.022644 C307.196511,255.461471 302.437982,255.740058 297.679452,256.220777 C295.77353,256.412436 277.622286,256.012361 278.771907,260.857256 C278.63278,260.266569 282.269933,262.397862 281.823265,262.217723 C285.010612,263.506973 286.807744,263.427376 288.447967,260.052916 C289.313059,261.110708 289.391514,262.099376 289.532732,263.407477 C290.280665,262.563339 291.159356,261.889913 292.168805,261.3872 C292.231568,262.270089 292.295378,263.151932 292.359188,264.034821 C294.420973,261.767376 298.779908,263.66407 301.263256,263.637887 C304.328213,263.605421 305.875337,262.506783 308.371237,260.780802 C308.905774,261.588285 308.071018,263.001118 308.003024,263.796033 C310.376536,262.890102 312.896496,263.1446 315.32231,262.546581 C316.331759,262.388436 317.274259,262.056436 318.150858,261.552676 C318.915528,260.786039 319.456342,260.932663 319.773298,261.993597 C322.731557,262.428234 324.724303,263.69549 327.385481,260.731578 Z M519.765441,243.981812 C515.861543,240.484815 504.541075,243.172234 499.830664,243.414165 C492.915157,243.770253 486.037309,244.045698 479.12494,244.554695 C472.392494,245.050077 465.616114,244.727503 458.837641,245.180992 C455.955744,245.373698 452.066491,244.836424 449.329996,245.533938 C446.697062,246.204222 446.234703,247.584588 443.217864,247.163566 C437.526248,246.367603 430.629571,246.229357 424.935863,247.524891 C424.036251,247.730165 421.937853,249.262392 421.22444,249.20479 C420.834259,249.174417 419.06014,247.613913 418.203417,247.43901 C415.611279,246.909067 413.066213,248.585824 410.393528,247.846417 C408.409151,247.297622 408.504343,249.516891 407.582763,250.582014 C405.182054,246.934203 399.149423,247.588777 395.468336,247.952197 C390.579048,248.43501 386.211745,249.578682 381.419742,249.181749 C375.276228,248.673799 368.400471,249.791288 362.265326,250.324373 C358.563317,250.6459 352.503488,250.000752 349.139357,251.74349 C344.223919,254.289521 346.929031,260.08643 351.342361,261.129559 C354.273423,261.821837 356.71702,260.357686 359.546614,260.050821 C361.509024,259.837168 363.23084,260.126228 364.806207,260.308462 C367.217377,260.587048 370.769799,259.955515 373.333693,259.345976 C376.234419,258.65684 378.432193,258.899818 381.400913,258.839074 C384.751445,258.770998 392.683722,259.712537 393.882508,255.776714 C396.57193,258.884108 401.808509,254.299995 403.535555,257.517357 C405.314904,255.571439 406.24276,257.041875 408.328605,257.444045 C408.197847,256.395679 408.06709,255.347313 407.935286,254.298947 C410.607971,256.811465 411.989817,256.103477 414.144702,258.675692 C415.798523,255.880398 418.788165,258.624373 420.208715,255.311704 C421.615667,256.44595 422.752734,257.493269 424.633551,257.68807 C424.287305,255.749484 424.302996,254.45395 426.209965,254.006745 C428.20271,253.540689 428.533265,255.535831 429.664057,255.882493 C430.92456,256.267906 432.262471,255.728537 433.324223,255.611238 C433.54285,255.587149 433.795996,256.320272 435.392285,256.16108 C436.169508,256.082531 436.973928,255.453092 437.633993,255.062443 C439.38196,254.025597 439.611047,252.715402 441.628898,253.444335 C442.576629,253.785761 442.910322,255.639515 444.72733,255.903439 C449.603018,256.613521 449.374977,252.736348 452.102057,250.410253 C451.934687,252.013698 452.357296,253.883162 453.629305,254.982846 C457.383617,251.71207 456.298852,254.28219 460.121157,254.545067 C461.501957,254.639326 463.45286,252.762531 464.583652,253.099768 C466.740629,253.743868 464.487414,255.034165 465.7657,255.788234 C467.623504,256.884777 472.887281,254.341887 474.601774,253.974279 C478.065281,253.230682 482.346807,252.547831 486.336482,254.680171 C486.1325,253.491465 485.928519,252.301711 485.724537,251.113004 C488.733007,255.236297 492.472674,254.349219 496.89228,254.029786 C498.920591,253.883162 505.998237,254.828891 507.123799,252.61067 C508.940806,254.841458 508.231577,252.435768 510.267211,252.240966 C512.054928,252.069206 513.208733,253.866405 515.616765,253.013887 C518.837585,251.871263 522.985216,246.86508 519.765441,243.981812 Z M602.418874,247.399212 C604.60514,241.257736 602.583105,239.917168 596.472019,240.462821 C590.707179,240.978102 584.727897,241.602304 579.081262,241.887174 C573.05386,242.190897 565.998182,241.465105 559.548172,241.69761 C552.180767,241.963629 544.822777,242.470531 537.462694,242.895742 C539.042246,245.664853 541.670996,247.509181 543.32168,250.219641 C544.405399,246.563452 548.394028,250.3139 550.781138,250.650089 C554.632733,251.193648 558.86614,250.162039 562.779453,250.414443 C565.51804,250.590392 566.197979,249.511654 568.63007,249.115768 C569.237831,249.215263 569.752493,249.477092 570.174056,249.901256 C570.614447,250.484613 571.142708,250.451099 571.759883,249.799667 C572.417856,249.33361 573.137545,248.999515 573.917907,248.797383 C574.530898,248.692651 575.008948,248.883263 575.352056,249.370266 C576.73704,249.339894 575.60834,251.244966 578.077043,249.590203 C577.096885,248.922014 575.818599,249.968285 575.891823,248.127099 C577.475559,248.402544 577.479743,247.158329 578.684805,246.894405 C579.190052,246.702745 579.60743,246.375982 579.937985,245.916209 C580.377331,246.209458 580.754959,246.565547 581.069823,246.985521 C583.694389,247.31019 586.95496,247.964764 589.805475,248.377408 C592.011617,248.697887 601.340385,250.429105 602.418874,247.399212 Z M755.540179,153.389799 C754.925096,155.75255 754.361269,158.129963 753.68656,160.477004 C749.405034,175.390821 749.405034,191.055566 754.640567,205.71279 C757.011987,212.35279 762.238105,225.833875 771.610808,222.072954 C783.117475,217.456373 779.361071,201.23655 776.94781,192.285118 C773.232202,178.509736 764.975646,164.131099 755.540179,153.389799 Z M113.719234,169.00113 C106.645772,167.554783 100.696825,167.250014 94.5533111,171.648752 C84.2715821,179.011402 81.0141491,193.601597 82.6575101,205.542077 C84.2339231,216.990316 93.8346681,227.406947 105.161412,218.894342 C110.69298,214.736487 115.828092,207.541408 118.402447,201.170569 C121.604439,193.244462 119.77174,184.490973 119.271723,176.255906 C119.049959,176.248575 119.249756,171.247629 119.026945,170.861168 C118.077122,169.210594 115.380378,169.341509 113.719234,169.00113 Z M439.747035,206.088777 C438.655994,199.640436 426.030042,206.825042 423.534142,206.449055 C422.146019,206.239591 421.558133,204.209887 419.176253,204.180562 C415.79957,204.137622 412.165555,204.929395 408.77318,205.122102 C404.920539,205.340992 401.09405,205.332613 397.250823,205.404878 C394.913923,205.448865 392.812388,207.069067 390.845794,207.136096 C389.688851,207.175894 389.209755,206.034316 388.094654,205.926443 C387.237931,205.843704 386.464892,206.397736 385.648965,206.44696 C383.718983,206.563212 382.045286,206.3726 380.100659,206.273105 C373.871368,205.953673 367.149383,206.95072 360.903355,207.278531 C354.823651,207.596916 348.704196,207.675465 342.634953,208.117433 C337.941279,208.457812 334.193243,210.22778 329.564425,209.887402 C323.574682,209.447528 317.38305,209.982708 311.449794,210.886544 C306.483098,211.642708 301.619962,211.202834 296.68674,211.654228 C294.450263,211.859503 293.232648,213.76248 291.487819,214.027452 C290.072499,214.2432 289.063051,213.029357 287.446887,212.779048 C282.530402,212.017648 277.469561,215.25072 272.441148,214.638039 C274.016515,218.851402 277.218507,220.491503 281.937286,220.536537 C284.32335,220.559578 286.379905,219.30908 288.764923,219.158266 C291.183416,219.005357 291.644728,220.00031 293.289136,217.525496 C293.389557,219.255667 294.937727,220.999452 296.872939,220.313458 C297.494299,220.093521 297.803933,218.855591 297.183619,219.03154 C297.298686,218.999074 297.374002,217.544348 298.358345,218.095238 C299.44311,218.702682 298.139719,220.178354 299.212977,220.912525 C301.156557,219.969938 303.339686,220.07467 305.442268,220.12913 C302.975174,220.06468 308.509515,219.490204 309.151179,219.783377 L309.172,219.794422 L309.381022,219.663748 C310.33516,219.044586 311.300304,218.25356 312.352005,218.231762 L312.596276,218.240815 C313.667442,218.344499 314.192565,219.864159 315.220842,219.982506 C316.80667,220.163692 316.590136,218.928903 318.181194,218.413622 C318.79837,218.213585 319.998201,219.025256 320.617469,219.120562 C321.813116,218.22301 322.521299,218.26595 322.73888,219.25043 C322.883236,219.604424 323.039099,219.952133 323.207515,220.294607 C322.817334,220.191969 324.111311,220.730291 324.017166,220.690493 C324.658401,220.962796 326.666837,220.729244 327.447199,220.583667 C329.91381,220.119704 331.802995,219.56672 334.338646,219.397055 C336.67973,219.239957 338.873319,218.942518 340.61501,217.197686 C340.674635,218.163313 340.814807,219.116373 341.036572,220.057913 C342.203976,219.007452 343.372425,217.958039 344.539829,216.907578 L344.539829,216.907578 L345.529402,219.401244 C347.862117,218.237673 347.341179,219.2232 348.607959,219.151982 C350.17705,219.065055 351.508685,218.888058 353.302679,218.46913 C355.56217,217.942329 358.183597,218.951944 360.321745,218.41048 C361.694177,218.063818 362.217207,216.386014 363.088576,216.175503 C365.635733,215.558632 364.54783,217.769521 366.399357,218.202064 C367.786434,218.526733 368.335616,217.341168 369.730014,217.075149 C371.365007,216.763048 372.429897,217.622897 374.113008,216.864638 C374.397537,216.736865 376.262663,215.317749 376.125629,215.305181 C377.141354,215.39525 377.82757,217.024878 378.849571,217.420764 C380.453182,218.043919 380.748171,217.697256 382.247176,217.437521 C385.330962,216.903389 386.737914,216.853118 388.074779,213.984512 C389.709772,215.257004 387.880212,216.361925 387.806988,217.795704 C387.722606,218.009794 397.491606,213.006135 398.63289,211.930307 L398.66,211.901422 L398.634379,211.979053 C398.034098,213.751882 397.215952,216.918548 399.867763,217.229875 L400.05845,217.246909 C401.512474,217.338026 402.195551,215.714682 403.257303,214.663174 C407.693646,210.269673 407.255347,216.857307 411.616373,215.425622 C413.522296,214.800373 413.351788,213.066014 416.003551,213.808562 C417.486865,214.223301 416.170921,215.128184 418.115548,215.200449 C418.708664,215.222443 419.985904,214.075629 420.77045,213.985559 C421.285111,213.925862 420.694087,215.690594 421.924254,215.474846 C422.728675,215.333458 423.527865,213.673458 424.294628,213.710115 C425.748652,213.77819 424.515347,214.767906 425.376254,215.243389 C426.331308,215.771238 427.435948,216.82484 428.612766,217.413433 C428.696451,216.539969 428.77909,215.666506 428.862774,214.793042 C429.16927,215.053824 430.488353,216.905484 430.878533,216.701256 C431.001968,216.63737 433.641179,214.706115 430.687104,215.518834 C431.190259,213.192739 433.675699,212.308802 435.442496,211.158846 C434.645397,217.489887 439.287814,212.365357 440.589114,217.10238 C442.057783,216.044588 442.11427,214.999364 442.22306,213.300613 C444.803692,214.392966 446.381151,216.448853 449.300707,215.864449 C451.029845,215.518834 450.448235,213.817988 453.237033,214.714493 C455.286265,215.372209 455.548827,216.988222 457.752876,215.895868 C458.512316,215.518834 460.420331,213.048209 460.687076,212.197786 L460.687,212.198422 L460.768137,212.429266 C462.211996,216.271081 466.981853,215.388044 470.276711,215.163626 L470.468789,215.151225 C473.960539,214.939667 476.055799,216.855212 477.788075,214.14161 C479.174105,215.836171 486.947382,218.046014 484.617805,213.953092 C489.347045,215.9032 494.108713,215.894821 499.065994,215.09048 C499.761624,214.97737 501.007482,214.324891 501.703113,214.494556 C502.712561,214.741723 502.58808,215.252815 503.171782,215.449711 C503.65297,215.613092 503.99817,216.238342 504.803636,216.432096 C505.696972,216.646796 506.872744,216.035162 507.750389,215.885395 C509.87703,215.525118 512.694071,214.678884 514.874062,215.019263 C517.087526,215.364878 517.598003,216.076007 519.915028,215.827793 C522.952788,215.503124 524.393213,216.242531 525.050139,212.765433 C526.516716,214.026405 524.816868,214.456853 526.930956,215.578531 C528.34,216.325269 531.252233,216.109521 532.80354,215.970228 C533.40921,215.834077 533.800436,215.464373 533.978267,214.861118 C534.566153,215.458089 535.251322,215.664411 536.034822,215.477988 C537.459556,214.925004 537.584037,215.870733 538.18866,213.6766 C540.968043,216.60595 542.265159,214.225395 545.301873,214.093433 C548.171217,213.968802 548.042551,216.311654 550.308319,216.576626 C550.129442,216.555679 552.053148,215.255957 551.976785,215.296802 C555.249909,213.550922 554.465363,212.1339 557.279267,214.267288 C560.232296,216.506455 558.655882,215.19626 562.309772,214.469421 C565.796292,213.774001 574.856223,218.727818 575.647045,214.773143 C578.910754,218.573862 581.871105,214.191881 584.748818,215.06325 C585.279171,215.22349 585.373316,216.582909 586.26979,216.683452 C587.297022,216.79761 587.324219,215.84455 587.954994,215.843503 C589.689362,215.842455 589.293951,214.237963 591.40281,216.810178 C593.350574,214.727061 593.434259,214.417055 595.406083,214.727061 C597.467869,215.05173 599.691794,217.570531 602.707587,216.550443 C601.718013,216.228916 601.030751,215.589004 600.643709,214.62966 C602.649007,214.195023 601.708599,215.722014 602.537079,215.794279 C603.244216,215.85607 606.094731,216.126279 606.765256,216.343074 C609.383545,217.192449 612.863789,215.818367 613.628459,213.030405 C614.619079,209.414014 612.490345,210.281193 609.976662,209.526077 C609.750713,211.605004 611.78007,213.9112 608.686869,214.639086 L608.686869,214.639086 L607.862573,209.600436 C605.629234,210.971376 605.188842,209.910443 603.073708,209.92301 C600.554794,209.936626 598.935492,211.606051 596.543151,211.909774 C596.972036,210.333559 598.111196,209.454859 599.233619,208.38031 C594.797276,209.112386 590.461355,207.546644 586.073131,207.203124 C586.374396,208.198077 586.67357,209.193029 586.973789,210.187982 C584.12955,207.018796 579.487133,206.90778 575.556037,206.879503 C571.90947,206.85332 568.362279,206.31814 564.73454,206.207124 C560.389205,206.074115 556.002027,206.67737 551.647276,206.41973 C549.221462,206.276247 546.913852,205.749446 544.474439,205.813332 C541.309059,205.89607 542.526674,206.132764 540.72745,207.74773 L540.759,207.717422 L540.762136,207.708267 C540.72468,207.405103 538.011862,205.513599 537.46281,205.299735 L537.412483,205.283389 C535.636273,204.873887 533.582856,205.327376 531.807691,205.428966 C527.823246,205.657282 523.98525,205.304335 520.012311,204.928348 C510.420982,204.020323 500.514788,203.655856 490.8858,204.049648 C481.423136,204.436108 471.851681,203.468386 462.45178,204.554455 C455.135633,205.399641 446.32048,201.590544 439.747035,206.088777 Z M578.961163,215.865458 C577.238989,213.725982 577.831297,212.750868 580.740578,212.939048 C581.398837,215.183306 580.805284,216.158419 578.961163,215.865458 Z M435.109848,162.979048 C415.566298,163.042935 395.75391,162.041698 376.281492,163.98238 C366.805229,164.927061 357.256788,165.218215 347.747051,165.761774 C344.777285,165.932487 332.786292,165.571162 331.699435,169.428436 C328.969217,166.288575 328.877163,169.732159 328.170027,172.057206 C326.269334,166.602771 320.280637,172.350455 318.088094,174.766619 C318.406097,174.415768 322.681347,176.672739 323.363378,176.763856 C325.130174,177.003692 327.232756,176.570102 328.879256,176.444424 C329.279897,176.808891 329.729703,177.080146 330.227628,177.259238 C330.819698,177.632083 331.145023,177.269711 331.203602,176.173168 C331.350051,175.737484 331.496499,175.301799 331.642948,174.865067 C332.255939,175.163553 332.855332,175.19602 333.439034,174.963515 C335.927612,174.442998 336.060462,175.263048 338.222669,176.679023 C338.776035,175.820222 339.329401,174.961421 339.881721,174.101572 C340.330481,174.893345 340.778195,175.685118 341.226955,176.476891 C342.930988,172.022644 344.036674,174.822127 346.894511,175.911339 C350.195879,177.167074 353.222132,175.322745 356.541282,175.081862 C357.369762,174.955137 358.199288,174.995982 359.028814,175.203351 C360.275719,175.070342 361.311319,175.480891 362.134568,176.436045 C362.841705,176.333408 364.038399,174.628373 364.864787,174.378064 C366.756064,173.806228 367.537471,174.850405 369.14422,173.139086 C368.950699,174.018834 368.757178,174.899629 368.562611,175.780424 C370.293841,174.930001 373.806513,174.618947 374.576413,172.979894 L374.571,172.989422 L374.555466,173.025335 C374.336365,173.506301 373.17217,176.193148 373.505971,176.430292 L373.551274,176.446518 C375.046094,176.583717 376.169563,173.669029 376.269985,172.622758 C379.625748,177.587048 390.589509,173.763288 395.27586,174.025118 C399.400477,174.255528 402.698707,174.892297 406.653862,173.609332 C408.15182,173.122329 409.483456,172.136802 410.672827,172.725395 C411.862197,173.315036 409.767984,174.962468 412.187522,175.301799 C411.50026,170.92296 415.244111,171.536689 418.081028,172.73901 C417.094593,172.858405 416.108157,172.979894 415.122768,173.099288 C418.089396,175.363591 419.237971,172.951616 422.124052,172.75472 C423.686867,172.647894 424.482919,173.11395 425.623125,172.674077 C425.841751,172.589244 425.315583,171.342935 426.055148,171.191074 C427.353309,170.925055 428.052077,171.556588 429.110691,172.035212 C431.79279,173.249055 432.794916,174.593812 435.972848,174.437761 C439.280492,174.275427 441.48245,173.471086 444.798462,174.110998 C447.446041,174.622089 449.194008,174.994935 451.977576,174.756146 C458.043681,174.238771 463.086739,175.092335 468.995936,172.902392 C468.848441,175.965799 474.135231,174.507932 475.791145,174.536209 C476.792225,174.551919 477.304795,175.228487 478.249388,175.210682 C478.686641,175.203351 480.122882,174.545635 480.492142,174.404247 C480.704492,174.321509 482.501624,174.05549 482.465012,174.061774 C482.615645,174.036638 482.849962,172.565156 483.229682,172.667793 C485.079117,175.16879 485.836465,173.388348 488.171273,173.46585 C490.044767,173.526594 491.770767,175.080815 493.680874,175.329029 C496.455027,175.690354 499.327509,174.497458 502.13932,174.644083 C503.762806,174.727868 506.137363,176.072626 507.068357,176.05901 C508.773436,176.033875 508.379071,174.476512 510.519311,174.658745 C511.902203,174.777092 513.664816,175.265143 515.024694,175.373017 C515.062353,175.376159 516.994427,174.956184 517.19004,174.946758 C517.769557,176.362733 518.454727,176.46537 519.247641,175.257812 C519.839711,174.594859 520.194326,173.821938 520.309393,172.939048 C523.083545,177.090619 531.375668,174.437761 535.351744,174.079578 C540.958629,173.574771 545.745402,175.796133 550.263338,171.811086 C550.343885,172.431099 551.098094,175.096525 551.902515,174.978178 C552.837693,174.842026 552.018628,172.138897 552.043733,171.733585 C553.53437,172.726443 555.082539,173.854405 556.931974,173.935048 C558.146451,173.989509 559.110919,173.122329 560.24171,173.061585 C560.003208,173.074152 562.386134,173.398821 561.536733,173.728727 C562.955191,173.177837 564.617382,169.704928 562.469819,168.575919 C560.867254,167.73178 561.578576,169.600197 560.380836,169.341509 C559.335822,169.115288 557.841001,167.053118 556.472754,166.433105 C552.78016,164.761585 548.064519,165.530316 544.128193,165.524033 C523.9319,165.492613 503.750253,164.674657 483.558145,164.747969 C478.993137,164.764727 474.600728,164.39607 470.07547,163.877648 C466.293961,163.444058 463.884883,164.456815 460.211119,164.997231 C456.079179,165.604676 451.818574,163.942581 447.764043,163.349799 C443.563064,162.73607 439.34221,162.965433 435.109848,162.979048 Z M378.233394,171.115428 C381.809621,173.532315 380.029325,169.596242 383.000207,171.412569 C382.180422,172.287252 381.269054,173.066724 380.264986,173.749939 C378.721467,174.563939 377.462752,172.180532 378.233394,171.115428 Z M423.992316,115.289395 C417.863447,114.048323 417.136435,116.349282 416.733702,122.292815 C416.314231,128.491894 415.298507,133.683452 409.282612,136.853686 C405.156949,139.026872 402.601423,139.159881 401.674613,134.484651 C396.908761,135.51207 392.142909,136.540537 387.377057,137.567957 C395.785292,150.043616 415.219006,155.991339 429.281199,156.238506 C438.002206,156.392462 446.930333,156.242695 455.350075,153.7019 C459.010241,152.598026 462.351359,150.963162 465.701891,149.140827 C466.468653,148.723995 473.692748,145.223856 473.612516,143.982783 C473.502365,142.332209 468.28566,142.99202 467.283534,142.902998 C464.696627,142.674682 462.500945,141.539389 460.163,140.484739 C455.61682,138.431995 450.95139,136.241004 447.452317,132.572247 C444.010778,128.963187 443.167653,125.362506 442.796302,120.620247 C442.425996,115.884272 440.804602,115.181521 436.201936,115.308247 C431.889028,115.427641 428.270704,116.155528 423.992316,115.289395 Z M512.025639,139.132651 C507.69181,139.347351 501.531559,138.095805 497.41008,139.091805 C496.410046,139.333736 496.203972,140.122367 495.16105,140.343351 C493.941343,140.600992 494.516676,138.345067 492.621214,140.040676 C490.541646,141.899667 490.334526,144.874051 488.91293,147.138354 C489.714212,147.387616 490.765503,146.5152 491.180789,146.623074 C491.494607,146.704764 493.522919,147.521673 493.577314,147.516436 C495.653744,147.32373 496.440382,146.470165 497.595233,144.749421 C500.499097,147.330014 503.896702,148.063137 507.719007,147.961547 C510.583121,147.885092 513.330076,146.35496 515.915938,146.746657 C515.997531,147.278695 516.260092,147.691339 516.705714,147.984588 C517.617879,148.155301 518.533182,148.168916 519.452669,148.027528 C521.311519,148.04638 522.981031,147.666203 524.859756,147.869383 C527.282433,148.13226 529.481252,149.335629 528.03978,145.798834 C525.648486,139.926518 517.044637,138.884436 512.025639,139.132651 Z M370.122287,143.620411 C368.85237,149.418367 374.913245,146.181105 374.097317,143.808928 C372.884933,145.303452 371.408942,144.188058 370.122287,143.620411 Z M365.470456,143.942985 C365.746616,146.777029 366.375298,147.587654 369.047983,146.175868 C368.854462,145.87843 368.659894,145.580992 368.466373,145.283553 C366.99875,146.264891 366.775939,143.968121 365.470456,143.942985 Z M378.434285,144.66773 C377.085913,143.833017 375.83064,143.953458 374.665303,145.029055 C374.654868,145.025913 381.136259,146.494253 378.434285,144.66773 Z M442.875802,33.3838434 C438.52942,29.2448404 430.742545,33.9294964 426.055148,35.0951624 C419.351991,36.7635404 412.670802,37.9721464 406.069114,40.0563104 C401.331505,41.5529284 395.328163,42.4379134 393.002771,47.4189604 C390.54662,52.6775474 393.284161,60.4046634 389.250551,64.9625944 C387.22224,67.2551744 378.600608,67.5505184 379.521142,72.0676034 C380.171791,75.2619254 385.538082,73.4950994 387.767237,73.9611564 C394.357419,75.3352384 388.143819,80.3592254 390.157486,83.9295344 C390.936801,85.3109474 391.46297,84.4793764 392.397102,85.0669224 C393.284161,85.6251434 393.967239,85.9801844 394.899279,87.0955784 C396.747668,89.3064684 398.188093,92.1268974 400.413064,93.9942664 C417.361338,108.214758 449.706578,114.97101 466.607779,97.1351744 C470.786791,92.7238684 475.308911,86.0105564 473.205283,79.9361084 C471.854819,76.0348464 472.21571,75.5017614 473.760742,71.4193134 C475.330879,67.2698374 476.056845,63.2156674 475.226273,58.8033134 C474.59759,55.4696984 471.815069,52.2607144 471.470915,49.0601084 C471.115254,45.7579134 472.810919,45.9663294 475.459544,45.3002344 C480.657419,43.9921334 489.211057,41.2649164 492.082493,36.2723484 C486.907631,35.1737114 481.394892,39.4635284 476.459578,40.4595284 C471.122577,41.5361714 465.618206,41.4544804 460.216349,41.0261274 C454.969309,40.6092944 449.601972,40.0259384 444.537993,38.5303674 C440.06713,37.2107454 436.168462,34.8731304 442.875802,33.3838434 Z M434.4692,54.9167694 L434.630396,54.9207274 C436.731749,55.0774574 437.625763,60.7709094 438.278519,62.4311954 C440.803902,68.8539614 445.869289,75.7437814 444.871878,82.9825844 C444.563777,85.2196344 443.454614,88.7063384 441.577809,90.0740624 C439.083759,91.8931674 434.776614,90.7250114 436.726527,86.9593294 C439.004384,82.5615054 435.62363,77.5775134 434.259631,73.4252324 C432.992762,69.5738714 431.912842,65.4184554 432.005795,61.3382694 C432.037127,59.9851734 432.215721,54.7410114 434.630396,54.9207274 L434.4692,54.9167694 Z M404.905415,56.9162184 C407.580922,59.9705394 406.12069,66.3978484 410.900493,67.7243874 C413.745064,68.5146454 415.209864,66.3881996 416.482369,64.1924325 L416.797176,63.6436943 C417.144038,63.0360423 417.483698,62.4413503 417.841607,61.9206474 C420.32495,58.3083964 423.341494,57.8764504 422.968782,63.0534464 C422.729105,66.3840854 420.558291,70.1127924 418.792921,72.8929134 C410.935336,85.2637094 398.148018,65.9923704 404.905415,56.9162184 Z M420.554602,1.33106871 C421.779057,3.21856276 425.943702,5.90341249 428.111777,6.50455684 C429.478137,6.88340892 430.776169,7.30614374 432.060656,7.73232045 L432.830161,7.98811598 C432.958287,8.03070957 433.086387,8.07325669 433.214516,8.11571691 L433.984075,8.36911184 C438.351842,9.7954404 442.879675,11.0278092 449.720776,10.4767312 C452.195893,10.2773507 480.009891,4.7191254 480.891066,7.04065285 C481.788344,9.40460491 484.651865,16.0474771 487.538996,15.2019149 C496.317294,12.6309893 512.077597,13.0243332 508.727458,28.623556 C501.692063,61.3824063 496.78864,52.0983538 494.261778,54.6841786 C462.05168,87.645877 482.53182,50.2060096 479.866967,47.505293 C477.48676,45.0930535 477.000223,36.5733212 472.324846,34.9148165 C454.42948,28.5667619 440.094162,24.3820892 422.746573,31.9429491 C412.395382,36.4544644 401.956687,41.0068867 392.457856,47.1120616 C387.609199,50.2284347 386.687165,54.2488787 386.062941,57.959112 L385.968766,58.527306 C385.056198,64.0872595 384.399307,68.7947422 371.434122,68.445571 L368.610778,65.2021194 C369.487219,36.9339968 370.598644,31.4809043 397.673122,9.07187679 C398.827916,8.11607659 397.723158,10.3845769 396.703677,12.867807 L396.525131,13.3076405 C395.582698,15.6587734 394.837985,18.0432982 396.245891,17.9521163 C397.633763,17.8622318 401.764148,13.0524767 406.306652,8.43468819 L406.914557,7.82055185 C412.302341,2.41334767 418.118129,-2.42474555 420.554602,1.33106871 Z M454.648634,55.3893724 C457.738149,53.2033634 458.838809,59.2097514 458.968359,60.8389854 C459.491742,67.4144744 453.496154,78.5304514 446.000891,71.8563454 C442.955941,69.1443794 441.007504,65.4010454 441.000166,61.3063884 C440.996104,59.2436504 441.291478,55.3842364 444.228643,56.5111404 C446.642424,57.4367014 450.094681,69.2193694 453.679597,61.6227844 C454.419589,60.0562134 453.096103,56.4875134 454.648634,55.3893724 Z" id="Combined-Shape" fill="#000000"></path>
        </g>
    </g>
</svg>