<svg width="863" height="562" viewBox="0 0 863 562" fill="none" xmlns="http://www.w3.org/2000/svg">
<g clip-path="url(#clip0_6010:3)">
<path d="M269 200.115C272.14 231.817 275.28 263.52 278.419 295.221C295.514 285.467 312.609 275.712 329.703 265.958V338.18V357.163C329.703 358.843 328.706 364.613 329.703 366.068C330.549 367.301 336.813 367.337 338.294 367.545C347.959 368.898 357.648 370.102 367.35 371.173C392.921 373.997 420.289 378.043 445.958 374.798C468.27 371.977 489.901 364.041 510.286 354.807C517.443 351.565 524.5 348.095 531.426 344.387C532.894 343.601 538.225 341.745 539.023 340.145C539.675 338.837 538.145 334.244 537.941 332.87C537.08 327.077 536.218 321.284 535.357 315.492L523.326 234.604L546.053 257.299C547.833 259.077 551.214 264.125 553.678 264.913C555.484 265.491 559.957 263.702 561.743 263.359C574.611 260.879 587.48 258.398 600.349 255.919C603.347 255.341 610.104 255.363 612.631 253.552C613.992 252.576 614.056 250.591 614.536 248.71C617.675 236.413 620.814 224.117 623.952 211.822C624.518 209.607 627.672 202.624 626.87 200.393C626.583 199.594 625.19 199.047 624.339 198.526C604.917 186.664 585.493 174.8 566.071 162.937C555.431 156.439 544.791 149.94 534.151 143.442C529.695 140.719 524.22 135.814 519.17 134.291C516.035 133.346 511.474 134.054 508.23 133.961C501.637 133.773 495.046 133.585 488.453 133.397C487.421 133.368 483.806 132.632 482.937 133.24C482.214 133.746 482.514 134.451 482.277 135.657C481.697 138.603 481.693 141.779 481.407 144.769C481.178 147.168 481.633 151.568 480.552 153.74C479.861 155.128 480.737 154.575 479.803 155.246C478.69 156.045 475.138 155.788 473.814 155.941C467.354 156.692 460.894 157.442 454.434 158.192C446.754 159.084 438.988 160.758 431.272 159.987C419.574 158.819 406.961 158.877 395.474 156.413C392.489 155.772 391.414 154.09 389.111 151.791C384.617 147.303 380.168 142.763 375.624 138.323C373.397 136.147 374.351 136.516 372.055 137.341C369.178 138.375 366.26 140.871 363.656 142.457C353.679 148.534 343.702 154.612 333.724 160.689L272.812 197.793C271.541 198.567 270.271 199.341 269 200.115Z" fill="#FF5678"/>
<path d="M445.083 15.9594C451.932 12.4564 451.942 20.0564 457.717 17.7713C471.678 12.2472 462.862 20.5135 471.325 21.0063C489.423 22.0602 494.362 15.412 495.46 28.3179C496.997 46.374 500.788 59.2284 496.842 60.4767C488.877 62.9976 490.103 82.2726 482.633 86.1299C475.878 89.6175 473.122 96.0742 468.506 101.683C466.43 104.206 464.381 107.921 461.827 109.935C459.432 111.826 455.997 112.281 453.255 113.484C445.172 117.027 450.799 122.379 456.475 125.663C460.189 127.813 463.633 129.801 467.855 128C471.457 126.463 474.123 124.109 478.039 123.115C486.08 121.077 495.539 121.081 503.244 124.309C511.156 127.624 519.673 128.279 527.294 132.328C543.695 141.04 559.061 152.271 574.53 162.516C582.854 168.03 590.88 174.268 599.566 179.193C606.591 183.173 613.937 186.532 621.136 190.166C628.206 193.736 631.265 198.777 636.066 204.685C638.023 207.093 638.62 210.457 640.887 212.556C643.297 214.789 647.476 215.6 650.429 217.019C666.618 224.79 684.683 233.494 702.763 235.185C710.357 235.896 718.334 236.465 725.966 236.277C728.493 236.215 732.238 236.137 732.668 233.154C733.06 230.431 730.22 225.256 729.326 222.816C723.714 207.511 717.194 193.171 719.191 176.443C720.767 163.241 725.863 148.433 736.919 140.216C738.496 139.044 739.926 138.162 741.79 137.641C742.947 137.319 744.592 137.631 745.644 137.027C747.787 135.8 747.405 134.13 747.306 131.693C747.083 126.223 746.413 120.422 750.689 116.087C755.812 110.892 765.212 114.276 770.588 117.404C776.764 120.998 781.56 126.526 785.501 132.406C790.329 139.604 795.341 147.333 798.525 155.426C801.901 164.002 802.646 173.448 806.916 181.7C808.005 172.797 808.901 163.879 810.392 155.029C811.543 148.199 812.383 139.82 816.756 134.143C821.669 127.765 827.374 133.144 829.633 138.824C832.453 145.911 831.995 153.859 832.519 161.326C835.138 154.984 840.315 136.507 849.664 137.849C855.863 138.738 859.14 147.925 860.475 153.048C862.381 160.369 862.599 168.019 862.83 175.538C863.94 211.73 850.22 247.245 831.365 277.563C814.817 304.169 792.269 324.694 761.628 333.345C746.242 337.689 729.938 339.572 713.994 338.104C696.733 336.518 680.235 330.92 664.194 324.618C648.896 318.607 633.495 313.012 619.587 304.182C617.392 302.789 609.022 295.737 606.246 296.429C601.705 297.563 604.121 304.879 597.508 303.597C592.329 302.594 587.682 297.572 583.967 294.191C579.018 289.688 574.187 285.062 569.264 280.531C556.128 268.441 542.935 256.502 530.095 244.083C528.143 255.998 531.912 268.189 533.61 279.913C535.391 292.211 538.146 304.153 542.29 315.879C544.437 321.952 546.651 327.923 548.061 334.22C548.697 337.065 548.929 339.963 551.339 341.877C555.201 344.944 561.717 345.965 566.229 347.814C571.837 350.112 577.373 352.586 583.048 354.719C594.935 359.19 605.032 365.959 615.98 372.25C637.387 384.552 660.264 394.29 680.632 408.383C699.742 421.607 719.241 435.107 732.917 454.278C744.178 470.064 756.185 489.187 756.573 509.203C756.999 531.301 736.848 546.515 719.475 556.616C708.602 562.937 698.265 560.257 686.375 560.09C672.943 559.901 659.483 561.497 646.02 561.413C619.385 561.248 593.368 559.216 567.129 554.69C554.317 552.479 541.336 551.701 528.612 548.906C516.2 546.18 504.435 541.473 492.455 537.344C481.05 533.415 469.737 529.797 458.828 524.563C453.399 521.958 447.909 519.246 442.702 516.219C438.687 513.885 435.303 510.535 431.062 508.581C425.81 506.162 421.729 509.107 416.489 510.215C410.798 511.419 405.197 513.144 399.508 514.432C386.855 517.296 374.793 522.26 362.195 525.339C355.7 526.925 349.069 527.375 342.51 528.573C336.52 529.667 330.666 531.411 324.691 532.593C311.421 535.219 297.883 536.803 284.685 539.721C272.294 542.462 260.739 546.909 248.141 548.899C235.011 550.973 222.143 554.607 209.051 556.929C196.654 559.128 183.293 562.167 170.684 561.993C158.966 561.831 146.244 562.293 134.992 558.563C113.351 551.389 102.573 528.007 106.619 506.224C110.787 483.766 128.098 465.966 145.223 452.199C164.955 436.337 186.764 422.542 208.243 409.186C230.877 395.111 254.706 384.45 279.136 373.982C284.344 371.75 289.424 369.119 294.775 367.253C298.282 366.031 302.241 365.177 305.409 363.157C309.902 360.291 307.222 356.793 308.382 352.427C309.52 348.148 313.49 344.472 315.014 340.076C318.697 329.462 318.927 318.003 322.251 307.281C324.054 301.469 326.321 295.795 327.137 289.724C327.994 283.34 327.541 276.868 327.541 270.451C316.952 277.039 307.848 285.711 297.289 292.376C292.654 295.301 288.473 298.823 283.926 301.807C278.405 305.434 278.752 300.467 274.623 298.377C273.544 300.912 272.882 303.586 271.987 306.186L271.914 306.003C271.054 303.924 270.129 303.903 269.139 305.941L269.054 306.12L269.286 303.508C267.909 305.304 264.812 306.179 265.873 309.017C262.257 309.017 261.376 309.223 258.196 311.854C254.989 314.509 252.449 316.898 248.69 318.806C239.323 323.565 230.368 329.045 220.844 333.509C202.753 341.988 183.358 348.289 163.453 350.731C154.516 351.826 145.515 352.258 136.562 353.192C127.49 354.138 118.656 355.227 109.505 354.627C92.6181 353.519 76.1939 348.367 61.389 340.224C34.5178 325.446 14.3843 300.974 5.6277 271.52C0.280238 253.533 -0.571256 235.058 0.290698 216.421C0.734228 206.826 2.56483 197.375 2.35771 187.767C2.17047 179.071 2.86505 170.922 5.87352 162.69C7.95937 156.983 12.1175 147.648 18.7558 146.13C26.5834 144.34 28.3011 155.7 28.7603 161.088C29.5553 170.408 27.8209 179.779 27.801 189.108C27.7937 192.8 27.8209 196.407 27.527 200.084C27.369 202.06 26.5081 206.31 28.1881 207.966C32.3106 184.952 34.545 162.139 44.3842 140.63C46.4806 136.048 51.4546 125.338 57.7215 130.867C65.1517 137.421 58.7822 149.295 62.5857 157.298C69.5483 144.156 78.8948 127.895 94.1108 123.318C102.324 120.847 112.725 122.589 119.836 127.33C126.389 131.699 133.836 141.02 136.346 148.542C137.331 151.499 136.645 155.866 138.445 158.402C140.256 160.953 144.258 161.724 146.281 164.557C152.138 172.757 153.142 184.368 152.267 194.075C151.295 204.86 147.065 214.401 141.033 223.293C137.934 227.859 134.452 232.266 130.358 235.985C127.182 238.871 123.104 241.112 120.803 244.845C128.793 246.813 137.3 244.349 145.299 243.595C154.579 242.72 163.694 241.655 172.884 240.033C191.656 236.723 209.753 232.244 227.708 225.831C236.187 222.802 244.205 219.32 251.768 214.383C257.116 210.893 265.672 207.659 267.395 201.043C268.363 197.327 268.673 194.788 271.502 191.996C274.352 189.181 277.905 187.099 281.184 184.833C288.727 179.624 295.432 173.162 302.369 167.18C315.846 155.556 328.563 141.421 344.107 132.535C351.508 128.303 359.542 125.739 368.122 126.334C377.685 126.997 387.188 128.576 396.754 129.32C402.239 129.747 408.247 131.008 410.478 124.629C411.506 121.695 411.975 116.965 410.903 113.991C409.758 110.811 411.554 116.024 408.686 114.704C406.771 113.822 403.91 111.366 401.726 112.161C400.333 112.669 402.537 102.719 401.613 103.711C396.613 109.078 401.554 96.1207 395.917 98.5149C388.072 101.848 392.906 89.9142 386.363 92.0441C385.971 92.1718 384.486 83.9867 384.01 84.1868C378.269 86.5998 381.292 76.7918 375.246 78.324C363.79 81.2282 369.737 54.8672 371.905 52.1599C375.778 47.3202 386.449 42.3819 385.739 36.8897C383.988 23.3573 388.983 33.3939 400.754 24.8226C407.424 19.9661 413.901 8.84869 421.342 13.3836C429.105 18.1147 438.499 19.3271 445.083 15.9594ZM536.903 350.229C539.739 347.707 544.315 348.936 547.415 350.246C556.718 354.176 564.669 360.785 573.914 364.886C584.159 369.432 593.028 375.506 602.269 381.766C610.716 387.487 619.849 392.224 628.471 397.685C637.257 403.251 647.092 406.868 655.998 412.236C665.062 417.699 674.091 423.185 682.801 429.205C683.356 429.589 683.912 429.973 684.468 430.357L686.137 431.512C686.416 431.705 686.695 431.898 686.973 432.091L688.645 433.253C702.303 442.764 715.942 452.873 725.996 466.229C731.902 474.075 737.431 482.974 741.765 491.784C745.704 499.792 749.977 510.91 744.872 519.241C739.97 527.242 731.613 533.544 724.539 539.514C721.86 541.774 719.312 544.52 715.84 545.501C711.617 546.691 706.689 546.363 702.346 546.714C679.123 548.598 657.489 546.82 634.603 542.667C612.536 538.663 590.378 536.42 568.142 533.637C555.597 532.067 543.055 530.238 530.681 527.623C525.391 526.505 520.009 525.216 514.833 523.693C510.313 522.363 506.512 519.435 501.864 518.275C482.14 513.349 459.571 511.466 440.043 503.181C450.535 498.82 461.427 495.508 472.329 492.243L476.176 491.091C481.946 489.361 487.707 487.612 493.399 485.693C512.04 479.413 530.246 474.143 549.894 472.358C560.004 471.439 569.053 468.858 578.778 466.156C585.729 464.224 592.91 463.297 600.082 462.467L602.472 462.193L604.859 461.919C605.655 461.826 606.449 461.733 607.242 461.637C611.476 461.123 623.558 461.892 624.96 456.358C627.049 448.119 615.179 447.168 610.118 447.906C602.939 448.952 597.019 450.744 591.525 444.855C585.915 438.841 580.464 432.683 574.753 426.745C574.091 426.057 573.428 425.362 572.762 424.663L571.763 423.611C562.08 413.415 551.843 402.537 538.277 398.06C520.013 392.034 498.835 397.754 480.612 401.181C479.073 401.471 477.533 401.759 475.994 402.048L471.377 402.915C455.224 405.956 439.127 409.108 423.262 413.528C415.441 415.706 405.355 420.506 397.237 419.735C389.237 418.974 380.176 417.665 372.446 415.358C368.948 414.315 366.072 412.38 362.942 410.577C358.872 408.231 354.413 406.728 350.093 404.904C341.359 401.218 332.844 397.822 323.421 396.373C315.485 395.153 307.058 394.429 299.368 397.211C291.824 399.94 285.138 405.497 279.874 411.433C274.157 417.883 269.431 425.11 264.744 432.316C262.494 435.774 259.748 438.792 257.418 442.173C255.462 445.012 254.319 448.167 252.249 450.927C247.616 457.101 244.471 464.998 241.663 472.181C238.544 480.158 235.078 489.646 235.823 498.324C236.104 501.604 236.398 505.949 237.667 508.99C239.281 512.859 241.582 512.76 244.899 514.219C246.704 515.013 248.098 516.25 249.393 517.527L249.799 517.932C252.424 520.562 254.774 523.182 259.561 522.304C266.469 521.037 272.46 515.345 277.5 510.807C284.069 504.895 290.356 498.66 296.642 492.449C303.092 486.074 309.449 479.003 314.58 471.503C315.118 470.716 315.625 469.902 316.124 469.079L316.87 467.843C317.989 465.987 319.129 464.141 320.561 462.528C323.601 459.103 327.014 458.692 331.143 457.328C367.241 445.401 403.515 433.896 440.74 426.021C449.658 424.134 458.649 421.7 467.41 419.189C476.702 416.525 481.514 419.341 489.183 424.41C505.204 435.003 524.141 442.464 541.982 449.376C547.599 451.552 556.542 451.69 560.933 455.982C534.904 459.949 510.099 467.584 484.993 475.187C472.615 478.934 460.095 482.184 447.67 485.768C435.241 489.354 423.284 494 411.025 498.042C398.825 502.065 385.931 503.706 373.613 507.417C361.038 511.205 348.516 513.811 335.609 516.113C322.576 518.439 309.633 521.122 296.555 523.204C290.567 524.157 284.581 525.146 278.659 526.457C276.392 526.96 274.155 527.736 271.922 528.538L270.434 529.073C267.459 530.141 264.482 531.155 261.444 531.526C235.439 534.708 209.944 541.797 184.041 545.804C164.699 548.797 131.05 552.97 118.508 533.565C105.896 514.051 121.369 491.287 135.175 477.334C143.755 468.662 153.396 461.03 163.512 454.24C174.337 446.974 184.753 439.128 195.581 431.872C220.085 415.452 246.656 402.06 272.982 388.866C285.618 382.533 297.827 375.741 310.119 368.791C314.718 366.19 317.769 368.713 321.058 371.734L321.462 372.106C321.8 372.417 322.141 372.732 322.488 373.045L322.906 373.42C323.397 373.855 323.9 374.283 324.419 374.69C328.212 377.667 335.178 385.002 340.484 381.611C340.688 382.832 340.893 384.053 341.097 385.276L345.762 383.149L345.856 383.403C346.801 385.994 346.774 387.634 349.601 389.027C351.392 389.911 355.214 390.974 356.922 389.418C357.27 390.5 357.619 391.58 357.967 392.661C359.46 392.547 359.749 388.276 360.03 387.276C362.589 391.013 366.127 394.136 370.624 395.192C370.646 394.948 369.893 391.878 369.926 391.859C371.348 390.988 373.143 394.718 373.898 395.517C376.399 398.164 377.89 397.753 380.653 395.617C380.854 395.835 381.789 398.275 381.925 398.231C382.523 398.041 383.658 395.879 383.783 395.682C383.61 398.526 389.101 399.099 391.04 398.488C390.605 397.655 390.17 396.822 389.736 395.989C393.254 395.519 395.659 397.241 398.072 398.947L398.652 399.355C400.686 400.774 402.789 402.058 405.626 401.899C410.419 401.628 406.574 400.581 409.287 398.528C411.656 396.734 412.079 400.657 412.311 400.533C412.763 400.059 413.113 399.516 413.362 398.901C414.239 402.261 421.221 405.275 420.5 399.751C423.246 400.849 425.196 402.673 428.236 403.058C431.931 403.526 435.878 402.742 439.563 402.436C447.506 401.775 454.992 400.155 462.152 396.516C466.396 394.359 470.914 392.401 474.904 389.799C478.243 387.62 484.578 381.008 489.024 383.855C487.886 380.497 493.246 383.609 493.416 379.283L495.999 381.23C496.516 380.098 496.371 378.314 497.063 377.327C498.013 375.972 498.476 376.77 499.286 376.008C500.192 375.155 500.982 372.871 502.068 372.221C503.187 371.551 504.504 372.35 505.708 371.765C506.274 371.49 507.416 370.472 508.686 369.415L508.95 369.196L509.351 368.868C512.041 366.695 514.947 364.872 514.095 369.629C517.486 368.477 514.871 367.423 515.295 365.163C515.891 361.985 517.089 362.642 518.464 363.453L518.671 363.576C519.193 363.882 519.736 364.184 520.279 364.288C523.657 364.936 523.589 362.143 525.473 360.114C525.873 359.683 526.354 359.307 526.844 358.944L527.286 358.619C528.75 357.54 530.089 356.457 529.312 354.211C530.584 354.897 530.855 356.24 531.002 357.544C533.313 355.418 534.696 352.192 536.903 350.229ZM473.929 85.2105C482.281 86.1919 474.444 106.022 469.818 109.219C462.797 114.07 455.467 118.947 447.284 121.371C425.024 127.963 411.693 120.942 397.771 107.019C391.138 100.386 392.122 107.08 393.437 97.064L394.632 95.1771C408.409 89.6212 407.702 87.975 422.188 89.1216C424.733 89.3231 427.256 89.8782 429.773 90.4596L431.146 90.7773C434.805 91.621 438.46 92.3943 442.161 92.0892C466.547 90.0794 453.973 82.8657 473.929 85.2105ZM436.477 96.8543C433.293 91.4635 422.705 99.4079 428.92 100.752C431.716 101.356 439.002 101.134 436.477 96.8543ZM348.953 420.855C332.278 417.056 309.474 407.075 294.343 419.994C290.745 423.066 288.445 427.31 285.16 430.561C282.141 433.547 281.076 437.28 279.173 441.03C274.108 451.009 269.39 461.088 264.709 471.26C261.416 478.417 257.624 486.162 255.569 493.825C253.565 501.302 259.788 498.086 263.896 495.642C269.38 492.377 274.143 488.117 279.482 484.655C287.92 479.185 294.331 472.337 301.31 465.099C308.859 457.268 315.519 449.408 323.913 442.337C332.284 435.284 339.836 426.955 348.953 420.855ZM535.243 411.574C521.191 406.769 506.755 411.176 492.736 413.744C492.33 416.879 512.334 423.467 514.892 424.519C529.709 430.606 543.873 438.169 559.086 443.302C562.918 444.595 566.322 446.229 569.4 448.845C571.241 450.41 572.593 451.835 574.94 452.445C576.757 452.917 584.451 453.545 585.44 451.243C586.869 447.922 570.901 437.495 568.319 435.205C558.424 426.43 548.026 415.945 535.243 411.574ZM377.555 425.235C372.949 423.73 368.739 422.023 364.102 424.368C359.98 426.452 356.838 430.182 353.181 432.929C357.198 432.767 360.671 430.595 364.407 429.374C368.79 427.94 373.418 427.403 377.555 425.235ZM527.095 331.135C525.707 328.805 525.257 329.205 522.457 329.419C519.565 329.641 516.946 329.681 514.037 329.589C511.471 329.507 510.505 330.825 508.606 331.122C507.937 331.226 506.257 330.194 505.466 330.036C503.853 329.712 501.802 330.108 500.144 330.101C496.542 330.084 492.95 330.167 489.351 330.358C485.642 330.556 480.881 329.665 477.311 330.435C475.022 330.928 475.53 332.317 474.425 332.628C473.584 332.866 473.629 332.333 472.866 332.382C473.559 332.338 471.339 330.963 471.428 330.987C469.72 330.522 466.687 331.573 464.698 331.321C462.02 330.979 461.237 331.736 458.876 332.096C454.592 332.75 449.716 331.816 445.353 332.019C440.258 332.256 435.21 332.748 430.111 332.879C427.215 332.954 422.022 332.603 419.996 335.178C418.54 331.78 410.762 334.81 407.841 334.815C401.437 334.822 395.096 334.69 388.689 335.008C385.648 335.159 382.591 335.319 379.565 335.663C377.202 335.93 374.357 337.386 372.051 337.374C370.698 337.368 370.001 336.481 368.324 336.38C367.199 336.313 365.765 336.711 364.608 336.811C361.135 337.107 357.647 337.184 354.188 337.657C351.446 338.032 349.095 339.414 346.66 339.994C345.061 340.375 341.878 339.671 339.478 340.025C338.019 340.24 333.451 341.082 335.167 343.517C336.68 345.663 333.98 346.949 334.704 348.835C335.526 350.978 339.028 350.496 340.704 350.338C344 350.026 347.178 349.251 350.427 348.723C353.519 348.222 356.103 348.835 359.167 349.111C366.138 349.738 373.049 347.343 380.079 347.602C381.724 347.663 384.891 348.176 386.141 347.685C387.832 347.02 387.698 346.473 388.752 344.458C391.085 349.489 392.65 346.296 396.401 346.076C398.779 345.936 398.03 347.183 399.713 347.559C401.074 347.864 403.364 346.847 404.758 346.233C405.377 345.96 407.532 344.193 408.163 344.336C408.715 344.459 408.658 345.329 409.033 345.458C409.448 345.6 409.465 346.702 410.067 346.844C410.904 347.042 411.276 345.895 411.859 345.796C414.493 345.35 415.7 346.563 417.152 343.849C417.502 346.061 417.865 346.264 419.901 346.673C420.686 346.832 421.356 345.728 421.691 345.8C423.548 346.201 423.729 346.954 425.692 346.66C427.223 346.429 434.074 341.862 434.615 345.307C435.877 344.69 437.137 344.073 438.399 343.457C437.592 347.729 445.823 345.422 448.304 344.89C449.268 345.276 450.054 345.083 450.66 344.308L451.236 343.316C452.913 343.148 452.116 343.511 453.195 343.619C453.282 343.628 453.57 344.63 454.337 344.688C455.378 344.765 455.562 344.144 456.296 343.778C458.274 342.788 457.618 342.096 460.77 342.456C461.985 342.594 463.21 343.079 464.441 343.082C464.92 343.083 465.406 342.966 465.886 342.813C464.584 341.922 465.123 339.193 465.054 338C465.808 338.016 467.792 338.471 466.658 339.678C466.023 340.637 465.859 341.652 466.168 342.72C466.945 342.455 467.698 342.143 468.364 342.148L468.269 342.152C468.281 342.206 471.7 342.539 471.411 342.779L471.402 342.783L471.456 342.765C471.929 342.603 472.918 342.243 472.713 342.177L472.664 342.169C472.797 342.179 473.486 341.513 474.352 341.624C475.356 341.753 475.638 343.456 476.831 343.479C475.839 340.325 479.797 340.609 481.261 338.807C480.988 344.322 484.003 341.179 485.126 338.15C485.801 339.835 485.263 342.175 486.884 343.209C488.661 344.343 492.33 342.368 493.321 340.956C494.396 345.208 497.1 339.412 497.393 342.915C498.483 341.78 497.727 339.331 499.624 339.36C501.038 339.381 501.214 341.679 502.25 342.3C504.337 343.547 504.52 342.127 506.253 341.778C508.223 341.383 509.793 342.311 511.87 342.271C513.864 342.232 515.916 341.723 517.938 341.661C519.861 341.603 521.248 340.669 523.015 340.517C524.449 340.395 526.85 342.096 528.048 341.342C529.987 340.122 527.963 337.92 526.318 338.028C528.851 336.457 528.471 333.447 527.095 331.135ZM108.579 135.108C95.1946 133.281 84.0843 143.143 76.8686 153.502C68.8119 165.07 63.8828 179.249 61.6735 193.093C60.5061 200.408 58.9098 209.577 60.162 216.947C60.6348 219.731 66.2009 226.951 61.138 227.742C55.6671 228.597 52.486 218.347 51.9786 214.854C50.9922 208.066 51.6042 200.849 51.6387 194.016C51.7255 176.981 53.9316 160.3 54.7622 143.327C50.6564 142.222 45.0621 165.553 44.3686 168.739C42.4658 177.477 41.4992 186.406 40.131 195.237C38.7617 204.072 36.8275 212.899 35.7867 221.775C35.227 226.555 33.7803 235.207 27.596 229.222C23.4191 225.178 21.2119 217.904 20.3071 212.444C17.3017 194.318 22.0676 175.727 20.5571 157.483C11.7723 161.031 11.5118 174.878 10.268 182.67C8.46148 193.997 7.54408 205.452 7.21248 216.914C6.66121 235.972 7.96251 254.707 14.8299 272.671C21.2213 289.392 32.0617 303.998 45.3864 315.875C52.2025 321.95 60.117 325.747 68.2334 329.758C71.9919 331.616 76.9879 334.797 81.2391 335.068C85.1806 335.319 88.3355 333.553 92.3398 334.221C95.9331 334.821 98.317 332.658 100.294 336.085C101.64 338.42 101.677 339.626 104.697 337.391C104.875 337.259 103.97 336.371 104.864 335.897C105.376 335.626 108.587 335.8 108.844 335.84C109.611 335.96 109.938 335.661 110.712 335.914C111.561 336.194 111.245 337.658 111.72 337.789C112.835 338.095 114.035 336.713 115.374 336.994C116.65 337.262 117.345 339.072 118.85 339.387C118.388 338.582 118.003 337.741 117.695 336.864C119.872 337.255 122.2 337.653 124.416 337.614C126.753 337.575 128.568 336.529 130.827 336.276C132.7 336.064 134.476 336.745 136.379 336.546C139.046 336.267 141.813 335.08 144.461 334.548C149.654 333.504 154.302 332.271 159.276 330.561C163.334 329.165 164.213 332.982 167.809 332.278C166.396 328.302 168.698 328.064 172.06 327.407C175.51 326.735 178.678 325.44 182.119 324.71C182.993 324.867 183.87 324.893 184.752 324.792C185.619 324.234 186.407 323.579 187.116 322.829C188.737 322.098 190.773 322.757 192.41 322.07C193.8 321.486 194.532 319.612 196.269 319.9C197.813 320.155 198.108 322.085 199.268 322.873C199.268 318.225 202.09 318.137 205.736 317.139C207.685 316.605 210.165 314.434 212.043 314.278C213.41 314.164 214.079 315.596 214.734 315.419C214.454 311.133 222.551 308.816 225.479 307.627C231.28 305.272 237.234 302.789 242.782 299.896C246.112 298.16 249.201 296.329 252.724 294.993C255.096 294.095 256.527 292.699 258.523 291.724C259.729 291.133 261.383 291.608 262.54 290.892C263.176 290.499 263.38 289.436 263.98 288.969C265.705 287.626 267.752 287.047 269.708 286.06C274.078 283.852 272.479 278.479 272.036 274.633C271.318 268.38 271.251 262.002 270.988 255.715C270.447 242.763 268.979 229.901 267.813 216.996C238.971 237.853 204.26 249.197 169.086 253.804C151.973 256.044 132.64 258.996 115.498 255.787C112.032 255.138 103.378 254.015 102.364 250.066C101.44 246.462 106.946 242.106 109.105 240.168C116.397 233.624 123.446 228.669 129.505 220.745C136.459 211.653 142.536 200.96 144.161 189.46C145.278 181.555 143.719 169.39 132.683 171.543C124.069 173.224 126.503 185.044 127.008 191.27C128.268 206.824 116.967 227.14 101.964 232.788C79.3781 241.289 73.2461 203.357 75.5401 188.866C77.2421 178.118 82.4567 166.658 91.6066 160.249C96.9394 156.512 103.773 154.872 110.15 156.235C115.358 157.349 122.936 161.088 127.621 156.417C132.768 151.286 123.887 146.629 121.633 142.531C118.759 137.309 114.298 135.889 108.579 135.108ZM504.893 336C506.436 337.316 506.232 337.266 505.103 339C503.74 337.592 503.607 338.143 504.893 336ZM171.905 328.826C172.289 327.381 170.796 331.749 172.177 331.028C174.059 330.3 173.968 329.565 171.905 328.826ZM755.72 129.135C764.623 145.905 778.703 158.775 784.098 177.448C788.495 192.667 792.873 212.593 784.19 227.114C780.631 233.066 774.6 238.948 767.123 238.208C760.065 237.508 755.284 230.933 751.978 225.286C743.344 210.538 741.087 192.609 741.95 175.782C742.167 171.538 748.826 150.73 743.888 150.334C739.392 149.973 734.785 158.657 732.952 161.849C729.07 168.601 727.298 175.959 728.057 183.741C728.932 192.71 732.579 201.158 735.506 209.587C737.014 213.928 738.25 218.314 739.149 222.824C739.658 225.372 739.408 230.266 741.003 232.359C742.835 234.761 746.219 233.246 747.38 236.465C748.295 239.001 746.336 242.201 744.703 243.947C740.128 248.837 732.085 251.782 725.678 253.054C717.192 254.738 708.057 253.302 699.591 252.116C690.265 250.809 681.042 248.721 672.076 245.832C655.552 240.509 639.591 232.255 628.09 218.927C624.76 234.44 619.482 249.427 615.051 264.637C613.748 269.107 609.189 278.058 612.484 282.263C615.574 286.205 623.105 288.945 627.5 291.047C633.062 293.706 638.891 295.507 644.391 298.406C649.801 301.259 655.088 304.225 660.84 306.354C673.056 310.877 686.049 314.926 698.656 318.206C703.787 319.541 709.169 319.86 714.219 321.512C716.117 322.134 717.822 323.541 719.645 324.104C721.983 324.825 720.182 324.077 722.266 324.037C723.429 324.015 724.452 323.843 725.675 323.977C738.523 325.384 750.557 322.595 762.926 318.901C813.805 303.706 839.059 251.727 851.616 204.056C853.792 195.787 854.708 187.448 854.897 178.919C855.052 171.959 855.468 164.567 853.015 157.918C852.471 156.447 851.173 152.279 849.415 151.669C846.994 150.831 845.824 153.659 844.735 155.44C840.809 161.86 838.899 169.196 837.048 176.424C835.288 183.31 834.643 191.294 831.485 197.697C828.3 204.152 825.731 198.863 825.26 194.076C824.539 186.75 826.009 179.12 825.949 171.749C825.91 166.776 825.615 161.808 825.406 156.84C825.32 154.824 825.694 146.15 823.362 144.984C820.335 143.47 819.489 149.078 819.064 151.099C816.55 163.057 815.616 175.389 813.516 187.43C812.33 194.235 810.852 201.008 809.486 207.78C808.889 210.733 807.499 220.411 803.447 220.772C799.782 221.099 799.659 213.1 799.652 210.46L799.651 210.203C799.642 203.201 800.647 196.239 799.191 189.305C796.308 175.582 790.462 161.422 782.951 149.628C776.13 138.915 769.012 130.471 755.72 129.135ZM520.797 289.226C518.634 287.679 516.196 288.774 513.935 289.299C510.467 290.106 507.659 289.177 504.172 289.002C496.441 288.615 488.233 289.281 480.504 289.776C466.978 290.642 453.598 290.609 439.615 290.559C436.403 290.547 419.519 288.425 418.943 292.781C415.028 289.596 409.597 291.011 405.098 291.701C400.281 292.44 395.786 291.521 390.97 291.643C385.111 291.792 379.25 292.113 373.405 292.564C370.621 292.778 342.572 294.585 343.231 297.866C344.356 303.456 338.915 308.032 348.046 306.706C351.185 306.249 354.232 306.42 357.291 305.688C360.528 304.913 359.796 304.544 362.347 305.816C362.181 305.734 365.836 304.373 365.602 304.365C366.87 304.411 368.088 305.777 369.437 305.596C369.93 305.656 370.424 305.717 370.917 305.778L371.274 304.483C371.682 304.409 372.831 305.397 373.106 305.197C373.001 305.273 374.928 303.248 374.28 303.414C376.328 302.89 376.272 303.813 378.295 304.627C380.26 305.415 382.741 305.081 384.833 304.912C391.039 304.407 396.793 303.014 403.077 303.195C404.588 303.238 406.339 303.532 407.838 303.222C408.275 303.131 408.8 302.299 409.263 302.367C411.777 302.737 410.546 302.051 410.35 304.003C410.354 303.96 413.673 302.556 413.96 301.454C418.011 304.868 422.742 303.415 427.329 302.552C430.243 302.004 433.798 304.41 435.153 301.729C435.879 302.749 436.761 303.61 437.798 304.309C437.944 303.561 438.765 298.849 438.241 299.462L438.242 299.46L438.383 299.301C440.58 296.893 441.368 300.002 442.666 300.988L442.749 301.048C444.314 302.107 446.492 301.783 448.244 301.617C452.835 301.179 454.044 300.256 457.366 303.621C458.187 302.734 458.726 300.646 459.528 299.988C460.913 298.852 461.259 300.398 460.707 302.031C462.54 301.21 463.996 300.569 464.842 302.922C466.663 301.539 468.482 300.156 470.302 298.772C470.872 300.597 471.549 301.875 473.126 299.87C472.059 302.977 475.034 300.763 476.075 300.812C476.464 300.83 476.817 300.211 477.161 300.275C477.478 300.334 477.651 301.304 477.983 301.36C478.501 301.447 478.722 302.553 479.397 302.608C480.124 302.666 479.505 301.25 479.654 301.136C480.662 300.372 480.937 298.04 482.216 297.055C483.878 301.09 484.286 301.997 488.072 298.72C489.95 301.754 491.558 302.206 494.702 300.76C495.621 300.337 496.368 299.075 497.546 299.211C499.114 299.394 497.307 301.615 496.063 301.397C499.167 304.298 504.109 301.781 507.713 301.512C507.493 301.529 510.14 300.938 509.624 301.144C512.805 299.876 515.123 300.598 518.242 301.094C520.272 301.418 521.396 301.625 522.666 299.755C524.41 297.188 523.328 291.038 520.797 289.226ZM327.385 260.815C334.779 252.58 321.59 252.31 322.985 257.757C319.856 253.986 316.482 254.691 311.962 255.106C307.197 255.545 302.438 255.824 297.679 256.305C295.774 256.496 277.622 256.096 278.772 260.941C278.633 260.35 282.27 262.482 281.823 262.301C285.011 263.591 286.808 263.511 288.448 260.137C289.313 261.194 289.392 262.183 289.533 263.491C290.281 262.647 291.159 261.974 292.169 261.471C292.232 262.354 292.295 263.236 292.359 264.119C294.421 261.851 298.78 263.748 301.263 263.722C304.328 263.689 305.875 262.591 308.371 260.865C308.906 261.672 308.071 263.085 308.003 263.88C310.377 262.974 312.896 263.228 315.322 262.63C316.332 262.472 317.274 262.14 318.151 261.636C318.916 260.87 319.456 261.016 319.773 262.077C322.732 262.512 324.724 263.779 327.385 260.815ZM519.765 244.066C515.862 240.569 504.541 243.256 499.831 243.498C492.915 243.854 486.037 244.129 479.125 244.638C472.392 245.134 465.616 244.811 458.838 245.265C455.956 245.457 452.066 244.92 449.33 245.618C446.697 246.288 446.235 247.668 443.218 247.247C437.526 246.451 430.63 246.313 424.936 247.609C424.036 247.814 421.938 249.346 421.224 249.289C420.834 249.258 419.06 247.698 418.203 247.523C415.611 246.993 413.066 248.67 410.394 247.93C408.409 247.381 408.504 249.601 407.583 250.666C405.182 247.018 399.149 247.673 395.468 248.036C390.579 248.519 386.212 249.662 381.42 249.265C375.276 248.758 368.4 249.875 362.265 250.408C358.563 250.73 352.503 250.084 349.139 251.827C344.224 254.373 346.929 260.17 351.342 261.213C354.273 261.906 356.717 260.441 359.547 260.135C361.509 259.921 363.231 260.21 364.806 260.392C367.217 260.671 370.77 260.039 373.334 259.43C376.234 258.741 378.432 258.984 381.401 258.923C384.751 258.855 392.684 259.796 393.883 255.86C396.572 258.968 401.809 254.384 403.536 257.601C405.315 255.655 406.243 257.126 408.329 257.528C408.198 256.479 408.067 255.431 407.935 254.383C410.608 256.895 411.99 256.187 414.145 258.759C415.799 255.964 418.788 258.708 420.209 255.395C421.616 256.53 422.753 257.577 424.634 257.772C424.287 255.833 424.303 254.538 426.21 254.09C428.203 253.624 428.533 255.62 429.664 255.966C430.925 256.352 432.262 255.812 433.324 255.695C433.543 255.671 433.796 256.404 435.392 256.245C436.169 256.166 436.974 255.537 437.634 255.146C439.382 254.109 439.611 252.799 441.629 253.528C442.577 253.87 442.91 255.723 444.727 255.987C449.603 256.697 449.375 252.82 452.102 250.494C451.935 252.097 452.357 253.967 453.629 255.067C457.384 251.796 456.299 254.366 460.121 254.629C461.502 254.723 463.453 252.846 464.584 253.184C466.741 253.828 464.487 255.118 465.766 255.872C467.623 256.969 472.887 254.426 474.602 254.058C478.065 253.314 482.347 252.632 486.336 254.764C486.133 253.575 485.929 252.385 485.725 251.197C488.733 255.32 492.473 254.433 496.892 254.114C498.921 253.967 505.998 254.913 507.124 252.694C508.941 254.925 508.232 252.52 510.267 252.325C512.055 252.153 513.209 253.95 515.617 253.098C518.838 251.955 522.985 246.949 519.765 244.066ZM602.419 247.483C604.605 241.341 602.583 240.001 596.472 240.547C590.707 241.062 584.728 241.686 579.081 241.971C573.054 242.275 565.998 241.549 559.548 241.781C552.181 242.047 544.823 242.554 537.463 242.979C539.042 245.749 541.671 247.593 543.322 250.303C544.405 246.647 548.394 250.398 550.781 250.734C554.633 251.277 558.866 250.246 562.779 250.498C565.518 250.674 566.198 249.595 568.63 249.2C569.238 249.299 569.753 249.561 570.174 249.985C570.614 250.568 571.143 250.535 571.76 249.883C572.418 249.417 573.138 249.083 573.918 248.881C574.531 248.776 575.009 248.967 575.352 249.454C576.737 249.424 575.608 251.329 578.077 249.674C577.097 249.006 575.819 250.052 575.892 248.211C577.476 248.486 577.48 247.242 578.685 246.978C579.19 246.786 579.607 246.46 579.938 246C580.377 246.293 580.755 246.649 581.07 247.069C583.694 247.394 586.955 248.049 589.805 248.461C592.012 248.782 601.34 250.513 602.419 247.483ZM755.54 153.474C754.925 155.836 754.361 158.214 753.687 160.561C749.405 175.475 749.405 191.139 754.641 205.797C757.012 212.437 762.238 225.918 771.611 222.157C783.117 217.54 779.361 201.32 776.948 192.369C773.232 178.593 764.976 164.215 755.54 153.474ZM113.719 169.085C106.646 167.639 100.697 167.334 94.5533 171.732C84.2716 179.095 81.0141 193.685 82.6575 205.626C84.2339 217.074 93.8347 227.491 105.161 218.978C110.693 214.82 115.828 207.625 118.402 201.254C121.604 193.328 119.772 184.575 119.272 176.34C119.05 176.332 119.25 171.331 119.027 170.945C118.077 169.294 115.38 169.425 113.719 169.085ZM439.747 206.173C438.656 199.724 426.03 206.909 423.534 206.533C422.146 206.323 421.558 204.294 419.176 204.264C415.8 204.221 412.166 205.013 408.773 205.206C404.921 205.425 401.094 205.416 397.251 205.489C394.914 205.533 392.812 207.153 390.846 207.22C389.689 207.26 389.21 206.118 388.095 206.01C387.238 205.927 386.465 206.481 385.649 206.531C383.719 206.647 382.045 206.456 380.101 206.357C373.871 206.037 367.149 207.034 360.903 207.362C354.824 207.681 348.704 207.759 342.635 208.201C337.941 208.542 334.193 210.312 329.564 209.971C323.575 209.531 317.383 210.066 311.45 210.97C306.483 211.726 301.62 211.287 296.687 211.738C294.45 211.943 293.233 213.846 291.488 214.111C290.073 214.327 289.063 213.113 287.447 212.863C282.53 212.101 277.47 215.334 272.441 214.722C274.017 218.935 277.219 220.575 281.937 220.62C284.323 220.643 286.38 219.393 288.765 219.242C291.183 219.089 291.645 220.084 293.289 217.609C293.39 219.339 294.938 221.083 296.873 220.397C297.494 220.177 297.804 218.939 297.184 219.115C297.299 219.083 297.374 217.628 298.358 218.179C299.443 218.786 298.14 220.262 299.213 220.996C301.157 220.054 303.34 220.158 305.442 220.213C302.975 220.148 308.51 219.574 309.151 219.867L309.172 219.878L309.381 219.747C310.335 219.128 311.3 218.337 312.352 218.316L312.596 218.325C313.667 218.428 314.193 219.948 315.221 220.066C316.807 220.247 316.59 219.013 318.181 218.497C318.798 218.297 319.998 219.109 320.617 219.204C321.813 218.307 322.521 218.35 322.739 219.334C322.883 219.688 323.039 220.036 323.208 220.378C322.817 220.276 324.111 220.814 324.017 220.774C324.658 221.047 326.667 220.813 327.447 220.667C329.914 220.203 331.803 219.65 334.339 219.481C336.68 219.324 338.873 219.026 340.615 217.281C340.675 218.247 340.815 219.2 341.037 220.142C342.204 219.091 343.372 218.042 344.54 216.991L345.529 219.485C347.862 218.321 347.341 219.307 348.608 219.236C350.177 219.149 351.509 218.972 353.303 218.553C355.562 218.026 358.184 219.036 360.322 218.494C361.694 218.148 362.217 216.47 363.089 216.259C365.636 215.642 364.548 217.853 366.399 218.286C367.786 218.61 368.336 217.425 369.73 217.159C371.365 216.847 372.43 217.707 374.113 216.948C374.398 216.821 376.263 215.401 376.126 215.389C377.141 215.479 377.828 217.109 378.85 217.505C380.453 218.128 380.748 217.781 382.247 217.521C385.331 216.987 386.738 216.937 388.075 214.068C389.71 215.341 387.88 216.446 387.807 217.879C387.723 218.094 397.492 213.09 398.633 212.014L398.66 211.985L398.634 212.063C398.034 213.836 397.216 217.002 399.868 217.314L400.058 217.331C401.512 217.422 402.196 215.798 403.257 214.747C407.694 210.353 407.255 216.941 411.616 215.509C413.522 214.884 413.352 213.15 416.004 213.892C417.487 214.307 416.171 215.212 418.116 215.284C418.709 215.306 419.986 214.159 420.77 214.069C421.285 214.01 420.694 215.774 421.924 215.559C422.729 215.417 423.528 213.757 424.295 213.794C425.749 213.862 424.515 214.852 425.376 215.327C426.331 215.855 427.436 216.909 428.613 217.497C428.696 216.624 428.779 215.75 428.863 214.877C429.169 215.138 430.488 216.989 430.879 216.785C431.002 216.721 433.641 214.79 430.687 215.603C431.19 213.276 433.676 212.393 435.443 211.243C434.645 217.574 439.288 212.449 440.589 217.186C442.058 216.128 442.114 215.083 442.223 213.384C444.804 214.477 446.381 216.533 449.301 215.948C451.03 215.603 450.448 213.902 453.237 214.798C455.286 215.456 455.549 217.072 457.753 215.98C458.512 215.603 460.42 213.132 460.687 212.282L460.687 212.282L460.768 212.513C462.212 216.355 466.982 215.472 470.277 215.247L470.469 215.235C473.961 215.023 476.056 216.939 477.788 214.225C479.174 215.92 486.947 218.13 484.618 214.037C489.347 215.987 494.109 215.979 499.066 215.174C499.762 215.061 501.007 214.409 501.703 214.578C502.713 214.825 502.588 215.337 503.172 215.533C503.653 215.697 503.998 216.322 504.804 216.516C505.697 216.731 506.873 216.119 507.75 215.969C509.877 215.609 512.694 214.763 514.874 215.103C517.088 215.449 517.598 216.16 519.915 215.912C522.953 215.587 524.393 216.326 525.05 212.849C526.517 214.11 524.817 214.541 526.931 215.662C528.34 216.409 531.252 216.193 532.804 216.054C533.409 215.918 533.8 215.548 533.978 214.945C534.566 215.542 535.251 215.748 536.035 215.562C537.46 215.009 537.584 215.954 538.189 213.76C540.968 216.69 542.265 214.309 545.302 214.177C548.171 214.053 548.043 216.395 550.308 216.66C550.129 216.639 552.053 215.34 551.977 215.381C555.25 213.635 554.465 212.218 557.279 214.351C560.232 216.59 558.656 215.28 562.31 214.553C565.796 213.858 574.856 218.812 575.647 214.857C578.911 218.658 581.871 214.276 584.749 215.147C585.279 215.307 585.373 216.667 586.27 216.767C587.297 216.881 587.324 215.928 587.955 215.927C589.689 215.926 589.294 214.322 591.403 216.894C593.351 214.811 593.434 214.501 595.406 214.811C597.468 215.135 599.692 217.654 602.708 216.634C601.718 216.313 601.031 215.673 600.644 214.713C602.649 214.279 601.709 215.806 602.537 215.878C603.244 215.94 606.095 216.21 606.765 216.427C609.384 217.276 612.864 215.902 613.628 213.114C614.619 209.498 612.49 210.365 609.977 209.61C609.751 211.689 611.78 213.995 608.687 214.723L607.863 209.684C605.629 211.055 605.189 209.994 603.074 210.007C600.555 210.02 598.935 211.69 596.543 211.994C596.972 210.417 598.111 209.539 599.234 208.464C594.797 209.196 590.461 207.63 586.073 207.287C586.374 208.282 586.674 209.277 586.974 210.272C584.13 207.103 579.487 206.992 575.556 206.963C571.909 206.937 568.362 206.402 564.735 206.291C560.389 206.158 556.002 206.761 551.647 206.503C549.221 206.36 546.914 205.833 544.474 205.897C541.309 205.98 542.527 206.217 540.727 207.831L540.759 207.801L540.762 207.792C540.725 207.489 538.012 205.597 537.463 205.383L537.412 205.367C535.636 204.958 533.583 205.411 531.808 205.513C527.823 205.741 523.985 205.388 520.012 205.012C510.421 204.104 500.515 203.74 490.886 204.133C481.423 204.52 471.852 203.552 462.452 204.638C455.136 205.483 446.32 201.674 439.747 206.173ZM578.961 215.949C577.239 213.81 577.831 212.835 580.741 213.023C581.399 215.267 580.805 216.242 578.961 215.949ZM435.11 163.063C415.566 163.127 395.754 162.125 376.281 164.066C366.805 165.011 357.257 165.302 347.747 165.846C344.777 166.016 332.786 165.655 331.699 169.512C328.969 166.372 328.877 169.816 328.17 172.141C326.269 166.687 320.281 172.434 318.088 174.85C318.406 174.5 322.681 176.756 323.363 176.848C325.13 177.087 327.233 176.654 328.879 176.528C329.28 176.893 329.73 177.164 330.228 177.343C330.82 177.716 331.145 177.353 331.204 176.257C331.35 175.821 331.496 175.386 331.643 174.949C332.256 175.247 332.855 175.28 333.439 175.047C335.928 174.527 336.06 175.347 338.223 176.763C338.776 175.904 339.329 175.045 339.882 174.185C340.33 174.977 340.778 175.769 341.227 176.561C342.931 172.106 344.037 174.906 346.895 175.995C350.196 177.251 353.222 175.406 356.541 175.166C357.37 175.039 358.199 175.08 359.029 175.287C360.276 175.154 361.311 175.565 362.135 176.52C362.842 176.417 364.038 174.712 364.865 174.462C366.756 173.89 367.537 174.934 369.144 173.223C368.951 174.103 368.757 174.983 368.563 175.864C370.294 175.014 373.807 174.703 374.576 173.064L374.571 173.073L374.555 173.109C374.336 173.59 373.172 176.277 373.506 176.514L373.551 176.53C375.046 176.667 376.17 173.753 376.27 172.706C379.626 177.671 390.589 173.847 395.276 174.109C399.4 174.339 402.699 174.976 406.654 173.693C408.152 173.206 409.483 172.221 410.673 172.809C411.862 173.399 409.768 175.046 412.188 175.386C411.5 171.007 415.244 171.62 418.081 172.823C417.095 172.942 416.108 173.064 415.123 173.183C418.089 175.447 419.238 173.035 422.124 172.838C423.687 172.732 424.483 173.198 425.623 172.758C425.842 172.673 425.316 171.427 426.055 171.275C427.353 171.009 428.052 171.64 429.111 172.119C431.793 173.333 432.795 174.678 435.973 174.521C439.28 174.359 441.482 173.555 444.798 174.195C447.446 174.706 449.194 175.079 451.978 174.84C458.044 174.323 463.087 175.176 468.996 172.986C468.848 176.05 474.135 174.592 475.791 174.62C476.792 174.636 477.305 175.312 478.249 175.294C478.687 175.287 480.123 174.629 480.492 174.488C480.705 174.405 482.502 174.139 482.465 174.146C482.616 174.12 482.85 172.649 483.23 172.752C485.079 175.253 485.836 173.472 488.171 173.55C490.045 173.61 491.771 175.165 493.681 175.413C496.455 175.774 499.328 174.581 502.139 174.728C503.763 174.812 506.137 176.156 507.068 176.143C508.773 176.118 508.379 174.56 510.519 174.742C511.902 174.861 513.665 175.349 515.025 175.457C515.062 175.46 516.994 175.04 517.19 175.031C517.77 176.446 518.455 176.549 519.248 175.342C519.84 174.679 520.194 173.906 520.309 173.023C523.084 177.174 531.376 174.521 535.352 174.163C540.959 173.659 545.745 175.88 550.263 171.895C550.344 172.515 551.098 175.18 551.903 175.062C552.838 174.926 552.019 172.223 552.044 171.817C553.534 172.81 555.083 173.938 556.932 174.019C558.146 174.073 559.111 173.206 560.242 173.145C560.003 173.158 562.386 173.483 561.537 173.812C562.955 173.262 564.617 169.789 562.47 168.66C560.867 167.816 561.579 169.684 560.381 169.425C559.336 169.199 557.841 167.137 556.473 166.517C552.78 164.845 548.064 165.614 544.128 165.608C523.932 165.576 503.75 164.758 483.558 164.832C478.993 164.848 474.601 164.48 470.075 163.961C466.294 163.528 463.885 164.541 460.211 165.081C456.079 165.688 451.819 164.026 447.764 163.434C443.563 162.82 439.342 163.049 435.11 163.063ZM378.233 171.199C381.81 173.616 380.029 169.68 383 171.496C382.18 172.371 381.269 173.15 380.265 173.834C378.721 174.648 377.463 172.264 378.233 171.199ZM423.992 115.373C417.863 114.132 417.136 116.433 416.734 122.377C416.314 128.576 415.299 133.767 409.283 136.937C405.157 139.111 402.601 139.244 401.675 134.568C396.909 135.596 392.143 136.624 387.377 137.652C395.785 150.127 415.219 156.075 429.281 156.322C438.002 156.476 446.93 156.326 455.35 153.786C459.01 152.682 462.351 151.047 465.702 149.225C466.469 148.808 473.693 145.308 473.613 144.067C473.502 142.416 468.286 143.076 467.284 142.987C464.697 142.758 462.501 141.623 460.163 140.568C455.617 138.516 450.951 136.325 447.452 132.656C444.011 129.047 443.168 125.446 442.796 120.704C442.426 115.968 440.805 115.265 436.202 115.392C431.889 115.511 428.271 116.239 423.992 115.373ZM512.026 139.216C507.692 139.431 501.532 138.18 497.41 139.176C496.41 139.417 496.204 140.206 495.161 140.427C493.941 140.685 494.517 138.429 492.621 140.124C490.542 141.983 490.335 144.958 488.913 147.222C489.714 147.471 490.766 146.599 491.181 146.707C491.495 146.789 493.523 147.605 493.577 147.6C495.654 147.407 496.44 146.554 497.595 144.833C500.499 147.414 503.897 148.147 507.719 148.045C510.583 147.969 513.33 146.439 515.916 146.83C515.998 147.362 516.26 147.775 516.706 148.068C517.618 148.239 518.533 148.253 519.453 148.111C521.312 148.13 522.981 147.75 524.86 147.953C527.282 148.216 529.481 149.419 528.04 145.883C525.649 140.01 517.045 138.968 512.026 139.216ZM370.122 143.704C368.852 149.502 374.913 146.265 374.097 143.893C372.885 145.387 371.409 144.272 370.122 143.704ZM365.47 144.027C365.747 146.861 366.375 147.671 369.048 146.26C368.854 145.962 368.66 145.665 368.466 145.367C366.999 146.349 366.776 144.052 365.47 144.027ZM378.434 144.751C377.086 143.917 375.831 144.037 374.665 145.113C374.655 145.11 381.136 146.578 378.434 144.751ZM442.876 33.4676C438.529 29.3286 430.743 34.0132 426.055 35.1789C419.352 36.8473 412.671 38.0559 406.069 40.14C401.332 41.6367 395.328 42.5217 393.003 47.5027C390.547 52.7613 393.284 60.4884 389.251 65.0463C387.222 67.3389 378.601 67.6343 379.521 72.1513C380.172 75.3457 385.538 73.5788 387.767 74.0449C394.357 75.419 388.144 80.443 390.158 84.0133C390.937 85.3947 391.463 84.5631 392.397 85.1507C393.284 85.7089 393.967 86.0639 394.899 87.1793C396.748 89.3902 398.188 92.2106 400.413 94.078C417.361 108.298 449.707 115.055 466.608 97.2189C470.787 92.8076 475.309 86.0943 473.205 80.0199C471.855 76.1186 472.216 75.5855 473.761 71.5031C475.331 67.3536 476.057 63.2994 475.226 58.8871C474.598 55.5534 471.815 52.3445 471.471 49.1438C471.115 45.8417 472.811 46.0501 475.46 45.384C480.657 44.0759 489.211 41.3487 492.082 36.3561C486.908 35.2574 481.395 39.5473 476.46 40.5433C471.123 41.6199 465.618 41.5382 460.216 41.1099C454.969 40.693 449.602 40.1097 444.538 38.6141C440.067 37.2945 436.168 34.9569 442.876 33.4676ZM434.469 55.0005L434.63 55.0045C436.732 55.1612 437.626 60.8546 438.279 62.5149C440.804 68.9377 445.869 75.8275 444.872 83.0663C444.564 85.3034 443.455 88.7901 441.578 90.1578C439.084 91.9769 434.777 90.8087 436.727 87.0431C439.004 82.6452 435.624 77.6613 434.26 73.509C432.993 69.6576 431.913 65.5022 432.006 61.422C432.037 60.0689 432.216 54.8248 434.63 55.0045L434.469 55.0005ZM404.905 57C407.581 60.0543 406.121 66.4816 410.9 67.8081C413.745 68.5984 415.21 66.4719 416.482 64.2762L416.797 63.7274C417.144 63.1198 417.484 62.5251 417.842 62.0044C420.325 58.3921 423.341 57.9602 422.969 63.1372C422.729 66.4678 420.558 70.1965 418.793 72.9767C410.935 85.3475 398.148 66.0761 404.905 57ZM420.555 1.41481C421.779 3.3023 425.944 5.98715 428.112 6.5883C429.478 6.96715 430.776 7.38988 432.061 7.81606L432.83 8.07186C432.958 8.11445 433.086 8.157 433.215 8.19946L433.984 8.45285C438.352 9.87918 442.88 11.1115 449.721 10.5605C452.196 10.3611 480.01 4.80287 480.891 7.12439C481.788 9.48835 484.652 16.1312 487.539 15.2857C496.317 12.7147 512.078 13.1081 508.727 28.7073C501.692 61.4661 496.789 52.1821 494.262 54.7679C462.052 87.7296 482.532 50.2898 479.867 47.589C477.487 45.1768 477 36.6571 472.325 34.9986C454.429 28.6505 440.094 24.4658 422.747 32.0267C412.395 36.5382 401.957 41.0906 392.458 47.1958C387.609 50.3122 386.687 54.3326 386.063 58.0429L385.969 58.611C385.056 64.171 384.399 68.8785 371.434 68.5293L368.611 65.2859C369.487 37.0177 370.599 31.5646 397.673 9.15562C398.828 8.19982 397.723 10.4683 396.704 12.9515L396.525 13.3914C395.583 15.7425 394.838 18.127 396.246 18.0359C397.634 17.946 401.764 13.1362 406.307 8.51843L406.915 7.90429C412.302 2.49709 418.118 -2.34101 420.555 1.41481ZM454.649 55.4731C457.738 53.2871 458.839 59.2935 458.968 60.9227C459.492 67.4982 453.496 78.6142 446.001 71.9401C442.956 69.2281 441.007 65.4848 441 61.3901C440.996 59.3274 441.291 55.468 444.229 56.5949C446.642 57.5204 450.095 69.3031 453.68 61.7065C454.42 60.14 453.096 56.5713 454.649 55.4731Z" fill="black"/>
</g>
<defs>
<clipPath id="clip0_6010:3">
<rect width="863" height="562" fill="white"/>
</clipPath>
</defs>
</svg>
