<svg width="966" height="674" viewBox="0 0 966 674" fill="none" xmlns="http://www.w3.org/2000/svg">
<path fill-rule="evenodd" clip-rule="evenodd" d="M586.596 437.259C585.08 457.947 554.905 468.703 536.602 473.117C540.271 452.821 545.009 431.783 542.061 411.2C541.091 404.421 539.817 397.677 538.45 390.958C537.944 388.474 537.422 385.992 536.882 383.514C536.751 382.911 535.689 380.273 536.027 379.673C536.632 378.598 541.751 378.766 543.056 378.813C546.417 378.933 549.716 379.724 552.792 380.973C559.256 383.599 564.702 388.12 569.189 393.109C579.772 404.876 587.74 421.659 586.596 437.259ZM551.661 296.63C534.143 306.28 513.042 311.459 493.062 313.983C462.625 317.829 431.546 313.402 401.789 307.268C394.482 305.761 387.191 304.138 379.993 302.233C379.668 321.851 385.601 340.508 397.188 356.87C406.769 370.397 419.271 381.703 430.199 394.233C440.372 405.897 448.576 419.055 448.984 434.45C449.154 440.876 448.586 446.755 442.803 450.918C436.993 455.102 429.144 456.654 422.033 457.607C404.227 459.994 385.579 458.705 367.885 456.076C364.45 455.566 361.021 454.985 357.63 454.259C353.781 453.434 352.432 452.462 349.216 455.151C342.278 460.952 339.095 469.653 337.524 477.976C334.579 493.564 335.577 511.748 339.823 527.128C343.913 541.943 363.216 550.153 377.517 553.734C420.65 564.533 468.241 549.619 501.338 523.07C502.059 522.49 502.775 521.904 503.473 521.3C505.825 525.854 508.392 530.328 511.197 534.653C513.149 537.663 515.203 540.687 517.665 543.365C518.553 544.332 519.597 545.638 520.812 546.272C523.073 547.45 525.374 546.584 527.934 546.17C546.825 543.119 565.672 539.106 583.634 532.785C610.941 523.178 635.432 507.349 648.375 482.346C654.914 469.716 658.323 455.879 659.972 442.001C661.866 426.067 662.275 409.779 657.455 394.248C648.623 365.788 626.089 342.715 601.412 324.92C586.142 313.909 569.355 303.958 551.661 296.63Z" fill="#FF788F"/>
<path fill-rule="evenodd" clip-rule="evenodd" d="M860.325 108.167C856.333 109.643 852.034 110.053 847.787 110.342C844.455 110.568 841.839 111.811 838.701 111.881C829.959 112.075 821.18 112.441 812.481 113.656C803.745 114.877 795.697 113.282 788.798 119.389C786.343 121.562 783.265 124.061 784.741 127.568C785.417 129.175 786.371 130.327 786.933 132.051C787.569 134.001 788.359 135.842 789.278 137.697C791.042 141.257 799.874 154.514 792.707 156.136C784.937 157.894 774.4 155.839 766.915 153.829C762.548 152.655 758.25 151.28 753.947 149.925C750.54 148.852 746.063 148.244 742.923 146.564C740.841 145.449 740.41 143.547 739.033 141.739C736.53 138.45 734.19 135.649 730.955 132.913C724.243 127.238 715.852 123.385 707.578 119.997C707.044 119.778 706.069 119.265 705.492 119.215C704.869 119.161 704.184 119.758 703.781 119.685C702.678 119.486 702.293 118.84 701.086 118.202C699.463 117.345 692.85 114.494 691.693 116.736C692.775 113.791 693.565 114.641 696.495 115.068C697.785 115.257 698.648 114.707 699.807 114.762C700.876 114.813 701.314 115.378 702.206 115.531C703.841 115.81 705.364 115.6 707.071 115.588C707.529 114.647 708.18 114.654 709.022 115.609C709.493 115.751 709.963 115.892 710.434 116.035C712.134 116.468 713.95 116.386 715.69 116.513C718.304 116.705 725.114 119.67 726.425 116.67C727.824 113.465 723.576 112.667 722.868 110.431C722.177 108.237 725.413 106.949 726.712 105.625C728.191 104.118 729.095 102.796 730.83 101.469C731.847 100.69 733.18 99.9633 733.934 98.9257C734.627 97.9708 734.597 96.4272 735.497 95.6315C736.57 94.683 736.735 95.3395 737.71 94.8812C739.622 93.9812 738.778 94.0266 739.909 92.7964C740.876 91.7445 741.59 91.7764 742.856 90.9703C744.708 89.7903 745.36 87.4844 747.161 86.216C748.478 85.2875 750.575 85.2891 751.731 84.3247C752.412 83.7565 752.202 82.8359 752.79 82.2996C753.92 81.2692 754.694 81.6877 756.104 81.348C758.483 80.7751 759.252 79.5521 761.003 78.1358C762.603 76.8428 763.618 76.8483 765.621 76.312C768.356 75.58 770.123 73.6624 772.592 72.5357C774.916 71.4758 777.316 70.7326 779.667 69.6035C781.365 68.7879 783.001 68.2819 784.55 67.4496C785.074 67.1687 785.119 66.1399 785.795 66.0006C786.57 65.8399 787.19 67.039 788.015 67.1019C789.744 67.234 791.712 65.45 792.847 64.4172C793.341 63.9684 794.008 62.755 794.643 62.5043C795.971 61.9792 796.763 63.0192 797.947 62.6086C799.608 62.0325 798.948 60.3456 799.966 59.4155C800.856 58.6039 802.746 58.6588 804.327 58.9158C810.695 59.9486 800.784 64.1339 798.921 64.9805C795.786 66.4064 772.977 76.7791 778.313 81.9519C781.136 84.6883 788.029 82.6306 791.098 81.9097C796.479 80.6454 802.087 78.2114 807.605 77.6528C808.288 77.5836 810.323 78.0379 810.878 77.8398C812.132 77.3934 811.819 76.5006 812.838 76.0312C814.373 75.3262 817.508 75.3604 819.065 75.5187C820.283 75.6429 821.617 76.3192 822.855 76.2277C824.22 76.1266 825.538 75.3882 826.891 75.1503C829.206 74.7445 831.603 74.9434 833.942 75.0063C837.305 75.0978 844.028 75.5704 839.142 79.7272C835.188 83.0913 828.346 84.5475 823.357 86.0155C815.978 88.1854 808.728 90.1595 801.444 92.6317C796.479 94.3154 785.891 97.273 791.801 103.584C792.384 103.072 792.967 102.56 793.549 102.048C794.239 102.696 794.951 103.958 796.055 103.995C796.973 104.025 796.636 103.107 797.504 102.82C800.234 101.919 803.975 101.988 806.853 101.818C814.064 101.393 821.248 100.504 828.468 100.229C835.267 99.9696 842.138 100.307 848.805 101.633C850.52 101.975 866.507 105.881 860.325 108.167ZM801.363 173.066C801.725 175.884 800.382 178.163 800.009 180.884C799.558 184.174 799.888 187.072 798.885 190.343C796.936 196.701 795.551 203.206 793.459 209.527C789.766 220.688 783.804 230.545 777.672 240.672C774.544 245.836 769.834 250.099 765.529 254.418C761.118 258.844 757.594 263.2 752.32 266.834C741.782 274.097 730.411 280.557 717.936 284.481C704.877 288.589 691.145 289.833 677.429 289.311C671.341 289.079 664.89 289.653 658.899 288.737C652.529 287.762 645.627 286.566 639.366 285.127C627.874 282.488 616.802 278.007 605.579 274.005C593.045 269.536 581.762 263.831 570.332 257.386C567.308 255.681 564.112 254.884 561.277 252.82C558.886 251.082 556.534 249.419 554.02 247.83C551.134 246.008 548.372 244.016 545.424 242.284C543.662 241.249 541.185 240.236 540.26 238.362C538.988 235.785 540.521 232.548 541.314 230.048C542.346 226.794 543.444 223.58 544.685 220.39C546.785 214.989 552.131 206.657 549.191 200.946C542.992 204.52 540.258 211.543 537.609 217.514C534.443 224.646 532.234 231.762 531.757 239.498C530.798 255.06 533.597 271.439 539.666 285.95C540.568 288.104 542.152 290.441 540.987 292.747C539.766 295.165 536.451 297.209 533.903 298.254C525.841 301.563 517.749 302.526 509.33 304.356C507.037 304.854 504.528 306.35 502.377 306.538C500.925 306.666 499.725 306.222 498.062 306.233C496.393 306.244 495.087 307.114 493.592 307.207C492.288 307.289 491.13 306.579 489.886 306.646C487.103 306.796 486.589 311.234 485.21 307.328C484.96 307.488 483.578 308.945 483.404 308.945C483.01 308.947 482.317 307.86 481.941 307.667C481.209 307.289 480.246 307.268 479.428 307.169C477.623 306.951 475.676 306.929 473.899 307.314C470.603 308.029 467.288 307.728 464.47 307.676C463.829 307.664 463.375 308.145 462.577 308.116C462.214 308.103 461.691 307.505 461.306 307.413C459.078 306.878 456.765 307.277 454.495 307.16C449.163 306.887 444.014 306.755 438.807 305.658C428.136 303.41 417.256 302.96 406.543 300.905C401.084 299.858 395.752 299.286 390.378 297.906C388.49 297.42 386.553 297.191 384.88 296.529C383.282 295.897 383.911 295.054 381.431 296.746C380.316 294.206 380.184 294.464 377.495 293.624C376.454 293.299 374.064 292.491 373.289 291.851C373.212 291.788 371.556 287.92 371.414 287.445C370.724 285.135 371.299 282.494 371.587 280.169C372.236 274.928 373.176 269.728 373.232 264.445C373.256 262.115 373.708 262.048 374.487 260.292C374.727 259.747 375.436 259.79 375.495 258.961C375.575 257.857 374.36 257.088 374.491 255.798C374.666 254.062 376.539 252.304 377.197 250.686C377.987 248.738 377.976 246.679 378.449 244.663C379.079 241.981 380.298 239.464 380.913 236.771C381.436 234.49 381.485 232.676 382.791 230.719C384.097 228.765 383.713 227.17 384.753 225.225C385.708 223.441 386.916 222.8 387.569 220.645C389.152 215.434 391.558 210.273 394.965 205.854C397.962 216.934 401.15 228.381 409.496 237.139C412.933 240.745 417.371 244.384 422.553 245.482C428.413 246.724 433.1 243.509 436.916 239.7C446.008 230.623 449.774 220.491 450.323 208.183C450.46 205.125 450.44 202.06 450.395 198.999C450.375 197.637 449.624 194.141 450.628 192.996C451.728 191.74 454.867 192.525 456.501 191.696C458.51 190.677 460.717 187.95 459.821 185.702C465.175 187.958 470.295 190.926 476.249 191.555C478.607 191.804 481.117 191.425 483.226 191.32C483.163 191.323 484.858 191.645 484.96 191.666C485.377 191.217 485.83 191.108 486.317 191.339C486.75 191.381 487.065 191.598 487.263 191.988C495.75 192.777 504.297 188.876 511.561 184.743C515.806 182.328 520.467 178.753 521.659 174.052C522.084 172.375 521.716 170.794 523.581 169.938C525.095 169.242 528.019 170.246 529.617 170.355C535.238 170.739 540.778 170.242 546.267 171.801C549.616 172.752 555.462 179.417 557.798 174.728C558.811 175.613 558.261 177.189 559.34 178.05C560.28 178.8 563.441 179.328 564.741 179.97C566.755 180.964 567.936 182.287 569.699 183.481C571.865 184.949 574.133 185.062 576.23 186.785C583.492 192.751 592 197.072 600.109 202.02C609.73 207.89 618.245 214.808 628.569 219.596C639.128 224.491 649.345 228.581 660.883 231.128C666.117 232.283 671.484 233.248 676.857 233.604C679.391 233.771 681.809 233.687 684.254 234.394C685.738 234.824 686.218 235.039 687.677 235.079C688.527 235.102 689.757 234.645 690.804 234.662C692.954 234.699 694.052 234.616 695.993 235.278C698.188 236.026 700.013 236.477 702.513 236.541C705.389 236.616 707.082 235.589 709.694 234.955C711.8 234.444 713.696 234.688 715.58 233.627C723.955 228.914 730.684 221.717 735.076 213.546C740.119 204.169 744.003 192.738 744.793 182.229C745.246 176.214 743.819 170.348 741.35 164.826C740.653 163.268 736.472 156.633 737.76 155.427C739.222 154.058 744.003 157.197 745.351 157.879C749.627 160.041 757.351 160.734 760.349 164.371C761.112 163.008 765.357 165.028 766.72 165.597C767.846 166.067 768.166 166.918 769.583 167.02C770.919 167.115 772.297 166.124 773.524 165.809C772.628 168.137 775.643 168.246 777.71 168.369C779.198 168.458 780.798 168.24 782.124 168.153C784.66 167.985 784.701 167.455 787.018 166.245C786.928 167.131 787.031 167.996 787.327 168.841C788.816 166.835 791.657 168.228 793.669 167.347C792.215 165.294 798.423 164.732 799.869 165.163C803.509 166.251 801.041 170.57 801.363 173.066ZM516.364 314.155C518.765 313.489 521.182 312.88 523.591 312.243C521.767 313.801 519.871 316.613 517.265 317.051C514.122 317.579 512.885 315.12 516.364 314.155ZM397.798 315.271C401.841 315.721 406.244 315.377 409.788 317.598C408.061 319.446 406.939 321.381 404.058 320.321C401.637 319.431 399.644 316.893 397.798 315.271ZM532.878 416.484C530.223 414.269 530.572 413.278 531.819 410.411C532.356 409.177 533.205 405.344 535.219 406.467C535.934 406.865 536.8 411.042 536.928 411.89C537.213 413.782 535.955 419.052 532.878 416.484ZM547.851 403.621C546.913 400.414 546.946 396.923 546.024 393.638C545.051 390.169 543.855 386.689 543.51 383.103C557.538 385.408 565.505 398.361 571.582 409.169C574.81 414.912 577.975 421.264 579.193 427.684C580.381 433.941 578.32 438.691 575.925 444.267C574.704 447.114 572.686 448.101 570.33 449.982C568.243 451.648 567.46 454.46 565.286 455.958C563.679 457.064 561.59 457.638 559.91 458.755C558.25 459.858 556.589 460.952 554.876 461.983C552.917 463.16 547.047 467.453 544.403 466.537C542.423 465.851 543.305 463.598 543.804 462.185C544.854 459.207 545.592 456.338 546.24 453.233C547.971 444.949 548.909 436.715 549.358 428.288C549.796 420.06 550.204 411.653 547.851 403.621ZM536.119 440.989C536.329 441.397 537.205 444.875 535.25 444.16C533.891 443.663 535.92 441.628 536.119 440.989ZM544.383 302.896C546.039 302.26 546.701 304.142 548.158 304.199C550.09 304.273 550.495 302.274 552.523 302.215C557.48 302.07 564.663 306.527 568.694 308.853C566.72 311.174 565.906 313.548 566.887 316.406C567.753 318.924 571.055 321.739 570.934 324.407C570.81 327.082 567.236 328.805 566.121 331.185C565.097 333.371 564.706 337.743 567.869 338.707C573.308 340.365 574.552 330.887 578.674 330.813C580.436 330.782 582.726 333.865 583.993 334.824C586.832 336.974 590.033 338.543 593.333 339.971C595.562 340.934 598.664 342.831 600.315 340.243C601.639 338.17 600.558 334.884 599.271 333.1C597.795 331.054 584.566 321.686 585.401 320.861C585.846 320.421 589.14 321.634 589.607 322.003C590.661 322.833 591.049 324.185 592.107 325.07C593.72 326.42 595.805 326.955 597.8 327.58C601.964 328.881 604.6 333.461 608.635 335.593C610.964 336.823 612.385 339.184 614.354 341.013C616.932 343.408 619.559 345.916 619.172 349.442C618.903 351.885 618.512 357.576 617.028 359.637C615.415 361.874 612.733 361.016 610.284 361.545C607.528 362.139 605.324 364.139 605.872 366.997C606.442 369.967 608.996 370.18 611.664 370.254C619.188 370.466 616.417 374.911 619.041 379.793C620.466 382.444 622.844 383.485 624.481 380.382C625.798 377.885 623.445 373.949 624.875 371.817C626.616 369.219 635.938 369.926 637.882 371.944C639.355 373.474 640.137 375.578 641.606 377.179C643.837 379.609 644.753 383.016 646.091 385.996C647.513 389.16 648.752 392.369 649.84 395.647C650.605 397.949 652.256 401.595 648.303 399.629C645.542 398.256 643.48 395.158 639.982 395.06C636.521 394.963 634.55 398.306 635.561 401.214C636.538 404.028 640.999 405.267 641.516 408.12C642.083 411.241 636.338 414.425 634.593 416.72C630.576 422.003 633.936 427.952 640.52 423.466C642.854 421.877 645.299 418.67 647.931 417.666C652.097 416.076 652.072 421.966 654.067 424.133C655.142 425.299 655.529 424.114 654.893 425.857C654.658 426.499 653.469 426.7 653.335 427.499C653.239 428.084 653.802 428.394 653.822 428.847C653.888 430.383 653.891 430.609 653.52 432.278C653.11 434.128 653.258 436.427 653.135 438.308C652.851 442.606 652.79 446.71 652.305 451.006C652.036 453.396 651.471 458.268 654.505 459.433C653.426 461.007 651.987 465.387 649.865 465.057C650.037 466.094 649.941 467.418 651.023 468.096C651.282 467.463 651.541 466.832 651.799 466.199C652.393 467.644 651.87 467.81 651.835 468.795C651.879 467.576 650.64 470.493 651.31 470.132C650.74 470.575 649.99 470.828 649.133 471.402C647.937 472.203 647.307 473.309 646.378 474.392C644.698 476.349 644.796 478.326 643.325 480.367C641.238 483.263 638.561 486.121 636.363 489.014C634.574 491.369 631.163 492.728 629.729 495.26C628.817 496.87 628.454 498.742 626.898 499.875C624.67 501.496 621.69 503.025 619.27 504.7C617.748 505.752 616.59 507.213 615.071 508.235C614.302 508.753 611.986 509.277 611.983 510.332C609.068 509.572 607.005 506.803 604.713 505.117C603.182 503.991 599.535 502.527 599.755 500.27C599.936 498.423 602.758 496.132 603.408 494.195C603.96 492.554 604.728 489.493 603.203 488.091C600.003 485.151 596.375 491.462 594.657 493.141C591.113 496.607 589.608 493.113 586.694 490.597C582.04 486.578 579.115 490.747 580.753 495.751C581.583 498.285 584.743 500.544 584.947 503.131C585.172 505.974 581.862 507.402 580.551 509.674C579.314 511.816 578.742 515.578 581.068 517.351C583.633 519.307 585.863 516.993 587.541 515.188C588.843 513.786 590.291 510.702 592.407 510.526C595.058 510.308 599.405 514.787 601.422 516.169C598.358 516.994 596.514 519.381 593.923 520.91C590.58 522.883 585.914 523.35 582.173 524.704C578.649 525.98 575.479 527.02 572.123 528.603C568.141 530.481 563.27 530.95 559.053 532.318C555.289 533.54 551.718 535.253 547.873 536.261C543.539 537.398 539.042 538.081 534.671 539.109C530.935 539.986 526.552 540.83 522.702 540.837C518.806 540.843 518.887 538.599 517.642 535.61C516.162 532.059 513.711 528.942 512.148 525.477C510.661 522.182 512.907 520.93 515.061 518.409C517.09 516.032 516.553 515.66 519.17 517.329C522.616 519.525 524.891 518.039 527.571 515.514C529.956 513.269 530.831 511.403 534.262 512.967C537.696 514.53 540.967 517.076 544.655 518.096C547.561 518.9 549.727 518.316 550.213 515.358C550.739 512.163 548.78 509.895 546.312 507.997C544.433 506.554 540.328 504.841 539.641 502.499C538.918 500.031 542.729 496.431 543.136 493.671C543.65 490.188 542.037 487.627 538.485 490.038C535.907 491.787 534.192 495.581 530.614 495.816C531.608 491.938 533.763 488.492 535.612 484.938C537.162 481.963 538.491 478.586 542.651 478.254C544.001 478.146 544.878 478.278 546.164 478.062C547.864 477.777 550.169 477.551 551.986 477.125C556.26 476.12 560.034 473.05 563.969 471.29C564.872 473.549 566.468 479.983 570.142 476.226C572.86 473.448 569.849 468.666 572.353 465.575C577.518 459.198 588.767 463.88 595.552 460.592C598.506 459.16 600.911 454.596 596.745 453.219C594.312 452.415 587.284 455.383 585.82 453.195C584.777 451.634 589.151 445.536 589.679 443.86C591.324 438.643 591.057 433.228 591.057 427.855C594.359 429.112 598.537 432.053 602.095 432.456C605.754 432.87 606.397 428.873 605.438 426.248C604.117 422.632 599.714 419.668 596.697 417.338C595.366 416.311 591.883 414.658 591.153 413.097C590.4 411.485 591.479 410.704 592.324 409.303C593.645 407.113 596.844 401.454 593.363 399.403C590.16 397.516 588.363 402.805 586.323 403.937C582.86 405.857 581.674 401.458 580.297 399.219C577.799 395.156 574.335 391.528 571.227 387.871C568.397 384.543 566.653 382.29 566.24 378.048C565.927 374.835 565.221 372.349 569.293 371.618C576.511 370.324 587.08 373.513 592.944 368.048C596.019 365.183 593.823 362.22 589.939 362.367C584.838 362.562 579.989 362.795 574.854 362.41C572.126 362.206 566.42 362.823 565.042 360.205C563.269 356.836 566.276 351.422 563.011 348.469C558.842 344.697 557.82 353.22 557.682 355.573C557.58 357.288 558.052 359.898 556.906 361.381C555.836 362.764 553.88 362.744 552.298 363.244C548.314 364.504 546.255 369.06 551.542 370.024C553.32 370.348 555.8 369.876 557.278 371.103C558.825 372.387 558.234 374.669 558.38 376.399C554.676 372.405 546.978 374.175 541.963 372.692C539.322 371.911 538.875 370.87 537.764 368.49C536.42 365.61 533.355 361.968 533.237 358.783C533.138 356.079 535.559 354.044 536.688 351.713C537.657 349.713 538.534 346.458 538.391 344.214C538.045 338.801 527.55 344.327 525.387 346.398C521.463 350.157 516.627 355.018 518.753 360.342C520.65 365.093 521.657 367.787 515.075 367.414C512.665 367.277 507.605 367.721 505.735 366.774C504.347 366.071 504.869 364.812 504.823 362.986C504.784 361.405 504.912 359.008 503.822 357.626C499.982 352.765 499.084 364.86 496.928 366.171C493.56 368.22 486.429 366.072 486.98 372.154C487.461 377.474 495.19 375.301 497.329 379.879C498.358 382.085 498.139 384.652 499.436 386.779C501.284 389.812 503.559 389.651 504.784 386.489C505.644 384.268 504.497 381.985 505.159 379.889C506.115 376.859 510.666 377.14 513.465 376.797C516.868 376.381 519.835 375.584 523.071 374.61C527.065 373.408 526.848 375.381 527.498 378.239C528.252 381.554 529.405 384.75 530.112 388.115C530.771 391.251 532.519 394.628 532.804 397.766C533.021 400.165 532.147 399.946 530.012 401.331C527.678 402.844 525.109 406.777 522.4 407.424C518.326 408.397 514.22 399.732 510.513 404.166C508.921 406.069 509.537 410.123 510.669 412.09C512.164 414.688 514.913 415.349 512.61 418.326C510.877 420.562 508.701 422.294 508.539 425.304C508.387 428.097 510.428 430.74 513.621 429.919C516.199 429.257 517.724 426.8 519.677 425.307C523.049 422.731 525.817 425.117 529.267 426.575C531.983 427.723 536.976 428.472 538.338 431.171C540.068 434.597 537.85 435.921 534.636 434.947C535.888 438.776 534.241 441.001 533.789 444.96C533.423 448.164 532.631 451.094 532.127 454.193C531.456 458.329 531.385 457.88 526.811 458.021C522.924 458.14 519.145 458.043 515.263 457.885C511.843 457.745 509.517 458.033 509.363 454.193C509.295 452.498 510.444 446.752 506.854 447.442C503.693 448.049 504.603 453.299 503.546 455.272C502.016 458.128 499.429 457.255 496.551 457.96C493.622 458.677 491.255 460.689 492.01 463.797C492.817 467.116 496.086 466.884 498.928 467.652C503.303 468.834 502.343 474.823 504.897 478.076C505.94 479.403 507.037 480.744 508.787 479.654C511.996 477.656 508.966 472.775 509.814 470.326C510.706 467.75 513.712 468.277 516.554 467.943C520.748 467.451 525.139 465.568 529.318 465.591C528.517 467.835 526.272 469.139 525.464 471.502C525.031 472.768 525.435 475.133 524.834 476.18C524.187 477.305 522.148 477.642 521.305 479.207C520.202 481.256 519.861 483.451 518.57 485.458C515.517 490.204 512.887 495.057 509.642 499.754C506.292 504.606 502.681 509.223 498.466 513.428C494.376 517.51 493.156 515.533 489.642 512.197C488.212 510.839 485.174 509.268 484.776 507.24C484.383 505.241 486.16 503.61 487.133 501.983C488.423 499.827 490.752 496.115 490.185 493.526C489.12 488.666 484.45 493.141 482.679 494.961C479.587 498.139 477.859 501.481 473.186 498.971C470.194 497.363 466.421 492.963 462.495 494.59C458.92 496.072 459.921 500.351 462.121 502.523C463.352 503.738 465.108 504.435 466.414 505.573C469.227 508.026 467.635 508.692 466.35 511.441C465.3 513.691 465.148 518.113 467.085 519.987C470.897 523.674 473.844 516.237 477.381 516.086C479.059 516.014 486.029 520.271 486.526 521.802C487.398 524.491 479.878 527.701 477.88 528.963C473.232 531.897 468.169 534.889 462.941 536.835C456.771 539.132 461.369 531.895 457.996 529.49C453.61 526.362 453.27 534.931 452.82 537.06C451.624 542.723 445.195 542.87 440.009 544.274C436.707 545.169 433.402 546.118 430.066 546.896C427.236 547.556 424.066 547.54 421.322 548.357C418.915 549.074 417.268 550.528 414.576 550.545C413.701 550.551 412.94 550.275 412.096 550.256C410.394 550.217 408.834 551.123 407.207 551.029C404.501 550.872 405.679 550.079 404.737 548.322C403.853 546.674 401.604 546.068 399.854 545.553C394.836 544.078 390.658 545.371 389.93 539.435C389.706 537.613 390.002 530.128 386.275 531.003C381.922 532.023 385.752 540.919 383.05 543.148C381.735 544.232 379.75 543.691 378.165 544.012C375.564 544.538 374.423 546.365 371.575 546.243C369.172 546.14 366.935 545.148 364.841 544.162C361.72 542.692 357.995 541.718 355.393 539.476C351.825 536.402 350.26 531.615 348.74 527.459C346.502 521.337 345.548 515.236 345.188 508.817C345.063 506.579 344.041 505 343.614 502.947C343.16 500.763 344.501 500.326 344.811 498.257C345.11 496.245 344.965 494.097 345.42 491.942C346.073 488.843 346.302 485.673 346.936 482.565C347.984 477.425 349.575 472.32 350.881 467.226C351.286 465.643 352.021 460.57 354.12 460.083C355.669 459.724 359.245 461.869 360.681 462.499C363.519 463.744 365.958 465.465 368.996 466.327C370.562 466.772 372.54 466.728 373.568 468.082C375.194 470.224 373.88 474.419 374.553 476.95C375.377 480.049 378.108 481.367 380.308 478.254C381.48 476.595 381.168 474.616 381.325 472.782C381.55 470.137 381.6 469.497 384.677 469.676C387.793 469.857 390.835 470.952 394.03 471.085C396.911 471.204 399.806 471.13 402.684 470.984C409.673 470.628 416.066 469.57 422.621 467.255C427.06 465.687 432.21 462.258 437.103 462.379C444.01 462.549 442.141 468.499 443.086 472.949C443.662 475.658 448.531 483.973 450.401 477.224C451.326 473.886 448.244 469.02 450.07 466.005C452.227 462.443 460.154 465.399 463.761 464.574C466.679 463.906 471.557 460.056 469.496 456.734C468.52 455.16 466.624 455.459 464.932 455.341C461.728 455.118 458.545 454.712 455.367 454.276C453.56 454.028 450.797 453.884 450.074 451.952C449.461 450.313 452.337 446.062 452.961 444.493C455.026 439.301 455.77 435.078 455.778 429.415C455.781 426.864 455.96 424.171 455.519 421.647C455.357 420.723 453.865 417.703 454.564 416.819C455.503 415.63 457.426 417.139 458.197 418.03C459.73 419.805 459.197 419.664 458.326 421.503C457.043 424.209 454.549 429.883 458.779 431.965C463.201 434.144 464.799 426.783 468.989 427.59C470.943 427.966 472.871 430.356 474.445 431.473C476.289 432.78 478.279 434.167 480.445 434.969C483.998 436.285 487.992 435.298 486.556 431.141C485.423 427.862 481.841 425.119 479.281 422.795C475.201 419.092 475.385 417.536 478.204 413.174C479.384 411.349 483.914 403.598 478.663 402.968C475.885 402.633 472.879 406.826 471.411 408.43C468.891 411.183 467.447 412.365 463.698 410.154C460.034 407.994 458.333 406.188 453.901 405.989C448.803 405.76 446.508 398.632 443.805 394.971C436.462 385.028 425.218 380.11 415.738 372.491C411.118 368.778 407.999 363.921 404.486 359.35C402.813 357.173 400.653 355.364 399.29 352.992C398.432 351.501 396.109 347.905 396.714 346.145C397.466 343.953 401.529 342.601 403.22 341.053C404.638 339.755 405.395 338.135 407.627 338.632C409.613 339.073 411.402 341.574 413.026 342.673C414.619 343.751 416.417 344.752 418.184 345.558C421.38 347.017 425.239 347.797 425.426 343.361C425.589 339.523 421.827 335.413 419.11 332.825C417.131 330.941 414.135 329.302 414.527 326.31C414.72 324.826 416.075 322.186 416.866 320.941C419.591 316.657 427.912 319.271 432.434 319.545C437.881 319.877 443.887 319.026 448.218 322.612C449.629 323.782 452.903 326.079 453.597 327.707C454.403 329.602 453.085 330.454 452.353 332.289C451.406 334.658 450.755 339.338 453.481 340.972C458.03 343.699 460.401 335.61 465.13 337.379C469.614 339.057 472.748 343.881 477.867 344.645C484.566 345.643 480.751 337.919 478.433 335.646C475.427 332.699 469.597 329.652 471.506 325.294C472.051 324.049 473.297 321.451 474.417 320.679C476.612 319.164 480.148 319.996 482.66 320.021C489.001 320.083 494.987 319.598 501.2 318.567C503.074 318.256 503.5 318.009 504.82 319.308C506.648 321.103 507.608 323.444 509.734 325.21C506.662 328.29 502.109 331.926 504.245 336.666C506.083 340.746 510.111 338.745 512.836 336.565C514.115 335.542 515.438 333.376 517.134 332.966C519.336 332.433 521.81 334.294 523.612 335.238C526.318 336.657 532.104 340.862 535.177 338.38C539.242 335.096 534.432 330.154 531.632 328.126C529.939 326.9 527.683 326.025 526.258 324.511C524.361 322.496 525.474 322.2 526.623 320.384C528.726 317.062 527.955 312.783 531.319 310.187C533.184 308.748 535.851 307.843 537.981 306.788C540.077 305.749 542.327 303.687 544.383 302.896ZM578.658 315.818C577.84 315.351 577.021 314.885 576.204 314.419C578.074 313.571 579.308 313.672 578.658 315.818ZM623.791 356.188C624.121 354.637 625.407 351.863 627.176 353.314C628.316 354.246 627.071 357.747 629.782 356.778C629.921 359.009 628.136 358.819 630.77 360.803C627.447 360.445 622.861 360.585 623.791 356.188ZM494.825 544.182C495.661 542.093 495.654 538.855 498.23 540.764C498.365 538.235 497.721 530.214 502.657 530.54C504.669 530.673 504.647 532.324 505.179 533.754C506.106 536.25 507.672 538.523 508.991 540.848C504.093 541.033 499.192 542.075 494.825 544.182ZM496.428 573.009C499.227 574.976 500.63 572.654 503.272 571.806C505.71 571.024 508.242 571.493 510.943 570.937C514.294 570.249 518.24 570.353 521.514 570.326C522.32 570.32 524.007 570.438 524.822 570.526C526.307 570.684 526.174 570.97 527.711 571.355C528.305 571.228 528.904 571.135 529.51 571.077C530.251 571.047 530.835 571.333 531.264 571.933C532.646 572.362 533.149 572.077 534.472 572.377C537.625 573.094 539.977 574.86 542.035 577.202C546.226 581.969 546.351 589.134 546.256 595.035C546.228 596.715 546.09 598.387 546.29 600.064C546.472 601.601 547.64 603.924 547.163 605.453C546.44 607.766 544.201 607.246 541.594 607.349C540.059 607.41 538.527 608.331 537.305 608.413C536.124 608.492 535.648 608.087 534.453 607.838C531.333 607.188 527.652 608.114 524.575 608.905C521.417 609.715 518.649 610.515 515.447 611.089C513.363 611.462 511.488 611.674 509.387 611.919C507.664 612.119 506.92 612.963 505.416 613.311C503.966 613.645 502.553 613.144 501.089 613.407C499.095 613.766 497.705 615.128 495.888 615.806C493.384 616.74 489.38 615.343 488.27 618.225C487.835 615.446 484.971 616.201 482.838 615.955C479.323 615.55 475.861 614.083 472.481 613.148C469.709 612.382 460.126 605.315 458.292 608.183C458.294 607.893 458.627 606.251 458.338 606.062C457.316 605.392 457.324 605.76 456.223 605.341C454.539 604.701 453.829 604.122 452.626 603.043C450.191 600.86 446.915 599.718 444.351 597.738C437.908 592.763 435.702 582.515 434.131 575.382C432.075 578.772 432.832 574.422 433.187 572.968C434.028 569.538 432.946 567.846 432.702 564.533C432.476 561.484 433.97 560.881 436.928 560.563C440.572 560.17 444.08 559.621 447.65 558.775C451.058 557.967 454.398 557.055 457.474 555.447C460.289 553.976 463.242 553.398 466.121 552.11C469.295 550.69 472.408 549.196 475.61 547.813C477.054 547.19 483.41 542.727 484.514 542.999C486.779 543.557 484.641 547.248 483.95 548.216C482.175 550.703 479.262 551.857 476.634 553.422C474.263 554.833 467.073 561.518 474.372 560.847C479.209 560.403 482.485 555.687 485.58 561.061C486.672 562.96 488.279 564.483 487.023 566.444C485.27 569.179 480.212 570.484 477.56 572.325C475.3 573.895 470.675 581.293 475.335 582.086C476.675 582.314 478.74 582.02 479.736 581.05C480.408 580.397 480.36 579.053 481.04 578.606C482.003 577.972 483.873 578.757 484.972 578.41C486.539 577.914 486.906 577.119 487.482 575.719C489.154 576.429 489.178 577.382 491.088 576.466C491.721 576.162 491.954 575.048 492.687 574.75C493.671 574.351 493.964 575.66 494.505 575.467C495.969 574.945 495.964 574.356 496.428 573.009ZM396.042 551.248C393.238 551.443 390.175 551.654 387.781 549.991C390.689 550.154 393.254 550.764 396.167 550.205C397.326 549.983 399.181 548.966 400.368 549.32C404.585 550.578 397.165 551.169 396.042 551.248ZM388.253 321.708C388.211 320.79 387.374 308.442 391.909 313.292C393.15 314.619 391.811 316.396 391.635 317.864C391.336 320.337 392.268 322.816 393.669 324.898C394.975 326.84 397.415 328.541 397.05 331.073C396.729 333.296 394.319 335.193 393.131 337.037C390.21 332.754 388.488 326.862 388.253 321.708ZM378.287 192.117C367.781 193.145 357.328 194.965 347.198 197.774C337.252 200.532 327.98 204.844 318.635 208.974C316.709 201.301 314.691 193.648 312.789 185.97C311.874 182.274 310.999 178.569 310.142 174.86C309.533 172.223 307.314 167.308 308.24 164.714C308.731 163.34 309.38 163.334 310.436 162.485C311.081 161.967 312.206 160.7 312.875 160.429C314.504 159.77 318.688 159.192 320.355 159.286C321.874 159.371 322.669 159.933 324.232 159.527C325.563 159.18 326.68 158.228 327.93 157.705C331.108 156.376 335.075 155.93 338.475 155.227C341.746 154.549 345.123 154.399 348.402 153.728C351.275 153.14 352.639 151.173 355.089 151.244C361.464 151.43 368.514 150.735 374.839 149.318C381.936 147.728 389.656 148.035 396.938 147.865C399.838 147.797 401.877 147.19 401.892 150.195C401.909 153.862 400.334 157.978 399.532 161.558C397.75 169.495 396.242 177.21 395.568 185.27C395.231 189.301 393.455 189.019 389.932 190.255C386.013 191.631 382.455 191.709 378.287 192.117ZM323.049 273.547C325.638 273.903 325.34 267.315 325.53 265.976C331.702 276.806 338.653 287.227 344.091 298.411C345.362 301.026 346.516 303.702 347.86 306.286C348.779 308.055 350.836 310.43 350.786 312.488C350.734 314.635 348.869 315.439 346.904 316.235C344.781 317.096 343.951 317.524 342.455 316.53C340.643 315.325 339.131 311.615 338.013 309.826C336.304 307.095 334.668 304.325 332.995 301.576C329.964 296.593 326.387 291.821 323.896 286.589C321.563 281.688 318.033 277.471 315.518 272.656C313.028 267.887 309.619 263.367 306.756 258.7C309.632 257.587 313.215 254.806 316.482 254.961C319.856 255.12 319.774 258.151 319.92 260.675C320.075 263.355 319.11 273.005 323.049 273.547ZM331.338 322.473C329.799 324.172 326.327 325.171 324.198 326.113C321.249 327.418 318.23 328.579 315.295 329.911C305.667 334.282 296.078 338.283 286.269 342.298C281.198 344.372 276.19 346.578 271.242 348.893C268.65 350.107 262.939 354.357 259.957 354.465C256.538 354.589 256.458 348.167 255.705 345.757C255.072 343.742 253.898 342.173 253.108 340.262C252.786 339.481 253.036 338.89 252.545 338.116C251.986 337.235 250.421 336.526 249.617 335.766C246.2 332.538 243.368 328.428 240.482 324.791C237.839 321.459 233.33 317.288 232.061 313.205C229.568 305.18 244.054 300.738 249.596 297.513C259.3 291.867 269.05 286.068 278.3 279.796C282.514 276.938 286.639 273.968 290.874 271.136C292.85 269.815 298.327 264.675 300.862 266.506C301.807 267.189 301.825 269.075 302.22 270.064C303.081 272.226 304.388 274.113 305.713 276.051C306.889 277.768 308.561 279.544 309.297 281.459C310.173 283.743 310.132 285.037 311.736 287.086C314.653 290.813 316.031 295.112 318.742 298.911C321.358 302.574 323.87 305.276 325.58 309.369C326.561 311.715 328.109 313.797 329.477 315.954C330.121 316.972 330.795 317.974 331.372 319.028C332.406 320.913 332.771 320.889 331.338 322.473ZM248.571 353.82C246.721 355.053 243.996 352.981 242.201 352.953C241.42 352.94 240.644 353.507 240.123 353.491C238.554 353.448 237.272 352.467 235.828 352.011C229.161 349.9 221.213 349.82 215.517 345.535C204.203 337.023 209.598 319.943 211.658 308.878C212.078 306.622 212.833 303.497 210.874 301.65C208.725 299.624 205.495 300.832 203.529 302.471C201.512 304.151 200.141 306.505 198.464 308.467C195.793 311.593 192.878 314.546 189.934 317.447C179.473 327.753 168.395 339.545 155.455 347.108C150.072 350.255 145.201 354.518 139.302 356.915C132.206 359.8 139.491 348.666 140.767 346.857C149.118 335.018 161.276 325.645 171.488 315.252C173.415 313.291 176.152 310.646 176.186 307.821C176.238 303.577 172.209 303.959 169.024 305.136C166.045 306.238 164.552 308.981 162.155 310.855C159.171 313.188 155.685 315.08 152.363 316.963C145.199 321.024 137.594 324.432 130.013 327.755C126.467 329.309 122.904 330.829 119.34 332.351C118.363 332.768 112.517 336.218 112.796 333.261C112.835 332.863 116.564 328.65 117.024 328.493C119.32 327.712 120.459 330.069 122.502 326.98C123.954 324.787 124.155 323.648 126.205 321.983C126.553 321.701 126.793 320.985 127.076 320.52C127.041 320.695 128.599 319.285 128.301 319.53C128.71 319.195 129.305 318.578 129.637 318.174C131.239 316.228 134.319 316.191 135.712 313.967C136.243 313.119 135.942 312.033 136.582 311.192C137.479 310.013 139.453 309.511 140.506 308.473C141.409 307.582 142.153 306.855 142.713 306.31C143.099 305.934 143.777 305.671 144.233 305.241C145.369 304.172 145.281 303.224 146.871 302.325C148.299 301.518 148.956 302.273 149.45 300.275C151.188 301.311 150.97 299.795 151.675 298.709C152.593 297.295 153.758 296.665 155.022 295.643C157.803 293.393 160.409 290.043 162.776 287.21C168.66 280.166 173.42 271.929 175.173 263.09C175.592 260.977 175.824 258.841 175.99 256.698C176.079 255.572 175.683 252.827 176.434 251.723C177.598 250.011 179.809 250.69 181.491 249.941C182.063 249.686 182.627 248.935 183.163 248.764C183.913 248.527 184.831 248.759 185.609 248.529C185.911 248.44 185.981 247.612 186.482 247.506C187.462 247.297 188.437 247.629 189.406 247.642C191.528 247.668 193.623 247.32 195.658 246.691C197.508 246.119 199.058 244.807 200.904 244.334C200.716 244.383 203.948 244.621 203.774 244.453C203.929 243.712 204.083 242.971 204.238 242.23C205.465 243.028 209.65 244.079 210.949 243.897C213.035 243.604 212.595 241.855 214.364 244.153C215.366 243.34 216.367 242.528 217.368 241.715C218.127 244.676 223.35 243.239 225.719 243.403C229.055 243.635 231.683 243.051 234.724 244.132C238.422 245.448 241.665 246.835 245.648 247.194C248.431 247.444 249.589 248.661 252.315 249.412C255.979 250.421 256.269 251.533 255.122 255.017C254.193 257.841 253.39 260.019 254.747 262.916C257.156 268.055 263.7 270.171 267.919 273.722C258.036 280.176 248.277 286.525 238.722 293.402C234.719 296.283 230.461 299.169 228.181 303.502C226.078 307.502 224.885 312.309 223.62 316.59C220.718 326.408 228.894 333.014 237.293 337.332C239.031 338.225 251.001 352.203 248.571 353.82ZM232.27 365.686C231.679 363.798 231.757 363.294 233.716 362.616C234.457 362.36 237.3 362.025 237.759 362.972C238.801 365.12 233.327 365.093 232.27 365.686ZM315.559 228.867C316.261 233.057 316.952 237.248 317.579 241.446C317.924 243.767 318.708 245.819 316.851 247.569C315.796 248.562 313.235 248.933 311.887 249.462C309.943 250.226 308.05 251.101 306.18 252.012C302.847 253.636 299.364 254.614 296.075 256.078C294.645 256.713 293.796 257.967 292.558 258.831C290.863 260.014 288.802 260.589 287.053 261.714C283.928 263.727 281.063 266.109 277.94 268.135C274.401 270.43 273.664 269.693 271.677 266.301C269.892 263.256 267.751 261.866 265.182 259.479C264.184 258.551 260.607 253.26 263.645 252.804C264.423 252.687 267.111 253.775 267.72 254.123C268.646 254.652 270.126 257.656 270.878 257.707C272.234 257.799 273.97 254.208 274.815 253.263C280.351 247.062 286.442 240.929 292.858 235.506C296.183 232.695 299.676 230.133 303.446 227.864C306.127 226.251 308.467 223.99 311.11 222.46C311.669 222.009 312.302 221.687 313.013 221.494C314.392 220.911 314.91 221.414 314.567 223.003C315.358 224.557 315.272 227.152 315.559 228.867ZM194.452 223.377C195.799 222.102 197.498 221.083 198.672 219.661C199.334 218.859 199.77 217.424 200.528 216.905C201.847 216.001 203.733 216.418 205.267 215.206C206.749 214.035 208.05 212.632 209.497 211.417C212.633 208.784 215.87 206.364 218.947 203.683C220.696 202.16 222.53 200.183 224.084 199.178C224.496 198.911 224.957 198.514 225.395 198.309C226.331 197.87 226.798 198.317 228.164 197.908C229.068 197.638 229.713 196.574 230.438 196.07C232.161 194.873 234.406 194.399 236.065 193.246C237.723 192.094 238.521 190.305 240.804 189.344C243.565 188.182 245.635 189.1 247.631 186.878C248.445 185.972 248.668 184.83 249.946 184.259C251.486 183.57 252.838 184.301 254.308 183.518C255.299 182.99 255.976 181.882 257.001 181.305C258.833 180.273 260.859 180.164 262.573 178.887C264.019 177.81 263.216 177.92 264.928 177.465C265.681 177.266 266.516 177.18 267.32 176.924C269.894 176.107 274.098 175.107 275.623 172.835C276.397 173.886 276.662 174.099 277.918 173.773C278.577 173.274 279.182 172.725 279.733 172.126C280.137 172.601 280.571 172.629 281.033 172.211C283.75 171.342 286.242 169.849 288.918 169.021C289.297 169.211 289.676 169.402 290.055 169.592C290.582 169.619 290.796 169.38 290.696 168.872C291.749 168.693 292.962 168.262 293.932 167.869C295.792 167.115 297.847 165.323 300.038 165.965C303.698 167.036 303.873 173.98 304.504 176.733C306.061 183.516 307.627 190.296 309.19 197.078C309.825 199.837 310.384 202.617 311.221 205.331C311.768 207.104 313.129 209.717 312.638 211.602C312.035 213.913 309.612 214.666 307.585 215.734C304.792 217.207 302.092 218.841 299.449 220.537C288.228 227.738 279.862 237.641 271.906 247.801C270.431 245.808 266.483 243.01 264.022 242.112C262.299 241.483 260.748 241.99 259.032 241.223C257.808 240.675 256.792 239.605 255.635 238.916C248.57 234.706 240.042 231.227 231.853 229.556C215.051 226.128 198.602 231.437 182.31 233.956C185.616 229.727 190.559 227.062 194.452 223.377ZM306.922 108.634C309.797 99.9155 314.639 91.4748 321.531 84.9342C325.006 81.6368 329.089 78.7548 333.666 76.9215C337.648 75.3278 342.384 73.7992 342.323 78.9243C342.188 90.0505 339.425 101.05 339.088 112.194C338.759 123.114 340.725 131.879 347.828 140.679C343.327 141.651 338.828 142.638 334.344 143.672C330.939 144.458 327.408 145.339 324.186 145.879C321.001 146.411 318.073 146.758 314.924 147.76C312.801 148.435 309.475 150.498 307.179 150.05C303.361 149.306 304.264 136.564 304.069 133.503C303.517 124.857 304.18 116.955 306.922 108.634ZM376.7 125.421C381.916 119.531 387.335 112.659 396.11 111.565C404.595 110.508 407.722 119.975 407.183 126.358C407 128.518 406.655 134.127 404.968 135.877C403.102 137.813 399.79 136.354 397.419 136.055C387.186 134.766 376.694 136.918 366.433 136.918C369.855 133.084 373.294 129.265 376.7 125.421ZM418.688 148.91C422.248 149.385 425.09 149.89 423.372 153.659C419.931 161.209 417.288 168.414 420.303 176.644C422.605 182.93 429.896 190.559 437.182 191.819C439.735 192.261 443.576 191.471 445.145 193.883C446.543 196.032 445.028 202.477 444.864 204.863C444.259 213.752 441.812 222.573 435.627 229.558C430.124 235.773 423.409 240.637 415.405 234.771C408.659 229.826 404.675 220.98 402.679 213.421C401.613 209.386 401.483 205.359 401.28 201.235C401.1 197.588 400.352 195.275 404.785 194.519C405.974 194.317 408.942 194.38 408.946 192.692C408.953 190.424 405.734 191.275 404.503 191.16C399.755 190.719 401.979 185.582 402.421 182.259C403.175 176.601 404.396 171.007 405.516 165.406C406.47 160.635 406.521 154.383 408.593 149.923C409.802 147.318 416.313 148.594 418.688 148.91ZM427.43 165.665C427.97 162.589 428.258 158.746 431.538 157.046C435.142 155.179 436.946 158.222 438.725 160.708C443.442 167.304 448.663 173.476 449.436 181.664C449.528 182.641 449.978 184.601 448.967 185.277C448.515 185.579 447.436 184.783 446.738 184.83C443.002 185.08 440.299 186.012 436.635 184.049C429.466 180.207 426.127 173.085 427.43 165.665ZM455.618 184.083C454.847 176.924 451.292 170.574 447.322 164.529C445.365 161.548 441.562 158.29 440.212 155.141C439.488 153.455 440.769 151.366 443.401 152.089C444.712 152.45 447.237 155.684 448.113 156.804C450.365 159.68 452.23 162.888 454.011 166.03C455.915 169.386 461.325 181.705 455.618 184.083ZM432.018 112.785C432.434 106.049 432.476 98.313 437.166 92.7224C440.8 88.3875 447.455 86.5001 452.854 84.8244C460.126 82.5662 468.862 82.2177 476.468 82.9473C483.163 83.5903 488.215 87.8305 492.346 92.4933C496.547 97.2348 499.802 103.34 502.692 108.858C503.414 110.238 509.547 119.095 505.399 118.889C503.754 118.807 502.324 115.818 501.064 114.936C500.076 114.244 498.907 114.33 498.022 113.777C497.073 113.185 497.278 112.636 496.543 111.904C491.476 106.871 486.816 109.769 481.351 112.421C481.096 110.665 481.543 107.402 479.965 106.119C477.9 104.439 475.742 107.1 474.26 108.405C472.912 109.594 471.249 111.759 469.551 112.402C467.345 113.237 468.095 112.35 466.179 111.649C462.322 110.237 459.356 114.415 457.406 116.844C456.678 117.75 455.489 120.038 454.186 120.283C452.926 120.519 452.761 119.685 451.676 119.376C448.604 118.505 447.755 120.542 446.776 123.073C445.675 125.918 444.738 128.659 443.108 131.317C440.226 136.019 438.986 137.566 441.267 142.759C437.937 143.219 437.238 143.588 435.586 140.839C433.886 138.005 433.444 135.655 433.551 132.398C433.775 125.587 431.589 119.704 432.018 112.785ZM509.325 145.013C512.811 150.871 515.027 159.023 514.99 165.697C514.971 169.008 514.763 173.08 513.102 176.084C511.507 178.966 508.17 180.41 505.096 181.637C497.687 184.598 489.339 184.564 481.549 183.244C477.506 182.558 473.573 183.001 470.113 180.741C467.509 179.039 464.369 177.386 463.606 174.266C463.287 172.96 463.779 171.865 463.677 170.584C463.803 169.975 463.756 169.38 463.536 168.8C463.081 168.556 462.623 168.319 462.161 168.088C461.797 167.115 462.494 166.031 462.315 165.014C462.1 163.788 461.005 162.789 460.494 161.677C459.084 158.611 460.09 156.895 462.729 154.813C463.36 154.351 463.995 153.893 464.634 153.439C465.208 152.595 465.842 152.592 466.536 153.428C467.792 153.444 467.755 153.805 469.077 153.447C471.971 152.662 474.399 149.797 477.235 148.79C478.337 148.399 479.98 148.731 480.875 148.01C481.675 147.364 481.161 146.012 481.863 145.378C484.105 143.355 487.635 145.273 489.709 142.332C491.402 139.932 491.043 136.526 491.217 133.801C496.415 134.726 498.666 139.36 502.937 141.691C503.782 138.645 503.905 138.736 507.166 137.9C505.688 140.442 508.077 142.916 509.325 145.013ZM513.303 112.676C514.261 113.823 514.992 116.673 513.303 116.948V112.676ZM517.74 123.04C525.677 123.055 530.749 132.389 533.066 138.172C535.585 144.46 538.239 152.847 533.539 158.971C531.736 161.319 529.524 161.535 526.624 161.23C523.129 160.863 521.337 160.393 522.705 156.918C525.268 150.407 523.34 142.129 518.798 136.679C525.045 135.556 521.085 130.226 517.95 128.231C514.289 125.902 511.33 123.027 517.74 123.04ZM336.548 460.49C334.681 465.098 332.783 469.691 331.217 474.439C329.731 478.937 330.592 484.006 328.746 488.331C327.61 487.809 327.284 486.88 326.297 486.316C325.688 485.967 324.628 485.829 324.105 485.445C323.208 484.786 321.029 482.331 320.439 481.379C318.399 478.085 319.76 472.731 320.849 469.346C322.199 465.154 324.504 461.128 327.599 457.825C329.771 455.51 330.969 456.247 333.872 457.387C335.589 458.061 337.357 458.492 336.548 460.49ZM322.403 496.841C320.912 499.649 318.156 501.962 316.518 504.792C314.8 507.762 313.499 511.11 311.308 513.826C309.077 516.595 307.073 516.132 304.001 517.327C302.899 517.755 302.435 518.549 301.547 519.169C299.884 520.329 298.059 521.042 296.31 522.075C295.066 519.235 291.267 504.982 286.431 505.288C282.228 505.553 284.378 513.015 284.921 515.217C285.378 517.077 285.902 518.965 286.599 520.761C287.303 522.574 289.496 525.29 288.685 527.277C287.654 529.804 285.088 529.637 283.803 527.795C282.729 526.253 282.183 524.159 281.391 522.482C280.695 521.007 277.513 512.937 274.762 514.189C272.112 515.395 276.233 523.218 276.923 524.755C278.589 528.465 281.783 532.032 277.562 535.005C271.154 539.519 263.263 542.918 256.083 546.172C251.893 548.071 248.126 550.569 243.727 552.111C239.642 553.543 234.921 553.788 230.972 555.434C230 555.84 230.651 556.344 229.232 556.58C228.041 556.776 225.961 556.247 224.685 556.258C222.57 556.277 220.451 556.427 218.34 556.179C217.151 556.04 214.445 554.828 214.873 556.83C213.191 556.395 212.54 554.816 211.313 553.829C210.219 552.949 208.823 552.472 207.602 551.782C205.079 550.353 203.192 548.725 202.435 546.003C200.658 539.61 204.415 532.957 209.053 528.5C211.714 525.944 214.837 523.818 217.278 521.065C218.134 520.099 218.743 518.976 219.831 518.191C221.161 517.229 222.987 517.11 224.276 516.136C225.235 515.412 225.522 514.257 226.528 513.592C228.015 512.61 229.755 513.018 231.159 511.728C231.96 510.991 234.71 507.522 234.517 506.561C235.27 506.795 236.025 507.03 236.777 507.265C237.235 505.127 241.198 502.49 243.153 501.466C244.142 500.948 246.068 500.973 246.803 500.416C247.782 499.674 247.702 498.119 248.478 497.188C250.705 494.52 255.366 493.323 258.315 491.465C262.067 489.1 265.712 486.422 269.101 483.623C275.952 477.967 281.991 471.394 286.925 464.214C288.913 461.322 290.757 458.372 292.172 455.202C293.043 453.251 293.913 449.782 296.064 448.65C298.286 447.481 303.39 449.064 305.879 449.231C309.534 449.476 315.232 449.324 318.508 450.995C322.011 452.782 319.163 454.26 317.36 456.39C314.722 459.507 313.14 463.324 311.822 467.065C310.808 469.941 310.618 472.726 309.954 475.627C309.253 478.692 309.26 482.832 310.884 485.65C312.493 488.439 324.081 493.686 322.403 496.841ZM184.236 553.373C176.366 543.405 182.881 528.812 190.579 520.758C199.868 511.038 213.087 505.572 223.946 497.668C236.502 488.529 249.398 480.039 260.524 469.319C266.163 463.886 271.074 458.03 275.526 451.716C279.306 446.355 282.049 439.213 289.686 438.438C285.181 443.663 284.918 451.189 281.435 457.006C277.748 463.165 272.311 468.288 266.775 473.022C255.085 483.019 242.459 492.178 229.831 501.113C223.386 505.673 217.12 510.439 210.697 515.021C204.944 519.126 198.902 522.637 195.587 528.892C189.868 539.682 189.526 555.669 202.192 562.317C195.665 561.106 188.325 558.551 184.236 553.373ZM870.381 103.853C868.053 99.5185 863.689 97.9748 859.308 96.2792C855.019 94.6202 851.1 92.576 846.343 92.0453C844.228 91.809 838.263 92.3954 837.985 89.5436C837.753 87.1677 843.985 84.783 845.422 82.9728C847.551 80.2897 848.998 75.9333 848.172 72.5444C847.389 69.3306 844.029 68.3153 840.892 67.7329C831.136 65.9227 820.761 67.2538 810.979 67.9978C812.176 66.4399 813.864 65.162 814.824 63.2961L816.375 66.2958C817.258 64.5803 818.216 62.8966 819.314 61.2901C820.057 62.0667 820.801 62.8441 821.543 63.6207C820.308 59.5873 824.463 59.608 824.025 56.208C823.855 54.8856 822.893 54.3063 822.657 53.2433C822.192 51.1299 823.946 49.8082 821.95 47.8485C819.728 45.6659 816.095 46.5316 813.509 46.7353C813.184 46.7615 812.713 47.3591 812.294 47.4076C811.712 47.4761 811.378 46.7313 810.658 46.7711C808.731 46.8769 807.031 48.2702 805.114 48.6935C796.233 50.6557 787.349 54.1551 778.824 57.4222C770.146 60.7483 761.627 64.6209 754.061 69.8407C745.963 75.4272 740.114 82.6092 733.647 89.6853C730.607 93.0105 727.462 96.2036 725.149 100.035C723.953 102.015 722.872 108.233 720.719 109.137C718.381 110.119 712.504 107.343 710.114 106.83C704.487 105.625 698.886 105.123 693.117 105.364C688.529 105.555 683.688 105.442 679.137 105.964C676.495 106.267 669.912 108.994 669.49 112.043C669.304 113.398 670.972 114.524 671.346 115.794C671.912 117.715 670.977 119.75 671.628 121.675C672.957 125.599 679.127 127.043 682.762 128.279C692.911 131.731 703.199 134.406 713.453 137.496C717.909 138.839 721.718 140.977 725.754 143.124C729.101 144.903 732.156 146.683 728.774 150.024C725.571 153.19 725.971 154.467 726.925 158.827C727.931 163.429 728.28 168.081 729.592 172.638C730.897 177.176 733.336 181.511 732.861 186.312C732.385 191.097 730.257 196.013 728.267 200.399C726.256 204.829 724.037 209.207 721.852 213.567C719.831 217.6 717.644 221.688 712.968 223.409C704.041 226.694 692.637 226.173 683.334 224.98C672.775 223.626 661.867 221.33 651.881 217.825C642.279 214.455 631.718 209.286 623.777 203.178C619.535 199.917 614.94 197.499 610.438 194.58C605.876 191.622 602.411 187.632 598.414 184.09C590.58 177.147 580.937 172.363 571.01 168.547C559.851 164.256 548.329 164.702 536.505 164.238C538.366 160.835 540.762 157.583 541.641 153.796C542.557 149.851 541.894 145.565 541.314 141.623C540.187 133.952 538.054 127.201 532.849 121.005C530.468 118.172 527.689 115.963 523.724 115.552C521.322 115.302 516.884 117.018 515.15 115.125C514.386 114.291 514.565 112.535 514.084 111.507C513.658 110.595 512.803 109.676 512.339 108.685C510.354 104.447 507.877 100.702 505.404 96.681C504.42 95.0825 503.659 92.7224 502.317 91.3769C501.587 90.6449 500.649 90.3123 500.24 89.7768C499.476 88.775 499.124 86.9433 498.487 85.8126C497.397 83.8775 496.01 82.0792 494.409 80.4823C491.851 77.9297 488.557 75.6771 485.049 74.4055C483.101 73.699 481.673 73.5319 479.638 73.6353C479.041 73.6656 478.379 73.9854 477.783 73.9433C476.355 73.8422 476.579 73.3664 475.435 73.1452C467.783 71.6628 457.523 73.7427 450.346 76.2961C442.785 78.9856 436.645 82.532 432.051 88.9047C420.766 104.556 423.395 124.765 428.183 142.004C425.287 141.296 422.404 140.459 419.48 139.86C417.69 139.493 415.247 139.562 413.648 138.683C410.091 136.727 412.984 131.707 413.005 128.464C413.061 120.224 408.881 107.338 399.765 103.857C390.266 100.231 378.711 110.411 372.839 116.183C369.072 119.887 365.647 123.878 362.042 127.715C359.523 130.396 356.198 134.671 351.782 133.97C342.151 132.443 345.088 115.397 345.516 109.635C346.193 100.527 347.633 91.2727 347.641 82.1413C347.646 76.5905 346.614 69.1022 339.287 68.4514C329.203 67.5562 319.651 76.0892 313.771 82.6545C298.263 99.9664 294.838 122.849 298.985 144.573C299.594 147.758 301.535 151.687 297.831 153.664C292.965 156.262 286.742 157.835 281.513 159.742C269.817 164.006 258.987 169.693 247.976 175.252C237.075 180.756 226.347 186.219 216.512 193.31C206.708 200.379 197.003 207.87 188.071 215.884C183.62 219.878 179.325 224.046 175.272 228.396C171.458 232.487 168.369 237.134 164.224 240.958C161.403 243.561 156.212 247.053 155.592 251.025C155.091 254.231 160.903 256.453 163.526 257.935C165.324 258.951 166.57 258.92 166.7 260.731C166.861 262.99 164.302 266.61 163.39 268.763C161.069 274.258 158.034 278.808 154.045 283.38C145.21 293.508 134.533 302.094 124.399 311.09C114.982 319.45 105.755 327.677 98.853 338.049C97.1618 340.591 92.9528 345.811 96.9526 348.189C97.9878 348.805 101.164 349.292 102.218 348.631C103.524 347.811 102.862 346.577 104.406 345.755C104.019 348.517 117.499 343.12 118.548 342.62C121.381 341.27 123.943 339.686 126.84 338.476C128.538 337.765 128.744 336.776 130.06 335.984C130.762 335.56 130.771 336.129 131.712 335.865C132.56 335.626 134.548 335.537 135.18 334.777C135.197 334.755 135.887 332.917 135.3 333.297C137.597 331.81 138.954 334.061 137.576 336.174C133.5 342.419 128.346 347.013 126.749 354.517C126.169 357.243 125.179 362.303 126.968 364.788C127.033 364.878 127.635 364.614 127.708 364.711C127.777 364.802 128.432 365.651 128.702 365.892C130.282 367.299 130.181 367.926 132.818 367.867C133.988 367.841 136.321 367.702 137.392 367.21C138.197 366.84 138.591 365.929 139.21 365.604C139.837 365.275 139.763 365.104 140.352 364.912C140.472 364.872 140.703 365.829 140.932 365.79C142.189 365.569 142.73 364.871 143.798 364.308C146.874 362.688 149.89 360.907 152.82 359.275C155.768 357.634 157.971 355.344 160.908 353.436C164.028 351.411 166.58 349.857 168.98 347.045C170.642 345.098 172.624 344.389 173.74 343.431C175.063 342.292 177.345 337.899 179.478 337.376C180.449 337.138 181.227 337.938 181.759 337.61C182.358 337.242 181.705 336.535 182.006 336.12C182.567 335.345 182.637 335.216 183.591 334.505C184.813 333.596 186.315 333.352 187.34 332.167C188.481 330.848 188.637 329.37 190.04 328.135C193.415 325.164 196.42 322.034 199.996 319.154C198.615 326.319 197.246 333.434 198.316 340.722C199.353 347.785 202.575 350.948 208.899 354.532C210.291 355.321 211.752 356.47 213.246 357.029C214.155 357.37 215.523 357.167 216.201 357.417C218.494 358.262 217.714 359.994 218.028 361.945C218.516 364.969 221.504 367.297 223.432 369.653C225.053 371.635 227.978 376.143 230.691 376.828C233.141 377.445 235.452 374.779 237.493 373.644C240.569 371.932 243.921 370.705 247.165 369.307C253.501 366.575 259.624 363.316 265.889 360.427C268.751 359.107 271.643 358.57 274.671 357.718C278.31 356.695 281.414 354.737 284.904 353.401C291.179 350.999 297.191 348.133 303.426 345.611C316.335 340.391 330.413 336.805 341.899 328.974C347.095 325.43 353.786 325.053 358.907 321.61C364.244 318.021 360.971 312.532 358.686 308.128C352.442 296.095 348.716 283.598 340.12 272.637C335.654 266.941 331.528 261.056 327.633 255.001C324.187 249.642 324.257 243.573 323.393 237.521C322.814 233.475 322.272 229.413 321.564 225.385C321.116 222.826 319.667 219.601 321.419 217.28C323.302 214.788 327.772 213.726 330.597 212.411C334.109 210.776 337.509 209.018 341.152 207.634C349.477 204.473 358.246 202.285 366.979 200.354C369.583 199.778 380.73 195.659 382.852 198.072C380.246 199.692 379.485 202.636 378.316 205.158C376.575 208.917 374.778 212.498 373.508 216.438C370.884 224.583 368.651 232.857 366.512 241.122C364.387 249.328 361.854 257.598 361.204 266.052C360.872 270.367 361.1 274.685 361.092 279.005C361.083 283.614 360.056 288.136 360.239 292.758C360.361 295.831 360.639 299.523 362.573 302.144C364.366 304.574 367.415 304.844 370.072 306.144C373.577 307.858 374.95 308.589 374.982 312.318C375.02 316.665 374.718 320.934 375.155 325.278C376.677 340.405 382.139 358.356 393.042 370.035C393.767 370.812 414.921 395.636 417.262 392.002C418.875 393.779 421.287 394.429 423.272 395.978C426.391 398.413 429.452 400.359 432.031 403.375C436.726 408.863 440.718 415.294 441.892 422.311C442.901 428.35 442.294 435.57 438.634 440.804C434.962 446.055 427.111 449.499 421.185 452.084C413.395 455.482 405.489 455.864 397.031 455.012C392.858 454.592 388.717 453.936 384.574 453.316C382.85 453.058 380.839 453.057 379.208 452.453C377.458 451.806 376.865 451.09 375.119 451.009C373.814 450.95 373.1 451.219 371.721 450.95C370.014 450.619 368.16 450.016 366.457 449.608C364.564 449.155 363.012 448.509 361.267 447.677C359.652 446.907 357.832 446.758 356.278 446.028C353.599 444.77 352.773 442.666 349.148 443.832C345.321 445.063 346.122 448.142 343.679 450.253C341.509 452.13 338.82 450.395 336.66 449.279C333.481 447.637 330.179 446.271 326.794 445.027C323.138 443.684 319.403 442.516 315.598 441.591C311.435 440.58 306.863 440.38 302.854 438.908C299.331 437.615 297.815 435.113 295.262 432.776C292.578 430.317 288.935 429.381 285.213 429.6C278.436 429.999 273.808 436.816 270.227 441.55C260.225 454.775 249.168 466.043 235.798 476.433C229.41 481.395 222.209 485.616 216.032 490.767C213.426 492.94 211.534 494.977 208.448 496.595C204.394 498.72 200.716 501.386 196.841 503.782C181.684 513.154 170.566 526.806 174.758 544.633C176.644 552.657 180.413 558.29 187.454 563.118C190.651 565.31 193.576 567.133 197.649 567.006C201.494 566.886 204.886 566.762 202.621 562.505C205.491 563.332 207.893 565.372 211.026 566.417C214.635 567.62 219.331 568.37 223.163 568.443C229.299 568.56 236.517 565.55 241.891 564.273C243.393 563.918 246.287 563.334 247.999 562.02C249.361 560.975 249.065 559.739 251.125 559.243C253.825 558.593 254.853 559.353 257.439 557.831C261.19 555.621 265.258 554.309 269.149 552.273C274.391 549.529 279.43 546.436 284.624 543.611C285.316 545.387 289.385 555.938 291.898 550.851C294.085 546.423 286.985 542.632 291.301 538.149C295.418 533.874 296.279 538.369 300.273 540.353C305.818 543.109 304.986 537.962 303.374 534.914C302.73 533.695 301.374 531.857 301.773 530.435C302.543 527.689 304.931 529.3 306.808 529.58C309.764 530.022 312.154 529.265 314.374 527.42C316.224 525.881 319.286 524.552 320.404 522.524C320.964 521.509 321.062 520.114 321.528 519.036C322.142 517.615 322.579 517.959 322.803 516.197C322.588 515.285 322.504 514.362 322.547 513.428C323.033 513.336 323.517 513.245 324.001 513.153C324.016 513.089 324.05 511.31 323.854 511.575C324.307 510.963 325.28 510.704 325.839 509.855C326.353 509.074 325.875 507.576 326.082 506.654C326.5 504.787 327.642 503.281 328.575 501.616C330.549 509.386 329.977 517.489 331.863 525.263C333.413 531.645 336.94 537.366 341.055 542.599C342.962 545.025 345.487 546.746 347.484 549.051C349.173 551.001 350.018 552.719 352.512 553.872C354.171 554.637 356.037 555.032 357.747 555.693C358.84 556.117 361.328 558.064 362.354 558.03C361.461 558.06 364.033 558.134 363.437 558.04C363.481 558.047 363.132 556.997 363.442 557.015C367.172 560.3 371.068 560.308 375.383 562.35C377.361 563.286 378.1 563.228 380.208 563.574C382.939 564.022 385.237 565.472 387.852 565.626C391.877 565.864 396.411 566.367 400.608 566.228C401.75 566.19 403.895 565.506 404.791 566.435C405.382 567.048 404.261 571.483 404.19 572.498C403.452 583.147 404.982 594.327 409.811 604.071C413.815 612.15 418.085 621.708 425.167 627.878C433.017 634.716 444.014 639.536 454.513 641.38C466.138 643.422 477.661 641.893 489.322 641.258C501.154 640.615 512.101 639.053 523.511 635.862C534.122 632.895 544.172 629.028 554.325 624.948C561.231 622.174 569.986 618.182 566.366 609.762C565.491 607.725 562.097 602.064 559.094 604.857C556.436 607.328 560.878 612.005 562.888 613.575C547.736 623.407 529.348 626.659 511.617 630.142C501.879 632.055 492.286 631.973 482.382 632C473.989 632.023 465.597 632.247 457.258 631.156C449.715 630.17 440.931 628.319 435.317 623.187C429.445 617.819 423.887 611.409 419.879 604.711C415.481 597.361 414.414 589.413 414.058 581.124C413.871 576.76 413.661 572.342 414.151 567.988C414.508 564.828 416.242 564.452 417.102 561.955C419.09 564.546 420.398 563.589 422.839 562.075C424.416 566.173 423.714 570.43 423.442 574.656C423.178 578.773 423.769 582.947 424.31 587.035C425.229 593.984 428.808 601.232 433.348 606.828C435.401 609.357 438.477 610.425 441.26 612.172C444.808 614.4 448.487 616.473 452.191 618.472C459.165 622.236 466.777 625.454 474.638 626.022C477.392 626.22 479.394 627.556 482.676 627.369C484.624 627.258 486.586 626.637 488.53 626.687C490.478 626.736 492.151 627.316 494.152 627.181C502.468 626.621 511.041 624.086 519.274 622.694C528.189 621.187 537.158 619.564 545.669 616.589C549.356 615.299 552.401 613.636 554.459 610.396C555.929 608.081 555.544 603.93 558.284 602.545C556.489 600.391 557.157 600.011 558.707 598.085C559.43 597.188 561.766 594.811 558.933 594.854C559.794 591.385 558.354 588.03 557.74 584.637C557.475 583.171 557.547 580.951 556.572 579.689C556.003 578.954 555.058 578.939 554.549 578.398C554.024 578.386 553.613 578.183 553.318 577.787C553.283 577.208 553.574 576.855 554.192 576.728C554.049 575.581 554.961 575.993 554.049 574.2C552.805 571.751 550.444 569.62 548.208 567.955C546.303 566.536 544.9 564.018 542.702 563.261C539.84 562.276 536.84 561.206 533.833 560.292C527.016 558.218 520.26 557.426 513.108 558.574C509.832 559.101 506.605 559.747 503.442 560.689C501.591 561.241 498.759 562.73 497.12 561.125C496.558 560.574 495.381 555.896 495.455 555.391C495.749 553.362 500.201 552.543 501.826 551.835C504.309 550.753 508.905 549.596 510.482 547.448C511.143 546.548 510.396 542.724 510.504 542.656C511.546 542.003 515.918 551.288 517.108 551.922C518.83 552.838 523.667 551.627 525.447 551.445C530.757 550.902 536.155 550.594 541.356 549.415C551.328 547.155 561.12 543.66 570.826 540.571C589.289 534.695 607.114 526.95 623.712 517.331C631.464 512.838 639.165 507.095 645.064 500.572C647.724 497.629 649.604 494.139 652.32 491.254C655.454 487.926 654.466 484.923 655.871 480.753C658.715 472.315 662.168 464.649 663.717 455.806C665.311 446.701 665.968 437.404 665.527 428.186C664.653 409.967 663.703 392.693 655.098 375.952C647.211 360.611 636.992 345.622 624.843 332.92C622.018 329.968 619.034 327.156 615.565 324.86C611.83 322.387 607.719 320.448 604.337 317.527C601.563 315.13 599.243 312.307 596.34 310.031C592.778 307.24 588.541 306.007 584.368 304.224C580.369 302.515 576.721 300.294 572.63 298.738C570.142 297.793 567.62 296.92 565.025 296.259C563.108 295.772 560.56 295.741 558.807 294.814C556.032 293.348 553.193 289.081 551.381 286.671C548.737 283.154 547.304 279.062 546.046 274.974C544.516 269.999 543.093 264.994 541.596 260.011C541.085 258.308 539.173 252.382 542.985 253.82C544.101 254.24 545.147 256.11 546.006 256.909C547.634 258.426 549.645 259.781 551.665 260.812C554.923 262.475 558.316 264.477 561.441 265.624C564.194 266.633 567.026 268.614 569.593 270.038C569.983 270.255 570.097 270.999 570.599 271.207C571.782 271.696 572.571 270.348 573.688 270.678C575.214 271.129 575.465 272.467 576.312 273.532C577.541 275.076 578.177 275.198 580.053 275.992C582.139 276.876 583.671 278.623 585.706 279.489C588.178 280.539 593.618 279.724 593.989 283.348C597.83 281.013 602.648 285.546 605.046 287.898C607.458 284.451 611.732 288.487 615.385 287.343C613.364 289.956 613.731 289.697 616.919 290.02C619.611 290.293 621.222 291.956 623.882 292.922C625.724 293.591 627.761 294.717 629.675 295.188C631.486 295.633 632.857 294.634 634.434 294.884C635.521 295.056 636.554 295.931 637.589 296.17C638.9 296.474 640.767 296.842 642.249 297.169C644.052 297.568 645.845 297.202 647.643 297.518C649.742 297.888 651.553 299.051 653.683 299.428C656.058 299.849 658.528 299.568 660.889 300.103C663.041 300.592 664.35 301.154 666.579 301.174C669.904 301.204 673.615 301.614 676.898 301.264C678.647 301.078 679.615 300.253 681.594 301.06C682.914 301.598 683.705 303.259 685.503 302.498C683.605 301.79 685.271 299.032 687.365 301.144C687.86 299.96 688.18 299.299 689.557 298.91C689.488 300.069 689.285 301.233 690.873 301.476C690.994 300.669 691.117 299.863 691.239 299.056C694.693 301.502 695.51 302.366 698.77 299.381C698.683 300.358 698.24 301.464 699.307 302.156C699.991 301.099 700.675 300.042 701.358 298.986C702.513 302.396 708.025 301.219 710.697 300.614C711.733 300.38 714.596 300.01 715.272 299.219C715.741 298.671 715.683 298.242 715.857 297.907C716.01 297.608 714.254 296.875 715.749 296.446C716.875 296.122 717.752 298.419 719.074 298.327C720.253 298.246 720.729 296.389 721.578 296.013C721.659 295.977 722.234 296.762 722.633 296.59C723.252 296.323 723.606 295.62 724.29 295.371C725.773 294.831 727.69 294.966 729.349 294.326C731.454 293.514 733.576 293.128 735.725 292.459C738.45 291.612 739.686 289.947 741.897 288.585C742.415 288.266 742.955 288.452 743.464 288.226C744.15 287.922 744.869 287.208 745.686 286.872C748.246 285.815 750.434 285.097 752.863 283.639C755.029 282.339 757.888 281.378 759.817 279.818C761.421 278.519 762.287 276.623 763.901 275.302C766.219 273.405 772.208 271.025 771.237 267.319C775.114 267.869 776.063 265.534 777.486 262.958C778.84 260.508 781.614 259.774 783.428 257.539C784.212 256.573 785.474 255.234 785.907 254.132C786.165 253.477 785.519 252.792 785.693 252.344C786.497 250.286 789.6 249.387 791.037 247.53C792.864 245.168 793.451 242.18 794.975 239.753C795.275 239.276 796.014 238.993 796.3 238.483C796.484 238.156 796.101 237.345 796.324 237.024C796.856 236.262 797.691 235.998 798.225 235.292C799.518 233.581 799.753 231.149 800.915 229.21C801.201 228.733 802.197 227.399 802.322 227.114C802.743 226.16 802.615 225.532 802.831 224.47C802.896 224.15 803.56 222.3 803.696 222.036C804.122 221.211 804.535 221.089 805.186 220.184C806.818 217.917 807.83 214.356 807.964 211.605C808.021 210.437 807.603 209.23 808.058 208.116C808.45 207.154 809.657 206.56 810.113 205.552C811.307 202.908 811.112 199.169 811.441 196.34C811.798 193.257 812.858 190.218 813.151 187.158C813.293 185.676 812.545 184.364 812.6 182.969C812.663 181.371 813.555 181.072 813.898 179.743C814.29 178.225 813.716 176.476 814.066 174.848C814.393 173.333 814.867 171.931 815.002 170.378C815.353 166.332 814.857 162.1 814.669 158.052C814.595 156.481 814.37 154.843 814.816 153.305C815.176 152.068 816.643 150.684 816.595 149.342C816.445 145.195 812.88 148.784 810.83 148.499C808.448 148.169 808.009 143.194 807.381 141.308C805.847 136.698 804.312 132.089 802.778 127.481C810.092 125.709 817.697 126.22 825.165 125.741C832.502 125.272 839.667 123.79 846.781 122.123C852.788 120.714 859.361 119.898 864.759 116.891C869.291 114.367 873.03 108.781 870.381 103.853Z" fill="black"/>
<path fill-rule="evenodd" clip-rule="evenodd" d="M160.106 193.076C163.032 191.661 162.294 189.705 164.442 187.889C176.467 177.722 190.578 168.845 204.721 161.516C219.622 153.793 236.34 150.523 251.571 143.68C253.619 142.759 256.281 141.32 255.516 138.756C254.623 135.759 251.556 137.138 249.37 137.845C242.086 140.202 234.333 141.089 226.945 143.159C211.174 147.578 196.405 155.198 183.045 164.117C175.272 169.305 167.826 175.041 161.189 181.484C158.744 183.856 155.485 186.622 154.849 190.039C154.062 194.267 156.749 194.699 160.106 193.076Z" fill="black"/>
<path fill-rule="evenodd" clip-rule="evenodd" d="M205.652 458.888C205.581 455.151 201.207 456.51 198.957 457.012C189.809 459.055 181.631 460.619 173.535 465.35C158.509 474.129 147.124 487.468 139.759 502.228C138.778 504.192 134.829 510.417 137.994 512.27C140.081 513.492 141.346 509.933 142.126 508.612C146.093 501.887 151.404 495.934 156.745 490.091C168.604 477.118 182.859 468.885 199.914 462.873C202.006 462.136 205.704 461.605 205.652 458.888Z" fill="black"/>
<path fill-rule="evenodd" clip-rule="evenodd" d="M711.274 367.11C708.11 361.187 702.993 353.878 695.913 351.439C691.995 350.088 689.677 352.322 690.84 356.054C691.764 359.023 694.851 360.473 697.156 362.441C703.086 367.506 706.739 375.069 708.905 382.091C711.194 389.515 711.651 397.571 711.611 405.256C711.589 409.314 710.425 412.84 709.793 416.79C709.545 418.342 709.122 421.764 711.039 422.733C715.289 424.882 717.252 413.665 717.686 411.508C719.285 403.552 719.131 396.227 717.784 388.284C716.552 381.021 714.824 373.753 711.274 367.11Z" fill="black"/>
<path fill-rule="evenodd" clip-rule="evenodd" d="M699.118 82.487C700.847 80.3181 699.585 77.2816 700.1 74.8087C700.639 72.2167 702.247 69.5945 703.607 67.3271C706.546 62.432 709.823 57.625 713.316 53.0592C716.922 48.3443 721.321 44.3269 725.154 39.7969C726.45 38.2644 728.747 36.074 728.187 34.2296C727.28 31.2431 725.305 32.6987 723.723 33.9502C715.072 40.7937 707.455 49.2316 701.301 58.094C698.381 62.3003 695.622 66.9065 694.656 71.896C694.157 74.473 694.152 77.1618 694.974 79.6847C695.49 81.2704 697.04 85.0933 699.118 82.487Z" fill="black"/>
<path fill-rule="evenodd" clip-rule="evenodd" d="M166.017 447.526C170.351 447.153 174.711 447.021 179.056 446.813C182.272 446.659 185.89 446.844 188.841 445.403C191.812 443.953 190.521 441.782 188.051 441.46C186.631 441.275 184.235 442.167 182.713 442.229C181.065 442.294 179.409 442.247 177.76 442.253C172.941 442.269 167.747 442.235 163.1 443.726C161.583 444.213 159.283 444.964 158.659 446.579C157.324 450.03 164.006 447.699 166.017 447.526Z" fill="black"/>
<path fill-rule="evenodd" clip-rule="evenodd" d="M203.973 131.641C210.268 130.939 216.353 129.184 222.555 128.065C228.451 127.002 229.455 122.677 222.474 122.871C220.13 122.936 197.531 126.925 203.973 131.641Z" fill="black"/>
<path fill-rule="evenodd" clip-rule="evenodd" d="M724.147 348.552C719.918 347.567 722.105 351.932 723.415 353.281C725.835 355.776 727.157 357.645 727.876 360.971C728.296 362.909 727.903 367.282 729.669 368.763C731.41 370.221 731.53 369.253 731.839 367.453C732.71 362.379 730.97 350.142 724.147 348.552Z" fill="black"/>
<path fill-rule="evenodd" clip-rule="evenodd" d="M677.717 72.3765C678.916 71.195 677.631 66.0573 677.772 64.5516C677.945 62.7273 678.409 61.1834 678.994 59.4713C679.278 58.6412 680.707 55.7111 679.937 54.8013C678.871 53.5402 677.099 55.6713 676.538 56.5101C674.714 59.2403 674.288 63.7924 674.591 66.8667C674.7 67.9797 675.424 74.6366 677.717 72.3765Z" fill="black"/>
<path fill-rule="evenodd" clip-rule="evenodd" d="M428.701 505.618C428.9 502.708 431.912 500.691 431.921 497.596C431.932 494.119 429.417 492.614 426.285 494.874C424.397 496.237 422.926 499.556 420.372 499.991C415.248 500.865 413.238 492.303 408.191 493.294C403.823 494.151 406.119 501.133 407.437 503.489C408.834 505.985 411.371 507.737 410.546 510.809C409.564 514.457 406.2 516.559 407.508 520.722C409.94 528.458 415.22 521.225 418.395 518.794C420.657 517.061 422.024 517.369 424.221 519.068C427.231 521.396 429.531 522.976 433.18 524.544C436.399 525.927 439.504 526.892 439.604 522.252C439.683 518.602 436.721 514.971 434.12 512.495C431.962 510.44 428.481 508.858 428.701 505.618Z" fill="black"/>
<path fill-rule="evenodd" clip-rule="evenodd" d="M372.303 494.078C368.538 490.342 363.781 499.869 360.738 500.924C355.805 502.633 354.67 493.474 350.128 493.762C346.593 493.986 346.872 498.699 347.642 500.848C348.47 503.162 350.95 505.054 351.365 507.425C352.003 511.058 344.614 518.322 349.771 521.832C354.173 524.829 355.812 514.704 361.316 518.835C364.018 520.862 371.578 528.408 375.324 524.653C379.75 520.215 369.222 512.636 367.3 509.261C364.7 504.69 377.822 499.551 372.303 494.078Z" fill="black"/>
<path fill-rule="evenodd" clip-rule="evenodd" d="M463.535 364.3C462.456 363.857 460.71 364.59 459.542 364.543C458.287 364.494 456.98 363.963 455.742 363.767C453.053 363.339 448.324 363.958 446.415 361.728C444.469 359.452 445.949 354.886 445.117 352.118C444.664 350.614 444.14 348.757 441.962 349.428C439.434 350.206 439.495 354.525 439.193 356.419C438.749 359.214 438.391 361.346 435.37 362.34C433.135 363.075 430.783 362.705 428.976 364.413C427.651 365.666 426.757 367.952 427.794 369.588C429.351 372.045 432.723 370.773 435.061 371.549C438.628 372.734 437.78 378.155 438.511 381.267C438.979 383.267 440.009 388.868 443.096 388.778C447.305 388.656 445.671 380.787 445.437 378.49C445.201 376.161 444.637 374.184 447.432 373.46C449.794 372.848 453.092 373.983 455.53 373.969C458.61 373.952 462.239 373.232 464.098 370.664C465.159 369.196 465.832 365.243 463.535 364.3Z" fill="black"/>
<path fill-rule="evenodd" clip-rule="evenodd" d="M618.222 461.141C624.915 461.679 620.859 469.351 625.3 472.402C629.537 475.311 630.107 467.279 630.106 464.987C630.104 459.431 637.366 461.484 641.787 460.565C645.56 459.781 649.679 456.136 645.174 453.031C641.922 450.79 636.53 451.83 632.754 451.236C627.638 450.431 629.159 447.254 629.045 443.591C629.005 442.249 628.507 437.462 626.644 437.085C623.23 436.394 623.026 445.309 622.796 447.006C621.823 454.184 616.523 449.811 612.313 453.409C606.81 458.113 614.235 460.821 618.222 461.141Z" fill="black"/>
<path fill-rule="evenodd" clip-rule="evenodd" d="M299.908 327.315C289.452 335.288 277.578 334.146 268.008 325.563C263.961 321.934 261.516 318.276 261.878 312.964C262.203 308.185 263.712 302.904 267.825 299.676C271.289 296.955 277.823 295.979 282.209 295.599C288.358 295.066 293.858 298.18 298.111 302.071C301.815 305.459 306.143 309.777 306.715 314.807C307.316 320.1 304.074 324.138 299.908 327.315ZM301.498 295.587C292.119 287.185 275.486 288.028 265.802 295.691C254.934 304.292 253.075 320.451 263.521 329.875C274.529 339.806 289.06 338.734 300.713 330.496C306.963 326.078 310.355 320.408 311.225 313.134C312.047 306.258 306.627 300.182 301.498 295.587Z" fill="black"/>
<path fill-rule="evenodd" clip-rule="evenodd" d="M482.863 150.948C481.81 154.13 482.54 157.52 482.726 160.762C479.753 159.032 477.902 155.946 474.709 154.512C473.178 158.447 480.808 169.702 485.61 166.013C490.002 162.637 486.76 153.216 482.863 150.948Z" fill="black"/>
<path fill-rule="evenodd" clip-rule="evenodd" d="M498.464 170.353C496.098 171.174 493.897 170.946 491.563 171.366C490.023 171.643 489.824 170.829 489.625 172.469C489.2 175.97 495.271 177.324 498.005 177.275C501.342 177.215 505 175.127 504.677 171.728C504.343 168.187 501.038 169.461 498.464 170.353Z" fill="black"/>
<path fill-rule="evenodd" clip-rule="evenodd" d="M500.404 155.64C499.33 154.733 496.856 151.306 495.04 151.893C493.648 152.342 494.632 153.889 495.04 154.663C496.569 157.566 499.568 160.037 501.965 162.366C500.19 162.952 496.771 163.33 497.674 165.87C498.504 168.205 502.265 167.846 504.068 166.864C510.242 163.496 503.494 158.249 500.404 155.64Z" fill="black"/>
<path fill-rule="evenodd" clip-rule="evenodd" d="M506.637 150.128C507.06 151.731 507.287 153.245 506.355 154.748L501.213 146.168C497.077 147.747 504.331 160.11 508.557 158.741C511.479 157.795 510.075 151.985 509.614 150.157C509.367 149.178 508.779 146.066 507.321 145.75C504.452 145.129 506.324 148.946 506.637 150.128Z" fill="black"/>
<path fill-rule="evenodd" clip-rule="evenodd" d="M294.488 323.193C292.102 321.557 288.15 325.388 285.628 325.401C280.532 325.427 283.307 319.865 280.117 318.063C278.454 317.123 271.49 318.071 272.59 314.178C273.252 311.837 275.84 313.527 277.258 312.096C279.036 310.303 276.5 308.873 274.922 308.137C275.615 307.277 279.605 306.9 280.608 307.495C282.338 308.522 282.238 311.604 283.826 313.191C285.886 310.744 284.768 307.67 286.962 305.473C287.814 304.619 290.306 303.978 289.337 302.455C288.776 301.571 286.315 301.863 285.472 301.16C284.737 300.546 284.773 298.568 283.587 298.404C281.648 298.136 281.696 300.891 281.113 301.687C279.362 304.078 271.665 303.254 274.855 308.105C272.73 307.118 266.932 306.339 268.057 309.783C268.345 310.664 269.441 311.203 269.713 312.207C269.949 313.077 269.43 314.317 269.381 315.19C269.288 316.846 269.146 318.782 270.463 320.114C272.273 321.945 274.692 320.613 276.634 321.409C279.279 322.493 278.326 324.748 279.721 326.72C281.548 329.299 284.357 328.507 286.944 327.726C290.029 326.796 290.517 326.711 292.774 329.102C293.806 327.861 296.633 324.664 294.488 323.193Z" fill="black"/>
<path fill-rule="evenodd" clip-rule="evenodd" d="M298.636 313.121C296.147 312.693 297.127 305.793 294.099 308.792C292.963 309.915 294.126 312.107 292.859 313.311C292.009 314.12 290.929 313.643 290.078 314.174C289.313 314.649 289.119 315.561 288.668 316.258C290.269 316.929 291.506 317.016 293.215 316.723C293.215 317.921 292.36 321.447 294.557 321.19C296.601 320.95 296.024 317.41 297.063 316.31C298.12 315.192 302.376 315.711 302.772 314.138C303.262 312.192 299.724 313.309 298.636 313.121Z" fill="black"/>
</svg>
